<?xml version="1.0" encoding="UTF-8"?>
<svg width="24px" height="24px" viewBox="0 0 24 24" version="1.1" xmlns="http://www.w3.org/2000/svg" xmlns:xlink="http://www.w3.org/1999/xlink">
    <title>_icons/crew-groups 24px</title>
    <g id="_icons/crew-groups-24px" stroke="none" stroke-width="1" fill="none" fill-rule="evenodd">
        <circle id="Oval" stroke="#7E7E7E" stroke-width="2" cx="12" cy="12" r="9"></circle>
        <g id="Group-3" transform="translate(6.000000, 8.000000)" fill="#7E7E7E" fill-rule="nonzero">
            <path d="M4.2,4.57142857 C2.802,4.57142857 0,5.24 0,6.57142857 L0,8 L4.2,8 L4.2,6.71428571 C4.2,6.228 4.398,5.37714286 5.622,4.73142857 C5.1,4.62857143 4.596,4.57142857 4.2,4.57142857" id="Path"></path>
            <path d="M8.7,5.14285714 C7.602,5.14285714 5.4,5.66857143 5.4,6.71428571 L5.4,8 L12,8 L12,6.71428571 C12,5.66857143 9.798,5.14285714 8.7,5.14285714" id="Path"></path>
            <path d="M4.2,3.42857143 C5.196,3.42857143 5.994,2.66285714 5.994,1.71428571 C5.994,0.765714286 5.196,0 4.2,0 C3.204,0 2.4,0.765714286 2.4,1.71428571 C2.4,2.66285714 3.204,3.42857143 4.2,3.42857143" id="Path"></path>
            <path d="M8.7,4 C9.528,4 10.194,3.36 10.194,2.57142857 C10.194,1.78285714 9.528,1.14285714 8.7,1.14285714 C7.872,1.14285714 7.2,1.78285714 7.2,2.57142857 C7.2,3.36 7.872,4 8.7,4" id="Path"></path>
        </g>
    </g>
</svg>