<svg id="Layer_1" data-name="Layer 1" xmlns="http://www.w3.org/2000/svg" viewBox="0 0 15 25.1"><defs><style>.cls-1{fill:#7e7e7e;}</style></defs><title>rocket_black</title><g id="Page-1"><g id="Group-13"><path id="Combined-Shape" class="cls-1" d="M4.5,4.3C4.5,2.9,7.3,0,8,0s3.5,3.1,3.5,4.3V17.1h-7ZM8,9.2a2.4,2.4,0,0,0,2.5-2.3A2.4,2.4,0,0,0,8,4.6,2.4,2.4,0,0,0,5.5,6.9,2.4,2.4,0,0,0,8,9.2Z" transform="translate(-0.5 0)"/><path id="Rectangle" class="cls-1" d="M12.5,11.2c2,.4,3,1.3,3,2.9v5.5l-3-2.9Z" transform="translate(-0.5 0)"/><path id="Rectangle-2" data-name="Rectangle" class="cls-1" d="M3.5,11.2c-2,.4-3,1.3-3,2.9v5.5l3-2.9Z" transform="translate(-0.5 0)"/><g id="Group-8"><rect id="Rectangle-2-2" data-name="Rectangle-2" class="cls-1" x="5" y="18" width="1" height="3.96"/><rect id="Rectangle-2-3" data-name="Rectangle-2" class="cls-1" x="9" y="18" width="1" height="3.96"/><rect id="Rectangle-2-4" data-name="Rectangle-2" class="cls-1" x="7" y="18" width="1" height="7.13"/></g></g></g></svg>