<svg width="546" height="387" viewBox="0 0 546 387" fill="none" xmlns="http://www.w3.org/2000/svg">
<circle cx="283" cy="204" r="183" fill="#E8F4FC"/>
<path d="M222 199.619C222 192.129 228.131 186 235.625 186H317.375C324.869 186 331 192.129 331 199.619V267.714C331 275.205 324.869 281.333 317.375 281.333H235.625C228.131 281.333 222 275.205 222 267.714V199.619Z" fill="#F2EB9F"/>
<path d="M314.562 181.667H324.375C331.869 181.667 338 187.795 338 195.286V263.381C338 270.871 331.869 277 324.375 277H242.625C235.131 277 229 270.871 229 263.381V195.286C229 187.795 235.131 181.667 242.625 181.667H252.438M314.562 181.667V168.048C314.562 149.253 302.303 134 283.5 134C264.697 134 252.438 149.253 252.438 168.048V181.667M314.562 181.667H252.438" stroke="black" stroke-width="5"/>
<circle cx="284" cy="227" r="16" stroke="black" stroke-width="5"/>
<path d="M464.101 143.463C458.731 147.476 457.631 155.082 461.644 160.452C465.656 165.821 473.263 166.921 478.633 162.91" fill="#8AC3C1"/>
<path d="M395.855 154.859L369.438 174.6L395.855 154.859Z" fill="#EBEBEA"/>
<path d="M369.436 176.036C368.998 176.036 368.566 175.84 368.286 175.458C367.812 174.823 367.94 173.925 368.577 173.448L394.997 153.71C395.637 153.243 396.541 153.363 397.006 154.002C397.482 154.636 397.348 155.534 396.714 156.011L370.295 175.749C370.037 175.941 369.736 176.036 369.436 176.036Z" fill="#100F0D"/>
<path d="M400.395 160.934L381.796 174.832L400.395 160.934Z" fill="#EBEBEA"/>
<path d="M381.797 176.271C381.36 176.271 380.926 176.074 380.647 175.693C380.169 175.059 380.298 174.161 380.938 173.684L399.537 159.782C400.177 159.322 401.075 159.429 401.546 160.075C402.023 160.709 401.894 161.607 401.255 162.084L382.656 175.984C382.398 176.176 382.099 176.271 381.797 176.271Z" fill="#100F0D"/>
<path d="M391.473 148.995L372.874 162.892L391.473 148.995Z" fill="#EBEBEA"/>
<path d="M372.874 164.328C372.435 164.328 372.003 164.132 371.723 163.75C371.249 163.116 371.377 162.218 372.014 161.741L390.614 147.845C391.254 147.373 392.157 147.503 392.623 148.137C393.1 148.772 392.965 149.669 392.332 150.147L373.733 164.043C373.475 164.233 373.173 164.328 372.874 164.328Z" fill="#100F0D"/>
<path d="M411.594 73.1937C406.223 77.2065 405.123 84.8125 409.136 90.183C413.149 95.5521 420.755 96.6519 426.125 92.6406" fill="#8AC3C1"/>
<path d="M418.888 97.2126C418.197 97.2126 417.507 97.1622 416.812 97.0613C413.034 96.5165 409.695 94.5303 407.406 91.4717C405.121 88.4131 404.167 84.6469 404.712 80.8705C405.255 77.0927 407.243 73.7531 410.302 71.4642C411.256 70.7622 412.608 70.9525 413.321 71.9009C414.033 72.8551 413.837 74.2085 412.883 74.9206C410.746 76.5147 409.359 78.8497 408.977 81.4874C408.595 84.1251 409.262 86.7512 410.862 88.8902C412.456 91.0278 414.791 92.4143 417.429 92.7963C420.078 93.1653 422.699 92.5095 424.832 90.9096C425.79 90.2091 427.138 90.3993 427.85 91.3477C428.564 92.3019 428.368 93.6481 427.413 94.3674C424.916 96.2296 421.952 97.2126 418.888 97.2126Z" fill="#100F0D"/>
<path d="M437.81 108.278L404.713 63.9847C401.646 59.8811 402.486 54.0695 406.59 51.0023C410.695 47.9366 416.507 48.7769 419.572 52.8804L465.481 87.6013" fill="#CCCCCA"/>
<path d="M437.812 110.435C437.155 110.435 436.51 110.136 436.084 109.57L402.983 65.2727C399.218 60.2279 400.256 53.0499 405.301 49.2793C407.748 47.4546 410.762 46.6748 413.782 47.1245C416.699 47.5454 419.286 49.0372 421.105 51.339L466.782 85.8812C467.73 86.599 467.916 87.9467 467.197 88.9009C466.485 89.8435 465.133 90.0352 464.177 89.316L418.27 54.5994C418.113 54.4754 417.967 54.3356 417.843 54.1728C416.71 52.6464 415.044 51.659 413.163 51.3895C411.278 51.1257 409.404 51.5913 407.882 52.73C404.74 55.0823 404.088 59.549 406.439 62.6912L439.54 106.989C440.254 107.943 440.058 109.295 439.103 110.008C438.716 110.295 438.262 110.435 437.812 110.435Z" fill="#100F0D"/>
<path d="M480.087 107.148L500.374 161.015C503.44 165.117 502.6 170.93 498.495 173.995C494.393 177.061 488.58 176.221 485.514 172.117L452.416 127.824" fill="#CCCCCA"/>
<path d="M492.969 178C492.42 178 491.863 177.961 491.308 177.876C488.289 177.438 485.616 175.855 483.787 173.409L450.686 129.118C449.973 128.164 450.17 126.812 451.125 126.098C452.085 125.396 453.431 125.582 454.143 126.536L487.244 170.828C488.378 172.354 490.044 173.342 491.925 173.611C493.828 173.896 495.686 173.409 497.206 172.269C500.348 169.918 500.994 165.446 498.643 162.302C498.525 162.139 498.424 161.961 498.357 161.769L478.074 107.904C477.653 106.793 478.215 105.546 479.332 105.131C480.432 104.71 481.689 105.278 482.104 106.387L502.284 159.979C505.831 165.013 504.749 172.011 499.788 175.721C497.79 177.214 495.422 178 492.969 178Z" fill="#100F0D"/>
<path d="M471.395 167.482C470.711 167.482 470.015 167.432 469.32 167.331C465.542 166.786 462.202 164.8 459.914 161.742C457.629 158.683 456.675 154.917 457.22 151.14C457.763 147.363 459.751 144.024 462.809 141.734C463.768 141.032 465.11 141.218 465.829 142.171C466.541 143.126 466.345 144.478 465.391 145.19C463.252 146.785 461.867 149.12 461.485 151.757C461.103 154.395 461.77 157.021 463.37 159.16C464.964 161.298 467.299 162.684 469.937 163.066C472.586 163.425 475.206 162.779 477.344 161.179C478.298 160.479 479.646 160.663 480.364 161.618C481.077 162.572 480.881 163.924 479.925 164.637C477.429 166.499 474.46 167.482 471.395 167.482Z" fill="#100F0D"/>
<path d="M414.095 141.362L392.955 139.007C388.556 138.37 385.504 134.288 386.141 129.887C386.777 125.487 390.86 122.437 395.261 123.073L414.32 125.83L482.953 74.5449C488.351 70.512 495.996 71.6175 500.03 77.0154C504.063 82.4133 502.956 90.0583 497.56 94.0926L428.927 145.378L426.169 164.437C425.534 168.837 421.45 171.889 417.05 171.252C412.651 170.614 409.599 166.531 410.235 162.132L413.968 141.192L414.095 141.362Z" fill="white"/>
<path d="M415.976 142.205L412.355 162.51C411.901 165.658 414.141 168.656 417.356 169.121C420.571 169.559 423.574 167.348 424.034 164.125L426.796 145.068C426.879 144.5 427.182 143.99 427.638 143.647L496.269 92.3629C498.418 90.7587 499.815 88.4122 500.197 85.7572C500.585 83.1037 499.91 80.4544 498.3 78.3054C496.695 76.1549 494.349 74.7582 491.694 74.3762C489.039 73.9784 486.396 74.6688 484.241 76.273L415.611 127.557C415.15 127.894 414.577 128.063 414.011 127.962L394.952 125.206C393.408 124.992 391.843 125.374 390.58 126.317C389.318 127.26 388.499 128.635 388.274 130.194C388.049 131.755 388.441 133.311 389.385 134.567C390.328 135.83 391.703 136.65 393.263 136.874L413.382 139.112C413.41 139.108 413.444 139.096 413.472 139.09C414.302 138.889 415.184 139.214 415.694 139.905C416.177 140.55 416.311 141.482 415.976 142.205ZM418.202 173.493C417.721 173.493 417.232 173.46 416.738 173.386C411.171 172.579 407.299 167.393 408.101 161.825L411.412 143.231L392.712 141.15C387.078 140.337 383.206 135.15 384.008 129.577C384.395 126.878 385.815 124.492 387.999 122.866C390.187 121.226 392.904 120.547 395.569 120.941L413.747 123.567L481.66 72.8167C484.73 70.5206 488.49 69.5563 492.311 70.1112C496.106 70.6561 499.456 72.6538 501.758 75.7224C504.053 78.7983 505.013 82.5761 504.462 86.3755C503.919 90.1692 501.919 93.5204 498.851 95.8208L430.931 146.565L428.299 164.744C427.57 169.823 423.192 173.493 418.202 173.493Z" fill="#100F0D"/>
<path d="M152.363 263.176C156.577 266.496 162.684 265.771 166.004 261.557C169.322 257.344 168.597 251.237 164.385 247.917" fill="#E553B1"/>
<path d="M175.306 313.565L196.035 329.895L175.306 313.565Z" fill="#EBEBEA"/>
<path d="M197.145 329.599C197.236 329.938 197.174 330.313 196.936 330.608C196.545 331.106 195.824 331.193 195.323 330.799L174.596 314.466C174.102 314.068 174.007 313.345 174.405 312.853C174.796 312.354 175.518 312.271 176.018 312.663L196.745 328.995C196.947 329.154 197.083 329.367 197.145 329.599Z" fill="#100F0D"/>
<path d="M179.061 308.798L193.655 320.295L179.061 308.798Z" fill="#EBEBEA"/>
<path d="M194.767 319.997C194.858 320.334 194.795 320.71 194.559 321.005C194.167 321.505 193.447 321.592 192.945 321.196L178.348 309.7C177.86 309.3 177.757 308.584 178.158 308.086C178.55 307.586 179.271 307.5 179.772 307.895L194.368 319.392C194.569 319.552 194.705 319.763 194.767 319.997Z" fill="#100F0D"/>
<path d="M171.681 318.167L186.274 329.664L171.681 318.167Z" fill="#EBEBEA"/>
<path d="M187.384 329.367C187.475 329.706 187.413 330.08 187.176 330.376C186.784 330.874 186.063 330.96 185.562 330.567L170.97 319.069C170.473 318.672 170.386 317.947 170.78 317.455C171.171 316.955 171.893 316.874 172.393 317.264L186.986 328.762C187.186 328.922 187.322 329.135 187.384 329.367Z" fill="#100F0D"/>
<path d="M108.925 318.314C113.139 321.634 119.246 320.908 122.566 316.695C125.885 312.481 125.159 306.374 120.947 303.054" fill="#E553B1"/>
<path d="M125.98 307.701C126.123 308.235 126.227 308.779 126.292 309.337C126.654 312.37 125.81 315.362 123.92 317.765C122.029 320.164 119.316 321.682 116.284 322.043C113.252 322.405 110.259 321.56 107.856 319.67C107.116 319.078 106.983 317.994 107.568 317.246C108.158 316.498 109.245 316.369 109.993 316.959C111.668 318.281 113.76 318.869 115.878 318.618C117.996 318.367 119.887 317.308 121.209 315.628C122.531 313.953 123.119 311.861 122.868 309.744C122.605 307.619 121.555 305.73 119.877 304.412C119.137 303.817 119.005 302.736 119.59 301.989C120.18 301.24 121.261 301.113 122.015 301.701C123.971 303.246 125.345 305.333 125.98 307.701Z" fill="#100F0D"/>
<path d="M130.613 290.785L103.233 325.539C100.696 328.759 96.0301 329.313 92.8096 326.777C89.5898 324.239 89.0357 319.573 91.5725 316.354L108.901 273.679" fill="#CCCCCA"/>
<path d="M132.28 290.336C132.416 290.844 132.319 291.404 131.969 291.851L104.586 326.61C101.467 330.564 95.704 331.249 91.7448 328.13C89.8276 326.617 88.6007 324.449 88.3229 322.022C88.044 319.68 88.6612 317.371 90.0637 315.488L107.302 273.03C107.661 272.148 108.664 271.725 109.55 272.084C110.426 272.439 110.854 273.444 110.496 274.332L93.1708 317.004C93.1076 317.151 93.0296 317.293 92.9294 317.422C91.9843 318.614 91.5662 320.107 91.7474 321.616C91.934 323.128 92.6819 324.48 93.8773 325.42C96.3462 327.362 99.9335 326.94 101.875 324.473L129.258 289.714C129.848 288.965 130.934 288.837 131.683 289.426C131.985 289.667 132.187 289.989 132.28 290.336Z" fill="#100F0D"/>
<path d="M120.984 258.341L158.417 231.505C160.953 228.286 165.62 227.732 168.84 230.269C172.059 232.805 172.613 237.472 170.076 240.692L142.696 275.447" fill="#CCCCCA"/>
<path d="M173.079 233.711C173.193 234.136 173.278 234.574 173.327 235.021C173.614 237.445 172.944 239.838 171.433 241.759L144.054 276.516C143.464 277.265 142.378 277.392 141.629 276.803C140.888 276.206 140.753 275.127 141.343 274.379L168.721 239.622C169.666 238.429 170.084 236.937 169.903 235.427C169.73 233.897 168.968 232.562 167.772 231.623C165.304 229.681 161.714 230.108 159.771 232.577C159.669 232.702 159.552 232.817 159.418 232.909L121.985 259.741C121.214 260.297 120.133 260.12 119.581 259.343C119.028 258.58 119.207 257.491 119.979 256.94L157.221 230.244C160.378 226.459 166.011 225.847 169.906 228.913C171.474 230.148 172.571 231.815 173.079 233.711Z" fill="#100F0D"/>
<path d="M169.418 252.564C169.56 253.093 169.665 253.642 169.731 254.2C170.092 257.233 169.249 260.225 167.359 262.628C165.468 265.027 162.754 266.544 159.723 266.905C156.69 267.268 153.698 266.423 151.295 264.533C150.554 263.938 150.419 262.862 151.007 262.109C151.598 261.361 152.684 261.232 153.432 261.822C155.107 263.145 157.198 263.732 159.316 263.481C161.434 263.23 163.326 262.17 164.648 260.491C165.97 258.816 166.558 256.724 166.307 254.606C166.035 252.484 164.994 250.593 163.314 249.272C162.575 248.679 162.439 247.6 163.028 246.847C163.617 246.098 164.703 245.97 165.452 246.56C167.409 248.104 168.783 250.196 169.418 252.564Z" fill="#100F0D"/>
<path d="M161.096 302.262L163.654 319.09C164.073 322.622 161.55 325.826 158.016 326.245C154.484 326.665 151.281 324.14 150.86 320.608L149.044 305.305L95.191 262.879C90.956 259.542 90.2272 253.404 93.5638 249.168C96.9007 244.933 103.039 244.205 107.275 247.54L161.128 289.967L176.43 288.151C179.963 287.731 183.167 290.255 183.586 293.788C184.005 297.32 181.481 300.525 177.949 300.944L160.991 302.396L161.096 302.262Z" fill="white"/>
<path d="M161.358 300.634L177.802 299.228C180.329 298.927 182.182 296.575 181.876 293.993C181.549 291.418 179.218 289.554 176.632 289.866L161.33 291.678C160.874 291.731 160.417 291.603 160.057 291.322L106.205 248.896C104.52 247.567 102.417 246.974 100.286 247.228C98.1547 247.478 96.2467 248.548 94.9191 250.238C93.5895 251.924 92.9956 254.026 93.2503 256.157C93.4927 258.292 94.5738 260.192 96.26 261.525L150.112 303.95C150.468 304.237 150.717 304.644 150.756 305.103L152.573 320.405C152.728 321.642 153.347 322.773 154.338 323.553C155.328 324.334 156.56 324.682 157.812 324.533C159.065 324.383 160.186 323.758 160.962 322.768C161.743 321.778 162.092 320.545 161.941 319.294L159.505 303.279C159.496 303.259 159.479 303.234 159.469 303.214C159.141 302.615 159.211 301.865 159.638 301.328C160.038 300.821 160.729 300.525 161.358 300.634ZM185.08 292.433C185.18 292.805 185.255 293.19 185.301 293.587C185.83 298.057 182.623 302.124 178.154 302.657L163.097 303.949L165.361 318.834C165.899 323.357 162.692 327.424 158.219 327.958C156.052 328.218 153.914 327.614 152.205 326.263C150.484 324.912 149.397 322.952 149.149 320.811L147.414 306.217L94.1231 264.236C91.7126 262.339 90.1885 259.632 89.826 256.564C89.4611 253.518 90.3115 250.515 92.2066 248.1C94.1088 245.689 96.8299 244.165 99.8806 243.804C102.925 243.438 105.93 244.289 108.343 246.185L161.631 288.172L176.227 286.441C180.304 285.953 184.046 288.576 185.08 292.433Z" fill="#100F0D"/>
<path d="M201.263 87.8142H102.186V80.2616H201.263V87.8142Z" fill="white"/>
<path d="M201.263 90H102.184C100.977 90 100 89.0208 100 87.816C100 86.6093 100.977 85.6302 102.184 85.6302H201.263C202.47 85.6302 203.447 86.6093 203.447 87.816C203.447 89.0208 202.47 90 201.263 90Z" fill="#100F0D"/>
<path d="M102.185 80.2624H118.556C114.463 75.7007 113.935 68.9513 117.374 65.1892C120.814 61.4254 126.92 62.0758 131.011 66.6358C129.321 58.4203 133.712 50.3133 140.819 48.5309C147.927 46.7467 155.059 51.9606 156.75 60.1779C160.097 56.4815 164.626 56.1332 167.48 58.6442C169.908 60.7785 170.681 63.9097 170.102 66.8579C173.126 62.4046 178.648 61.3365 182.435 64.4713C186.223 67.6078 186.161 75.8091 183.138 80.2624H201.263" fill="white"/>
<path d="M201.263 82.4492H183.139C182.33 82.4492 181.588 81.9996 181.207 81.2888C180.829 80.5709 180.877 79.7072 181.332 79.0355C183.9 75.2574 183.741 68.3908 181.042 66.1534C179.807 65.1298 178.266 64.6749 176.686 64.913C174.84 65.1742 173.098 66.3365 171.906 68.0887C171.323 68.947 170.214 69.2669 169.258 68.8724C168.3 68.4761 167.757 67.456 167.956 66.4378C168.434 64.0209 167.733 61.7729 166.038 60.2819C163.964 58.4729 160.737 59.0238 158.372 61.6485C157.823 62.2563 156.984 62.5228 156.175 62.2847C155.381 62.0679 154.775 61.4264 154.61 60.6178C153.844 56.9019 151.754 53.7334 148.872 51.9226C146.551 50.4725 143.881 50.0122 141.353 50.6484C135.376 52.1518 131.698 59.1215 133.151 66.1978C133.35 67.1664 132.876 68.1455 131.996 68.588C131.117 69.0376 130.047 68.8404 129.384 68.094C127.589 66.0912 125.283 64.9379 123.054 64.9255H123.024C121.421 64.9255 120.028 65.5297 118.99 66.6599C116.337 69.5672 116.884 75.1277 120.184 78.808C120.758 79.446 120.904 80.3665 120.552 81.1573C120.2 81.9428 119.418 82.4492 118.556 82.4492H102.184C100.977 82.4492 100 81.4701 100 80.2652C100 79.0586 100.977 78.0794 102.184 78.0794H114.489C112.102 73.1533 112.459 67.3316 115.763 63.7135C117.627 61.677 120.204 60.5556 123.026 60.5556H123.077C124.924 60.5681 126.779 61.0496 128.506 61.9435C128.956 54.558 133.594 48.0894 140.288 46.4172C143.976 45.4878 147.857 46.1204 151.196 48.2245C154.167 50.0922 156.502 52.9764 157.887 56.4132C161.531 54.1883 165.862 54.3074 168.922 57.005C170.461 58.352 171.533 60.0936 172.07 62.0288C173.306 61.2842 174.668 60.7884 176.072 60.5894C178.86 60.186 181.634 60.9643 183.83 62.7859C187.775 66.0628 188.36 72.8672 186.604 78.0794H201.263C202.47 78.0794 203.447 79.0586 203.447 80.2652C203.447 81.4701 202.47 82.4492 201.263 82.4492Z" fill="#100F0D"/>
<path d="M306.078 26.7642L294.765 38.0776L306.078 49.3922L317.391 38.0776L306.078 26.7642Z" fill="#FDD705"/>
<path d="M296.642 38.0801L306.076 47.5135L315.513 38.0801L306.076 28.6415L296.642 38.0801ZM306.076 50.7215C305.733 50.7215 305.396 50.5921 305.136 50.3321L293.824 39.0201C293.305 38.5001 293.305 37.6601 293.824 37.1401L305.136 25.8228C305.634 25.3241 306.517 25.3241 307.016 25.8228L318.333 37.1401C318.582 37.3895 318.722 37.7268 318.722 38.0801C318.722 38.4335 318.582 38.7708 318.333 39.0201L307.016 50.3321C306.756 50.5921 306.413 50.7215 306.076 50.7215Z" fill="#100F0D"/>
<path d="M306.075 14.6347C305.343 14.6347 304.746 14.0373 304.746 13.3053V1.32933C304.746 0.597333 305.343 0 306.075 0C306.807 0 307.405 0.597333 307.405 1.32933V13.3053C307.405 14.0373 306.807 14.6347 306.075 14.6347Z" fill="#100F0D"/>
<path d="M306.075 76.1549C305.343 76.1549 304.746 75.5576 304.746 74.8256V62.8536C304.746 62.1216 305.343 61.5243 306.075 61.5243C306.807 61.5243 307.405 62.1216 307.405 62.8536V74.8256C307.405 75.5576 306.807 76.1549 306.075 76.1549Z" fill="#100F0D"/>
<path d="M281.301 39.4087H269.329C268.597 39.4087 268 38.8114 268 38.0794C268 37.3474 268.597 36.7501 269.329 36.7501H281.301C282.033 36.7501 282.631 37.3474 282.631 38.0794C282.631 38.8114 282.033 39.4087 281.301 39.4087Z" fill="#100F0D"/>
<path d="M342.827 39.4087H330.855C330.123 39.4087 329.526 38.8114 329.526 38.0794C329.526 37.3474 330.123 36.7501 330.855 36.7501H342.827C343.559 36.7501 344.156 37.3474 344.156 38.0794C344.156 38.8114 343.559 39.4087 342.827 39.4087Z" fill="#100F0D"/>
<path d="M193.068 115.659C190.083 115.659 187.659 118.083 187.659 121.068C187.659 124.048 190.083 126.472 193.068 126.472C196.048 126.472 198.472 124.048 198.472 121.068C198.472 118.083 196.048 115.659 193.068 115.659ZM193.068 129.131C188.619 129.131 185 125.512 185 121.068C185 116.619 188.619 113 193.068 113C197.512 113 201.131 116.619 201.131 121.068C201.131 125.512 197.512 129.131 193.068 129.131Z" fill="#291616"/>
<path d="M63.068 33.6587C60.0827 33.6587 57.6587 36.0827 57.6587 39.068C57.6587 42.048 60.0827 44.472 63.068 44.472C66.048 44.472 68.472 42.048 68.472 39.068C68.472 36.0827 66.048 33.6587 63.068 33.6587ZM63.068 47.1307C58.6187 47.1307 55 43.512 55 39.068C55 34.6187 58.6187 31 63.068 31C67.512 31 71.1307 34.6187 71.1307 39.068C71.1307 43.512 67.512 47.1307 63.068 47.1307Z" fill="#291616"/>
<path d="M429.068 229.659C426.083 229.659 423.659 232.083 423.659 235.068C423.659 238.048 426.083 240.472 429.068 240.472C432.048 240.472 434.472 238.048 434.472 235.068C434.472 232.083 432.048 229.659 429.068 229.659ZM429.068 243.131C424.619 243.131 421 239.512 421 235.068C421 230.619 424.619 227 429.068 227C433.512 227 437.131 230.619 437.131 235.068C437.131 239.512 433.512 243.131 429.068 243.131Z" fill="#291616"/>
<path d="M38.0788 142.764L26.7655 154.077L38.0788 165.392L49.3922 154.077L38.0788 142.764Z" fill="#F79210"/>
<path d="M28.6452 154.08L38.0786 163.513L47.5132 154.08L38.0786 144.641L28.6452 154.08ZM38.0786 166.721C37.7386 166.721 37.3986 166.592 37.1386 166.332L25.8266 155.02C25.3079 154.5 25.3079 153.66 25.8266 153.14L37.1386 141.822C37.6372 141.324 38.5199 141.324 39.0172 141.822L50.3332 153.14C50.5826 153.389 50.7226 153.726 50.7226 154.08C50.7226 154.433 50.5826 154.77 50.3332 155.02L39.0172 166.332C38.7586 166.592 38.4186 166.721 38.0786 166.721Z" fill="#100F0D"/>
<path d="M38.0782 130.629C37.3435 130.629 36.7488 130.032 36.7488 129.3V117.328C36.7488 116.597 37.3435 116 38.0782 116C38.8128 116 39.4075 116.597 39.4075 117.328V129.3C39.4075 130.032 38.8128 130.629 38.0782 130.629Z" fill="#100F0D"/>
<path d="M38.0782 192.155C37.3435 192.155 36.7488 191.557 36.7488 190.825V178.853C36.7488 178.121 37.3435 177.524 38.0782 177.524C38.8128 177.524 39.4075 178.121 39.4075 178.853V190.825C39.4075 191.557 38.8128 192.155 38.0782 192.155Z" fill="#100F0D"/>
<path d="M13.304 155.409H1.33067C0.594667 155.409 0 154.811 0 154.079C0 153.347 0.594667 152.75 1.33067 152.75H13.304C14.0387 152.75 14.6333 153.347 14.6333 154.079C14.6333 154.811 14.0387 155.409 13.304 155.409Z" fill="#100F0D"/>
<path d="M74.8268 155.409H62.8521C62.1174 155.409 61.5228 154.811 61.5228 154.079C61.5228 153.347 62.1174 152.75 62.8521 152.75H74.8268C75.5614 152.75 76.1561 153.347 76.1561 154.079C76.1561 154.811 75.5614 155.409 74.8268 155.409Z" fill="#100F0D"/>
<path d="M507.079 314.764L495.766 326.077L507.079 337.392L518.392 326.077L507.079 314.764Z" fill="#A6DF7A"/>
<path d="M497.645 326.08L507.079 335.513L516.513 326.08L507.079 316.641L497.645 326.08ZM507.079 338.721C506.739 338.721 506.399 338.592 506.139 338.332L494.827 327.02C494.308 326.5 494.308 325.66 494.827 325.14L506.139 313.822C506.637 313.324 507.52 313.324 508.017 313.822L519.333 325.14C519.583 325.389 519.723 325.726 519.723 326.08C519.723 326.433 519.583 326.77 519.333 327.02L508.017 338.332C507.759 338.592 507.419 338.721 507.079 338.721Z" fill="#100F0D"/>
<path d="M507.078 302.629C506.344 302.629 505.749 302.032 505.749 301.3V289.328C505.749 288.597 506.344 288 507.078 288C507.813 288 508.408 288.597 508.408 289.328V301.3C508.408 302.032 507.813 302.629 507.078 302.629Z" fill="#100F0D"/>
<path d="M507.078 364.155C506.344 364.155 505.749 363.557 505.749 362.825V350.853C505.749 350.121 506.344 349.524 507.078 349.524C507.813 349.524 508.408 350.121 508.408 350.853V362.825C508.408 363.557 507.813 364.155 507.078 364.155Z" fill="#100F0D"/>
<path d="M482.304 327.409H470.331C469.595 327.409 469 326.811 469 326.079C469 325.347 469.595 324.75 470.331 324.75H482.304C483.039 324.75 483.633 325.347 483.633 326.079C483.633 326.811 483.039 327.409 482.304 327.409Z" fill="#100F0D"/>
<path d="M543.827 327.409H531.852C531.117 327.409 530.523 326.811 530.523 326.079C530.523 325.347 531.117 324.75 531.852 324.75H543.827C544.561 324.75 545.156 325.347 545.156 326.079C545.156 326.811 544.561 327.409 543.827 327.409Z" fill="#100F0D"/>
<path d="M296.807 276.745H269V288H421.94V276.745H397.443C409.36 262.179 397.443 243.641 376.919 258.206C382.215 231.061 345.801 224.441 337.194 250.262C329.249 242.317 317.332 243.641 317.332 258.206C295.086 243.376 290.186 267.476 296.807 276.745Z" fill="white"/>
<path d="M269 276.745C269 276.745 284.228 276.745 296.807 276.745C290.186 267.476 295.086 243.376 317.332 258.206C317.332 243.641 329.249 242.317 337.194 250.262C345.801 224.441 382.215 231.061 376.919 258.206C397.443 243.641 409.36 262.179 397.443 276.745C408.036 276.745 418.188 276.745 421.94 276.745M269 288H421.94" stroke="black" stroke-width="5" stroke-linecap="round" stroke-linejoin="round"/>
</svg>
