<?xml version="1.0" encoding="UTF-8"?>
<svg width="592px" height="328px" viewBox="0 0 592 328" version="1.1" xmlns="http://www.w3.org/2000/svg" xmlns:xlink="http://www.w3.org/1999/xlink">
    <!-- Generator: Sketch 53 (72520) - https://sketchapp.com -->
    <title>404_3</title>
    <desc>Created with Sketch.</desc>
    <g id="Spacing-Specs---Current-vs-Final" stroke="none" stroke-width="1" fill="none" fill-rule="evenodd">
        <g id="Clem--Error-404---Spacing-FINAL" transform="translate(-361.000000, -92.000000)">
            <g id="404_3" transform="translate(320.000000, 54.000000)">
                <g id="_404" transform="translate(41.000000, 38.000000)">
                    <circle id="Oval" fill="#81B3DE" fill-rule="nonzero" cx="282.11" cy="246.18" r="78.15"></circle>
                    <g id="Saturne" transform="translate(0.000000, 37.000000)" fill-rule="nonzero">
                        <path d="M113.07,57.07 L110.4,65.66 C103.23902,82.6074576 86.6282596,93.6214843 68.23,93.6214843 C49.8317404,93.6214843 33.2209803,82.6074576 26.06,65.66 L23.32,56.66 C19.7531346,38.4755523 27.5030686,19.9347162 42.9498434,9.69783113 C58.3966182,-0.539053918 78.4918031,-0.451732223 93.8490294,9.91900865 C109.206256,20.2897495 116.794765,38.8972374 113.07,57.05" id="Path" fill="#E0654D"></path>
                        <path d="M68.23,95.1 C49.2249523,95.1219734 32.0605542,83.743416 24.68,66.23 L21.89,57.11 C18.1646756,38.3381285 26.1307846,19.1729746 42.0648393,8.57263968 C57.9988941,-2.02769524 78.7536194,-1.96944579 94.6279227,8.72016129 C110.502226,19.4097684 118.360634,38.6193347 114.53,57.37 L114.53,57.51 L111.86,66.1 C104.501945,83.6858931 87.2931587,95.1242337 68.23,95.1 L68.23,95.1 Z M68.23,3.57 C54.992503,3.57622356 42.4517331,9.50321684 34.0433459,19.7272273 C25.6349586,29.9512377 22.2405322,43.400328 24.79,56.39 L27.49,65.21 C34.4669401,81.5523074 50.5337036,92.1443349 68.3030001,92.1160051 C86.0722967,92.0876754 102.105205,81.444471 109.03,65.08 L111.62,56.7 C114.254348,43.6751953 110.908128,30.1555227 102.502609,19.863168 C94.0970886,9.5708133 81.5185247,3.59097506 68.23,3.57 L68.23,3.57 Z" id="Shape" fill="#000000"></path>
                        <path d="M23.2,39.67 C17.2,41.99 12.66,45.1 12.66,48.11 C12.66,56.11 37.54,62.65 68.23,62.65 C98.92,62.65 123.81,56.14 123.81,48.11 C123.81,45.05 120.18,42.21 114,39.86 L111.15,31.86 C125.27,35.86 134.22,41.92 134.22,48.63 C134.22,60.82 104.67,70.7 68.22,70.7 C31.77,70.7 2.22,60.82 2.22,48.63 C2.22,41.92 11.22,35.91 25.29,31.86 L23.2,39.67 Z" id="Path" fill="#FFFFFF"></path>
                        <path d="M68.23,72.24 C30.4,72.24 0.76,61.88 0.76,48.67 C0.76,41.39 9.33,34.93 24.91,30.46 C25.4295697,30.3127237 25.9881586,30.4581098 26.37,30.84 C26.7596191,31.2131474 26.909864,31.7717502 26.76,32.29 L24.64,40.06 C24.517596,40.5183048 24.1829236,40.8901629 23.74,41.06 C17.12,43.63 14.16,46.45 14.16,48.06 C14.16,54.23 36.37,61.06 68.23,61.06 C100.09,61.06 122.31,54.18 122.31,48.06 C122.31,45.83 119.09,43.34 113.47,41.21 C113.063903,41.0512845 112.744117,40.7278647 112.59,40.32 L109.74,32.32 C109.5489,31.7921711 109.668515,31.2018149 110.05,30.79 C110.437967,30.38325 111.01773,30.2219914 111.56,30.37 C127.13,34.84 135.71,41.3 135.71,48.58 C135.71,61.88 106.07,72.24 68.23,72.24 Z M23.17,34.11 C11,38 3.75,43.37 3.75,48.67 C3.75,58.6 29.66,69.25 68.23,69.25 C106.8,69.25 132.72,58.6 132.72,48.67 C132.72,43.41 125.62,38.09 113.56,34.2 L115.18,38.71 C121.89,41.37 125.3,44.53 125.3,48.11 C125.3,58.53 95.9,64.11 68.23,64.11 C40.56,64.11 11.17,58.49 11.17,48.11 C11.17,43.68 17.62,40.31 21.95,38.56 L23.17,34.11 Z" id="Shape" fill="#000000"></path>
                    </g>
                    <g id="Etoile" transform="translate(39.000000, 221.000000)" fill-rule="nonzero">
                        <rect id="Rectangle" fill="#FDD848" transform="translate(29.133732, 29.326464) rotate(-45.000000) translate(-29.133732, -29.326464) " x="23.1337323" y="23.3264641" width="12" height="12"></rect>
                        <path d="M29.14,38.81 C28.874197,38.8115368 28.6187188,38.7071865 28.43,38.52 L20,30 C19.6122764,29.6099625 19.6122764,28.9800375 20,28.59 L28.48,20.1 C28.8700375,19.7122764 29.4999625,19.7122764 29.89,20.1 L38.38,28.59 C38.7677236,28.9800375 38.7677236,29.6099625 38.38,30 L29.89,38.48 C29.698611,38.692076 29.4256593,38.8121747 29.14,38.81 Z M22.06,29.33 L29.14,36.41 L36.21,29.33 L29.14,22.26 L22.06,29.33 Z" id="Shape" fill="#000000"></path>
                        <path d="M29.14,1.77 L29.14,10.75" id="Path" fill="#FDD848"></path>
                        <path d="M29.14,11.75 C28.5877153,11.75 28.14,11.3022847 28.14,10.75 L28.14,1.75 C28.14,1.19771525 28.5877153,0.75 29.14,0.75 C29.6922847,0.75 30.14,1.19771525 30.14,1.75 L30.14,10.75 C30.14,11.3022847 29.6922847,11.75 29.14,11.75 Z" id="Path" fill="#000000"></path>
                        <path d="M29.14,47.91 L29.14,56.9" id="Path" fill="#FDD848"></path>
                        <path d="M29.14,57.89 C28.5877153,57.89 28.14,57.4422847 28.14,56.89 L28.14,47.89 C28.14,47.3377153 28.5877153,46.89 29.14,46.89 C29.6922847,46.89 30.14,47.3377153 30.14,47.89 L30.14,56.89 C30.14,57.4422847 29.6922847,57.89 29.14,57.89 Z" id="Path" fill="#000000"></path>
                        <path d="M1.57,29.33 L10.56,29.33" id="Path" fill="#FDD848"></path>
                        <path d="M10.56,30.33 L1.56,30.33 C1.00771525,30.33 0.56,29.8822847 0.56,29.33 C0.56,28.7777153 1.00771525,28.33 1.56,28.33 L10.56,28.33 C11.1122847,28.33 11.56,28.7777153 11.56,29.33 C11.56,29.8822847 11.1122847,30.33 10.56,30.33 Z" id="Path" fill="#000000"></path>
                        <path d="M47.72,29.33 L56.7,29.33" id="Path" fill="#FDD848"></path>
                        <path d="M56.7,30.33 L47.7,30.33 C47.1477153,30.33 46.7,29.8822847 46.7,29.33 C46.7,28.7777153 47.1477153,28.33 47.7,28.33 L56.7,28.33 C57.2522847,28.33 57.7,28.7777153 57.7,29.33 C57.7,29.8822847 57.2522847,30.33 56.7,30.33 Z" id="Path" fill="#000000"></path>
                    </g>
                    <g id="Etoile-2" transform="translate(386.000000, 0.000000)" fill-rule="nonzero">
                        <rect id="Rectangle" fill="#FDD848" transform="translate(28.870278, 29.052741) rotate(-45.000000) translate(-28.870278, -29.052741) " x="22.870278" y="23.0527413" width="12" height="12"></rect>
                        <path d="M28.87,38.54 C28.6027541,38.5388906 28.3470714,38.4308556 28.16,38.24 L19.68,29.76 C19.2922764,29.3699625 19.2922764,28.7400375 19.68,28.35 L28.16,19.86 C28.5500375,19.4722764 29.1799625,19.4722764 29.57,19.86 L38.06,28.35 C38.4477236,28.7400375 38.4477236,29.3699625 38.06,29.76 L29.57,38.24 C29.3853695,38.4284143 29.1337693,38.536243 28.87,38.54 Z M21.79,29.06 L28.87,36.13 L36,29.06 L28.87,22 L21.79,29.06 Z" id="Shape" fill="#000000"></path>
                        <path d="M28.87,1.49 L28.87,10.47" id="Path" fill="#FDD848"></path>
                        <path d="M28.87,11.47 C28.3177153,11.47 27.87,11.0222847 27.87,10.47 L27.87,1.47 C27.87,0.91771525 28.3177153,0.47 28.87,0.47 C29.4222847,0.47 29.87,0.91771525 29.87,1.47 L29.87,10.47 C29.87,11.0222847 29.4222847,11.47 28.87,11.47 Z" id="Path" fill="#000000"></path>
                        <path d="M28.87,47.64 L28.87,56.62" id="Path" fill="#FDD848"></path>
                        <path d="M28.87,57.61 C28.3177153,57.61 27.87,57.1622847 27.87,56.61 L27.87,47.61 C27.87,47.0577153 28.3177153,46.61 28.87,46.61 C29.4222847,46.61 29.87,47.0577153 29.87,47.61 L29.87,56.61 C29.87,57.1622847 29.4222847,57.61 28.87,57.61 Z" id="Path" fill="#000000"></path>
                        <path d="M1.31,29.05 L10.29,29.05" id="Path" fill="#FDD848"></path>
                        <path d="M10.29,30.05 L1.29,30.05 C0.73771525,30.05 0.29,29.6022847 0.29,29.05 C0.29,28.4977153 0.73771525,28.05 1.29,28.05 L10.29,28.05 C10.8422847,28.05 11.29,28.4977153 11.29,29.05 C11.29,29.6022847 10.8422847,30.05 10.29,30.05 Z" id="Path" fill="#000000"></path>
                        <path d="M47.45,29.05 L56.43,29.05" id="Path" fill="#FDD848"></path>
                        <path d="M56.43,30.05 L47.43,30.05 C46.8777153,30.05 46.43,29.6022847 46.43,29.05 C46.43,28.4977153 46.8777153,28.05 47.43,28.05 L56.43,28.05 C56.9822847,28.05 57.43,28.4977153 57.43,29.05 C57.43,29.6022847 56.9822847,30.05 56.43,30.05 Z" id="Path" fill="#000000"></path>
                    </g>
                    <g id="Planete" transform="translate(490.000000, 88.000000)" fill-rule="nonzero">
                        <circle id="Oval" fill="#A35172" cx="51.15" cy="51.21" r="48.91"></circle>
                        <path d="M51.15,101.62 C23.3093258,101.62 0.74,79.0506742 0.74,51.21 C0.74,23.3693258 23.3093258,0.8 51.15,0.8 C78.9906742,0.8 101.56,23.3693258 101.56,51.21 C101.521443,79.0346876 78.9746876,101.581443 51.15,101.62 Z M51.15,3.8 C31.9694904,3.80000043 14.6778054,15.3545948 7.33867667,33.0754621 C-0.000452029292,50.7963294 4.05843507,71.1933012 17.6225336,84.7545393 C31.1866321,98.3157774 51.5844595,102.370363 69.3037785,95.0274967 C87.0230976,87.6846307 98.5740448,70.3905091 98.57,51.21 C98.5369317,25.0359861 77.3240202,3.82754814 51.15,3.8 Z" id="Shape" fill="#2A1616"></path>
                        <path d="M91.8,24.01 L56.68,24.01" id="Path" fill="#A35172"></path>
                        <path d="M91.8,25.51 L56.68,25.51 C55.8515729,25.51 55.18,24.8384271 55.18,24.01 C55.18,23.1815729 55.8515729,22.51 56.68,22.51 L91.8,22.51 C92.6284271,22.51 93.3,23.1815729 93.3,24.01 C93.3,24.8384271 92.6284271,25.51 91.8,25.51 Z" id="Path" fill="#2A1616"></path>
                        <path d="M91.8,78.4 L56.68,78.4" id="Path" fill="#A35172"></path>
                        <path d="M91.8,79.9 L56.68,79.9 C55.8515729,79.9 55.18,79.2284271 55.18,78.4 C55.18,77.5715729 55.8515729,76.9 56.68,76.9 L91.8,76.9 C92.6284271,76.9 93.3,77.5715729 93.3,78.4 C93.3,79.2284271 92.6284271,79.9 91.8,79.9 L91.8,79.9 Z" id="Path" fill="#2A1616"></path>
                        <path d="M2.24,51.21 L59.96,51.21" id="Path" fill="#A35172"></path>
                        <path d="M60,52.7 L2.24,52.7 C1.41157288,52.7 0.74,52.0284271 0.74,51.2 C0.74,50.3715729 1.41157288,49.7 2.24,49.7 L60,49.7 C60.8284271,49.7 61.5,50.3715729 61.5,51.2 C61.5,52.0284271 60.8284271,52.7 60,52.7 Z" id="Path" fill="#2A1616"></path>
                    </g>
                    <g id="Etoile-3" transform="translate(183.000000, 74.000000)" fill-rule="nonzero">
                        <rect id="Rectangle" fill="#EDA040" transform="translate(29.258859, 28.715132) rotate(-45.000000) translate(-29.258859, -28.715132) " x="23.2588586" y="22.7151318" width="12" height="12"></rect>
                        <path d="M29.26,38.19 C28.9976601,38.1888954 28.7462606,38.0847442 28.56,37.9 L20.07,29.41 C19.6822764,29.0199625 19.6822764,28.3900375 20.07,28 L28.56,19.52 C28.9500375,19.1322764 29.5799625,19.1322764 29.97,19.52 L38.45,28 C38.6408556,28.1870714 38.7488906,28.4427541 38.75,28.71 C38.746243,28.9737693 38.6384143,29.2253695 38.45,29.41 L30,37.9 C29.8039913,38.0947498 29.5361384,38.1997192 29.26,38.19 L29.26,38.19 Z M22.19,28.71 L29.26,35.78 L36.34,28.71 L29.26,21.63 L22.19,28.71 Z" id="Shape" fill="#000000"></path>
                        <path d="M29.26,1.15 L29.26,10.13" id="Path" fill="#EDA040"></path>
                        <path d="M29.26,11.12 C28.7077153,11.12 28.26,10.6722847 28.26,10.12 L28.26,1.12 C28.26,0.56771525 28.7077153,0.12 29.26,0.12 C29.8122847,0.12 30.26,0.56771525 30.26,1.12 L30.26,10.12 C30.26,10.6722847 29.8122847,11.12 29.26,11.12 Z" id="Path" fill="#000000"></path>
                        <path d="M29.26,47.29 L29.26,56.27" id="Path" fill="#EDA040"></path>
                        <path d="M29.26,57.27 C28.7077153,57.27 28.26,56.8222847 28.26,56.27 L28.26,47.27 C28.26,46.7177153 28.7077153,46.27 29.26,46.27 C29.8122847,46.27 30.26,46.7177153 30.26,47.27 L30.26,56.27 C30.26,56.8222847 29.8122847,57.27 29.26,57.27 Z" id="Path" fill="#000000"></path>
                        <path d="M1.7,28.71 L10.68,28.71" id="Path" fill="#EDA040"></path>
                        <path d="M10.68,29.71 L1.68,29.71 C1.12771525,29.71 0.68,29.2622847 0.68,28.71 C0.68,28.1577153 1.12771525,27.71 1.68,27.71 L10.68,27.71 C11.2322847,27.71 11.68,28.1577153 11.68,28.71 C11.68,29.2622847 11.2322847,29.71 10.68,29.71 Z" id="Path" fill="#000000"></path>
                        <path d="M47.84,28.71 L56.83,28.71" id="Path" fill="#EDA040"></path>
                        <path d="M56.82,29.71 L47.82,29.71 C47.2677153,29.71 46.82,29.2622847 46.82,28.71 C46.82,28.1577153 47.2677153,27.71 47.82,27.71 L56.82,27.71 C57.3722847,27.71 57.82,28.1577153 57.82,28.71 C57.82,29.2622847 57.3722847,29.71 56.82,29.71 Z" id="Path" fill="#000000"></path>
                    </g>
                    <g id="Etoile-4" transform="translate(419.000000, 270.000000)" fill-rule="nonzero">
                        <rect id="Rectangle" fill="#EDA040" transform="translate(28.971206, 28.893201) rotate(-45.000000) translate(-28.971206, -28.893201) " x="22.9712063" y="22.8932007" width="12" height="12"></rect>
                        <path d="M29,38.37 C28.7376601,38.3688954 28.4862606,38.2647442 28.3,38.08 L19.81,29.59 C19.6252558,29.4037394 19.5211046,29.1523399 19.52,28.89 C19.5184632,28.624197 19.6228135,28.3687188 19.81,28.18 L28.3,19.69 C28.4862606,19.5052558 28.7376601,19.4011046 29,19.4 L29,19.4 C29.265803,19.3984632 29.5212812,19.5028135 29.71,19.69 L38.19,28.18 C38.5777236,28.5700375 38.5777236,29.1999625 38.19,29.59 L29.71,38.08 C29.5212812,38.2671865 29.265803,38.3715368 29,38.37 Z M21.92,28.89 L29,36 L36.08,28.93 L29,21.81 L21.92,28.89 Z" id="Shape" fill="#000000"></path>
                        <path d="M28.97,1.32 L28.97,10.31" id="Path" fill="#EDA040"></path>
                        <path d="M29,11.3 C28.4477153,11.3 28,10.8522847 28,10.3 L28,1.3 C28,0.74771525 28.4477153,0.3 29,0.3 C29.5522847,0.3 30,0.74771525 30,1.3 L30,10.3 C30,10.8522847 29.5522847,11.3 29,11.3 Z" id="Path" fill="#000000"></path>
                        <path d="M28.97,47.47 L28.97,56.45" id="Path" fill="#EDA040"></path>
                        <path d="M29,57.44 C28.4477153,57.44 28,56.9922847 28,56.44 L28,47.44 C28,46.8877153 28.4477153,46.44 29,46.44 C29.5522847,46.44 30,46.8877153 30,47.44 L30,56.44 C30,56.9922847 29.5522847,57.44 29,57.44 Z" id="Path" fill="#000000"></path>
                        <path d="M1.41,28.89 L10.39,28.89" id="Path" fill="#EDA040"></path>
                        <path d="M10.39,29.88 L1.39,29.88 C0.83771525,29.88 0.39,29.4322847 0.39,28.88 C0.39,28.3277153 0.83771525,27.88 1.39,27.88 L10.39,27.88 C10.9422847,27.88 11.39,28.3277153 11.39,28.88 C11.39,29.4322847 10.9422847,29.88 10.39,29.88 Z" id="Path" fill="#000000"></path>
                        <path d="M47.55,28.89 L56.53,28.89" id="Path" fill="#EDA040"></path>
                        <path d="M56.53,29.88 L47.53,29.88 C46.9777153,29.88 46.53,29.4322847 46.53,28.88 C46.53,28.3277153 46.9777153,27.88 47.53,27.88 L56.53,27.88 C57.0822847,27.88 57.53,28.3277153 57.53,28.88 C57.53,29.4322847 57.0822847,29.88 56.53,29.88 Z" id="Path" fill="#000000"></path>
                    </g>
                    <circle id="Etoile-5" fill="#DDDDDD" fill-rule="nonzero" cx="130.78" cy="166.4" r="5.05"></circle>
                    <path d="M130.78,172.45 C128.328471,172.449916 126.119324,170.970412 125.185905,168.703538 C124.252485,166.436663 124.779328,163.830575 126.519998,162.10429 C128.260669,160.378005 130.87104,159.872808 133.13009,160.825007 C135.389141,161.777206 136.850261,163.998555 136.83,166.45 C136.830056,168.05 136.191056,169.58375 135.055,170.710417 C133.918944,171.837083 132.379944,172.463333 130.78,172.45 Z M130.78,162.35 C128.537724,162.35 126.72,164.167724 126.72,166.41 C126.72,168.652276 128.537724,170.47 130.78,170.47 C133.022276,170.47 134.84,168.652276 134.84,166.41 C134.84,164.167724 133.022276,162.35 130.78,162.35 Z" id="Shape" fill="#2A1616" fill-rule="nonzero"></path>
                    <circle id="Etoile-6" fill="#DDDDDD" fill-rule="nonzero" cx="148.36" cy="298.89" r="5.05"></circle>
                    <path d="M148.36,304.93 C145.046292,304.93 142.36,302.243708 142.36,298.93 C142.36,295.616292 145.046292,292.93 148.36,292.93 C151.673708,292.93 154.36,295.616292 154.36,298.93 C154.327484,302.230146 151.660146,304.897484 148.36,304.93 L148.36,304.93 Z M148.36,294.83 C146.117724,294.83 144.3,296.647724 144.3,298.89 C144.3,301.132276 146.117724,302.95 148.36,302.95 C150.602276,302.95 152.42,301.132276 152.42,298.89 C152.42,297.813221 151.992251,296.780544 151.230854,296.019146 C150.469456,295.257749 149.436779,294.83 148.36,294.83 Z" id="Shape" fill="#2A1616" fill-rule="nonzero"></path>
                    <circle id="Etoile-7" fill="#DDDDDD" fill-rule="nonzero" cx="471.54" cy="224.53" r="5.05"></circle>
                    <path d="M471.54,230.58 C468.198677,230.58 465.49,227.871323 465.49,224.53 C465.49,221.188677 468.198677,218.48 471.54,218.48 C474.881323,218.48 477.59,221.188677 477.59,224.53 C477.584495,227.86904 474.87904,230.574495 471.54,230.58 Z M471.54,220.47 C469.896979,220.465953 468.41349,221.45257 467.781927,222.969364 C467.150364,224.486157 467.495248,226.234073 468.655609,227.397299 C469.81597,228.560525 471.56303,228.909719 473.081376,228.281898 C474.599722,227.654078 475.589995,226.173026 475.59,224.53 C475.590007,222.291623 473.77837,220.475513 471.54,220.47 L471.54,220.47 Z" id="Shape" fill="#2A1616" fill-rule="nonzero"></path>
                    <circle id="Etoile-8" fill="#DDDDDD" fill-rule="nonzero" cx="503.67" cy="52.41" r="5.05"></circle>
                    <path d="M503.67,58.46 C500.36294,58.4324402 497.701757,55.7340679 497.720092,52.4269442 C497.738427,49.1198206 500.429366,46.451121 503.736528,46.4602311 C507.04369,46.4693412 509.719885,49.1528256 509.72,52.46 C509.687136,55.7794971 506.989656,58.4546847 503.67,58.46 L503.67,58.46 Z M503.67,48.35 C502.026979,48.3459531 500.54349,49.3325705 499.911927,50.8493637 C499.280364,52.3661569 499.625248,54.1140729 500.785609,55.2772991 C501.94597,56.4405254 503.69303,56.7897185 505.211376,56.1618981 C506.729722,55.5340777 507.719995,54.0530257 507.72,52.41 C507.720007,50.1716234 505.90837,48.3555132 503.67,48.35 Z" id="Shape" fill="#2A1616" fill-rule="nonzero"></path>
                    <circle id="Etoile-9" fill="#DDDDDD" fill-rule="nonzero" cx="312.65" cy="63.39" r="5.05"></circle>
                    <path d="M312.65,69.44 C310.194021,69.4602148 307.969534,67.9936412 307.020309,65.7284226 C306.071084,63.463204 306.585511,60.8489073 308.322209,59.1122089 C310.058907,57.3755105 312.673204,56.8610845 314.938423,57.810309 C317.203641,58.7595336 318.670215,60.9840208 318.65,63.44 C318.622819,66.742384 315.952384,69.4128185 312.65,69.44 Z M312.65,59.34 C311.001557,59.3361197 309.514398,60.3293501 308.886503,61.853531 C308.258608,63.3777119 308.61463,65.1302517 309.787476,66.288618 C310.960322,67.4469842 312.717149,67.7812096 314.233413,67.1344296 C315.749676,66.4876496 316.724357,64.9882678 316.7,63.34 C316.66727,61.1250779 314.865158,59.3452143 312.65,59.34 Z" id="Shape" fill="#2A1616" fill-rule="nonzero"></path>
                    <g id="Terre" transform="translate(201.000000, 165.000000)" fill-rule="nonzero">
                        <path d="M80.69,160.83 C57.536999,160.809819 35.5238507,150.778444 20.3181029,133.318573 C5.1123551,115.858702 -1.80025741,92.6763169 1.36,69.74 C1.40424828,69.3435026 1.60882503,68.9823837 1.92616947,68.7405974 C2.2435139,68.4988112 2.64597968,68.3974216 3.04,68.46 C3.85542463,68.5738112 4.42670363,69.3236149 4.32,70.14 C3.8393393,73.6562129 3.59878236,77.2010866 3.6,80.75 C3.60201763,114.417709 25.4524114,144.189777 57.5703708,154.286871 C89.6883302,164.383964 124.643712,152.470229 143.91,124.86 C144.200615,124.381856 144.733201,124.105211 145.291498,124.142398 C145.849795,124.179584 146.340986,124.52442 146.565619,125.036883 C146.790253,125.549346 146.710984,126.144238 146.36,126.58 C131.366897,148.024713 106.856169,160.808213 80.69,160.83 L80.69,160.83 Z" id="Path" fill="#000000"></path>
                        <path d="M11.17,45.57 C10.9252683,45.5696169 10.6845592,45.5077203 10.47,45.39 C10.1224474,45.2071204 9.86183293,44.8936008 9.74554573,44.5184808 C9.62925852,44.1433608 9.66683481,43.7374021 9.85,43.39 C27.6483833,9.73139453 66.6591058,-6.77378477 103.21,3.89 C103.993539,4.13506626 104.437721,4.96124527 104.21,5.75 C103.956303,6.52636486 103.137531,6.9665649 102.35,6.75 C67.1673412,-3.53748245 29.6026066,12.3443591 12.47,44.75 C12.2202655,45.241447 11.7210899,45.5563116 11.17,45.57 L11.17,45.57 Z" id="Path" fill="#000000"></path>
                        <path d="M149.55,120.14 C149.294283,120.14124 149.042665,120.07575 148.82,119.95 C148.115576,119.551495 147.858071,118.663548 148.24,117.95 C154.491103,106.558247 157.768808,93.7741651 157.77,80.78 C157.77,79.9515729 158.441573,79.28 159.27,79.28 C160.098427,79.28 160.77,79.9515729 160.77,80.78 C160.774697,94.2796758 157.365701,107.561343 150.86,119.39 C150.590102,119.85751 150.089811,120.143937 149.55,120.14 L149.55,120.14 Z" id="Path" fill="#000000"></path>
                        <path d="M69.24,7.09 C71.84,9.09 75.38,10.27 78.49,9.17 C80.49,8.46 82.24,6.88 84.36,6.79 C86.88,6.68 88.94,8.67 90.6,10.56 C91.45,11.56 92.34,12.67 92.22,13.96 C91.9945011,15.0176088 91.4247922,15.9706403 90.6,16.67 L77.91,30.09 C77.8070261,30.2271672 77.6636327,30.3285918 77.5,30.38 C77.304537,30.3846738 77.1135661,30.3210169 76.96,30.2 C73.65,28.02 72.27,23.9 71.49,20.02 C71.22,18.65 70.89,17.11 69.73,16.33 C68.7856718,15.8849798 67.7699828,15.6107438 66.73,15.52 C59.17,13.73 61.81,1.25 69.24,7.09 Z" id="Path" fill="#50935D"></path>
                        <path d="M77.42,31.88 C76.9601364,31.8667486 76.5145949,31.7170745 76.14,31.45 C72.14,28.82 70.74,23.83 70.03,20.31 C69.81,19.24 69.57,18.02 68.9,17.58 C68.430063,17.3489992 67.9215638,17.2066194 67.4,17.16 C67.06,17.1 66.73,17.05 66.4,16.97 C63.465141,16.3296185 61.2319862,13.9412176 60.79,10.97 C60.2975315,8.56155851 61.2939418,6.09219385 63.32,4.7 C64.45,4.05 66.83,3.34 70.17,5.96 C72.12,7.49 75.17,8.78 78,7.8 C78.6715553,7.53350273 79.323214,7.21936981 79.95,6.86 C81.2619038,6.02161263 82.7514451,5.50112925 84.3,5.34 C87.42,5.2 89.81,7.42 91.73,9.62 C92.49,10.48 93.9,12.09 93.73,14.14 C93.4861888,15.5304286 92.7817467,16.7984244 91.73,17.74 L79,31.12 C78.6838705,31.4899222 78.2554204,31.7462899 77.78,31.85 L77.42,31.88 Z M65.61,7.05 C65.3345565,7.04291366 65.0620986,7.1084415 64.82,7.24 C63.8797894,8.03541061 63.4662097,9.29161065 63.75,10.49 C63.9846883,12.2721157 65.3274347,13.7073267 67.09,14.06 C67.34,14.12 67.61,14.17 67.88,14.21 C68.8279412,14.299033 69.7437977,14.599762 70.56,15.09 C72.26,16.22 72.66,18.25 72.96,19.72 C73.53,22.55 74.59,26.46 77.27,28.58 L89.52,15.64 C90.0932965,15.1653097 90.5141302,14.5323201 90.73,13.82 C90.8,13.15 90.17,12.33 89.48,11.55 C88.03,9.89 86.29,8.1 84.43,8.29 C83.3390014,8.44224723 82.2964328,8.83876515 81.38,9.45 C80.6142525,9.88886151 79.8151123,10.2666977 78.99,10.58 C75.7,11.75 71.61,10.86 68.32,8.27 C67.568098,7.58746131 66.6194686,7.16040308 65.61,7.05 L65.61,7.05 Z" id="Shape" fill="#000000"></path>
                        <path d="M23.16,69.94 C25.29,72.58 28,74.94 31.16,74.29 C32.1383814,73.9721634 33.1419874,73.7379886 34.16,73.59 C36.0052343,73.7159155 37.588611,74.9509494 38.16,76.71 C38.6911671,78.4437053 38.8646742,80.2672315 38.67,82.07 C40.82,79 45.61,77.27 48.31,79.87 C49.54,81.06 50.06,82.87 51.41,83.93 C54.41,86.27 59.41,83.3 62.51,85.49 C64.33,86.74 64.76,89.18 65.37,91.31 C65.98,93.44 67.37,95.79 69.59,95.79 C71.81,95.79 73.65,93.2 75.89,93.55 C76.9227941,93.8222454 77.8432304,94.4137045 78.52,95.24 C80.36,97.12 82.23,99.58 81.59,102.13 C81.03,104.38 78.71,105.77 77.82,107.92 C76.53,111.03 78.33,115.4 75.72,117.53 C74.72,118.33 73.31,118.53 72.46,119.53 C71.2,120.94 71.8,123.17 72.7,124.83 C73.6,126.49 74.8,128.22 74.53,130.09 C73.92,134.26 66.71,135.63 67.31,139.8 C67.54,141.46 69.09,142.8 69.08,144.44 C69.08,145.73 68.13,146.98 68.49,148.22 C68.91,149.67 70.99,150.48 70.78,151.98 C70.5022067,152.990036 69.4627175,153.587854 68.45,153.32 C67.4806218,153.032549 66.6155888,152.469757 65.96,151.7 C59.6592151,145.474753 54.8282968,137.920891 51.82,129.59 C51.14,127.7 50.56,125.59 51.35,123.73 C51.84,122.56 52.83,121.66 53.35,120.49 C54.0225815,118.446347 53.5494584,116.199013 52.11,114.6 C50.6778482,113.061472 49.0507313,111.716747 47.27,110.6 C43.248253,107.658947 39.7466309,104.066067 36.91,99.97 C36.3967899,99.3381377 36.06804,98.5768221 35.96,97.77 C35.91,96.37 37.07,95.29 37.96,94.24 C39.2176753,92.9448441 40.0152031,91.272495 40.23,89.48 C40.4067597,87.6572367 39.5041189,85.8988456 37.92,84.98 C36.47,84.26 34.75,84.55 33.13,84.58 C31.51,84.61 29.62,84.18 28.94,82.71 C28.6909438,81.7830927 28.5236366,80.8361334 28.44,79.88 C27.64,76.79 23.32,76.29 20.32,77.41 C19.4826657,77.8354517 18.5477764,78.0320889 17.61,77.98 C16.5596306,77.6486286 15.6668278,76.9443459 15.1,76 C13.6118059,74.2922058 12.3234629,72.4200824 11.26,70.42 L13,46.05 C13.1489839,45.165104 13.6694463,44.3862302 14.43,43.91 C14.8744353,43.7728716 15.3351496,43.6955254 15.8,43.68 C17.821125,43.2673857 19.4746484,41.8191272 20.15,39.87 C20.7906259,37.9369228 21.0818399,35.9051973 21.01,33.87 L19.58,31.32 L35.14,16.69 L38.77,16.49 C41.27,16.04 43.42,18.1 45.45,19.62 C47.48,21.14 50.82,22.02 52.23,19.91 C53.08,18.64 52.7,16.96 52.72,15.43 C52.74,13.9 53.72,12.04 55.19,12.24 C55.6069565,12.3170231 55.998503,12.4956232 56.33,12.76 C59.0219547,14.8350818 59.7086588,18.6097952 57.92,21.5 C56.7997248,22.8746935 55.4899954,24.0834155 54.03,25.09 C52.67,26.23 51.39,27.69 51.26,29.46 C51.13,31.23 52.74,33.14 54.46,32.7 C56.07,30.47 58.68,28.6 61.39,29.1 C64.1,29.6 65.8,33.54 63.65,35.26 C63.0229465,35.6177444 62.4304107,36.0328542 61.88,36.5 C61.12,37.39 61.31,38.71 61.22,39.88 C60.94,43.47 57.78,46.09 54.74,48.03 C51.7,49.97 48.3,51.91 46.97,55.26 C46.23,57.13 46.25,59.21 45.88,61.19 C45.7794202,61.6916075 45.6457956,62.1860184 45.48,62.67 L23.16,69.94 Z" id="Path" fill="#50935D"></path>
                        <path d="M68.87,154.83 C68.6282101,154.831962 68.3868838,154.8085 68.15,154.76 C66.8979158,154.42392 65.7716009,153.728663 64.91,152.76 C58.4561307,146.371465 53.5033107,138.627988 50.41,130.09 C49.64,127.95 48.99,125.45 49.97,123.09 C50.2768499,122.416531 50.6629084,121.782052 51.12,121.2 C51.4401811,120.778248 51.7181812,120.326079 51.95,119.85 C52.57,118.36 51.78,116.57 50.95,115.49 C49.8854961,114.290836 48.6606105,113.244299 47.31,112.38 L46.4,111.73 C42.2425754,108.688318 38.6255894,104.969921 35.7,100.73 C35.0072562,99.8716785 34.5829041,98.8281896 34.48,97.73 C34.4,95.88 35.61,94.56 36.58,93.51 L36.89,93.15 C37.9147053,92.0920151 38.5795828,90.7377646 38.79,89.28 C38.9219162,88.058546 38.3428912,86.8694072 37.3,86.22 C36.3146594,85.8788637 35.2617906,85.779407 34.23,85.93 L33.23,85.93 C30.52,85.93 28.48,85 27.65,83.19 C27.3691463,82.5097181 27.210059,81.785363 27.18,81.05 C27.1698495,80.7335742 27.1296691,80.4188277 27.06,80.11 C26.8931891,79.4996538 26.4648336,78.9944139 25.89,78.73 C24.2950458,78.0581751 22.5006164,78.0366419 20.89,78.67 C19.8077543,79.2117359 18.5945894,79.437038 17.39,79.32 C15.9849106,78.9399744 14.7658781,78.0621288 13.96,76.85 C12.4088595,75.0509833 11.0669364,73.0817111 9.96,70.98 C9.8405296,70.7454647 9.78859695,70.4823393 9.81,70.22 L11.5,46 C11.8,44.88 12.3,43.24 13.83,42.58 C14.2956094,42.3961654 14.7896276,42.2946548 15.29,42.28 C16.8915918,42.0220031 18.2212979,40.9036665 18.75,39.37 C19.2842893,37.7587469 19.5346767,36.0669401 19.49,34.37 L18.26,32.17 C17.9261652,31.570683 18.0414611,30.8212595 18.54,30.35 L34.1,15.72 C34.3573453,15.4815066 34.6897106,15.3400746 35.04,15.32 L38.67,15.12 C41.31,14.6 43.67,16.44 45.5,17.9 L46.34,18.54 C47.3915246,19.3896037 48.7199803,19.8205505 50.07,19.75 C50.439175,19.7085836 50.7717069,19.5076028 50.98,19.2 C51.2967857,18.4245103 51.39031,17.5758635 51.25,16.75 C51.25,16.35 51.25,15.94 51.25,15.54 C51.2525629,14.0718015 51.8517438,12.667697 52.91,11.65 C53.6011522,11.0517739 54.5122781,10.7722651 55.42,10.88 C56.0781253,10.9877839 56.6996822,11.2556371 57.23,11.66 C60.585249,14.1991541 61.4523206,18.8770053 59.23,22.45 C58.3356889,23.6652099 57.2518659,24.7287746 56.02,25.6 L55.02,26.36 C53.59,27.56 52.85,28.64 52.78,29.69 C52.7712241,30.2507477 53.0132483,30.7861346 53.44,31.15 C53.5306864,31.2269644 53.6316579,31.290913 53.74,31.34 C55.58,29.12 58.5,27.19 61.69,27.75 C63.818206,28.2239896 65.4860953,29.8763275 65.98,32 C66.4840107,33.6521541 65.9479971,35.445435 64.62,36.55 C64.3263214,36.7742316 64.0153497,36.9748585 63.69,37.15 C63.4544312,37.2706699 63.2358672,37.4219834 63.04,37.6 C62.8115247,38.111134 62.7185383,38.672496 62.77,39.23 C62.77,39.53 62.77,39.82 62.77,40.12 C62.42,44.58 58.51,47.56 55.6,49.41 L54.92,49.84 C52.24,51.53 49.47,53.28 48.42,55.93 C48.0398038,57.0663272 47.8013338,58.2452419 47.71,59.44 C47.63,60.16 47.54,60.88 47.41,61.59 C47.3013388,62.1645515 47.1475285,62.7296372 46.95,63.28 C46.7968462,63.7219196 46.4450778,64.0662823 46,64.21 L25.88,70.74 C27.69,72.51 29.37,73.22 30.96,72.91 C31.3,72.84 31.63,72.74 31.96,72.64 C32.6698662,72.3782243 33.4146392,72.2232037 34.17,72.18 C36.6570763,72.2779308 38.8254462,73.9012242 39.62,76.26 C39.922621,77.0572378 40.1176705,77.8912424 40.2,78.74 C41.4505382,77.9130049 42.8798982,77.3954189 44.37,77.23 C46.2160706,77.0084755 48.0654042,77.6163753 49.42,78.89 C50.0352868,79.5223979 50.5663439,80.2315943 51,81 C51.3488452,81.6604482 51.8089127,82.2558298 52.36,82.76 C53.43,83.59 55.04,83.45 56.91,83.29 C59.01,83.1 61.41,82.89 63.4,84.29 C65.39,85.69 66,88 66.57,90 L66.8,90.85 C67.25,92.42 68.25,94.25 69.59,94.25 L69.59,94.25 C70.397876,94.1197414 71.1626545,93.7973684 71.82,93.31 C73.0510991,92.3768182 74.5789707,91.9220099 76.12,92.03 C77.4802507,92.3370684 78.700469,93.0860784 79.59,94.16 C80.67,95.27 84,98.64 83.04,102.45 C82.5877347,103.874654 81.8067019,105.172949 80.76,106.24 C80.1303087,106.892775 79.6042196,107.638068 79.2,108.45 C78.8299315,109.636 78.6841092,110.880577 78.77,112.12 C78.77,114.39 78.77,116.95 76.66,118.65 C76.1083972,119.058269 75.5068522,119.394327 74.87,119.65 C74.3943781,119.821097 73.956335,120.082565 73.58,120.42 C72.88,121.21 73.38,122.85 74.01,124.02 L74.4,124.7 C75.3,126.29 76.32,128.09 76.01,130.2 C75.64,132.78 73.53,134.39 71.67,135.8 C69.81,137.21 68.6,138.22 68.79,139.49 C68.9322232,140.064967 69.1687619,140.612385 69.49,141.11 C70.1341556,142.074264 70.5103401,143.192464 70.58,144.35 C70.5462197,145.053196 70.4080414,145.747458 70.17,146.41 C69.9893195,146.815035 69.9070775,147.257086 69.93,147.7 C70.1343952,148.078707 70.4053968,148.417459 70.73,148.7 C71.7602723,149.50565 72.331611,150.764089 72.26,152.07 C72.1314138,152.881012 71.6760144,153.603868 71,154.07 C70.3851268,154.536489 69.6412921,154.801895 68.87,154.83 Z M38.54,83.56 L38.6,83.56 C40.7348878,84.7432862 41.9643221,87.0803899 41.73,89.51 C41.4981106,91.633203 40.5698141,93.6198981 39.09,95.16 L38.75,95.54 C38.09,96.26 37.4,97.01 37.43,97.63 C37.5368026,98.1459245 37.7705133,98.6270935 38.11,99.03 C40.8430413,102.993385 44.2235798,106.468579 48.11,109.31 L48.98,109.94 C50.5569372,110.964414 51.9867819,112.199127 53.23,113.61 C54.67,115.42 55.82,118.31 54.68,121.01 C54.372064,121.69749 53.9826037,122.345471 53.52,122.94 C53.2010465,123.353533 52.9262182,123.799291 52.7,124.27 C52.12,125.62 52.6,127.36 53.21,129.04 C56.1480939,137.164711 60.8587958,144.533082 67,150.61 C67.4636439,151.157049 68.0590436,151.576927 68.73,151.83 C68.9341043,151.858833 69.1415232,151.808767 69.31,151.69 C69.084877,151.397969 68.8374703,151.123815 68.57,150.87 C67.8804842,150.253211 67.3576906,149.47246 67.05,148.6 C66.8231665,147.598063 66.9104574,146.550573 67.3,145.6 C67.444935,145.224183 67.5390985,144.830714 67.58,144.43 C67.4825349,143.793268 67.2395756,143.187581 66.87,142.66 C66.3581261,141.849712 66.0020258,140.950983 65.82,140.01 C65.37,136.94 67.82,135.01 69.82,133.52 C71.36,132.34 72.82,131.23 73.01,129.87 C73.17,128.76 72.48,127.55 71.75,126.26 L71.35,125.54 C69.85,122.8 69.83,120.17 71.35,118.54 C71.9913541,117.888919 72.7609379,117.378134 73.61,117.04 C74.0199936,116.876129 74.4093262,116.664682 74.77,116.41 C75.69,115.65 75.77,114.31 75.77,112.19 C75.6714289,110.558861 75.8957133,108.924302 76.43,107.38 C76.9390508,106.283451 77.6135899,105.271643 78.43,104.38 C79.1648362,103.659105 79.7316317,102.785011 80.09,101.82 C80.46,100.35 79.58,98.56 77.4,96.34 C76.9348227,95.7632403 76.318584,95.3270265 75.62,95.08 C74.99,94.95 74.2,95.44 73.31,95.97 C72.2043236,96.7652263 70.8987161,97.2362147 69.54,97.33 L69.54,97.33 C67,97.33 64.89,95.25 63.89,91.77 L63.64,90.87 C63.18,89.16 62.74,87.54 61.64,86.77 C60.54,86 58.88,86.14 57.12,86.3 C54.95,86.49 52.48,86.71 50.48,85.16 C49.6339123,84.4391281 48.9286814,83.5677611 48.4,82.59 C48.0855839,82.0134149 47.6991538,81.4791333 47.25,81 C46.5274076,80.3265831 45.5364079,80.02081 44.56,80.17 C42.6744199,80.4151359 40.9755701,81.4329968 39.87,82.98 C39.5558837,83.3891564 39.0535697,83.6082107 38.54,83.56 Z M35.4,82.94 C36.1903673,82.926967 36.9784821,83.0280074 37.74,83.24 C37.3607496,82.9430892 37.148414,82.4811662 37.17,82 C37.3510485,80.4018533 37.2116653,78.7836483 36.76,77.24 C36.3991966,76.0914315 35.4116137,75.2515972 34.22,75.08 L34.17,75.08 C33.6948674,75.1266558 33.2277046,75.234204 32.78,75.4 C32.3466564,75.543194 31.9060407,75.6633619 31.46,75.76 C28.25,76.37 25.15,74.76 21.99,70.89 C21.6815758,70.5048725 21.5807652,69.9933522 21.72,69.52 C21.8700373,69.0433693 22.2433693,68.6700373 22.72,68.52 L44.29,61.52 C44.34,61.32 44.38,61.13 44.42,60.93 C44.54,60.3 44.62,59.64 44.7,58.99 C44.8056813,57.5399647 45.1050065,56.1106029 45.59,54.74 C47,51.19 50.33,49.08 53.27,47.23 L53.95,46.8 C57.71,44.4 59.55,42.18 59.74,39.8 C59.74,39.56 59.74,39.31 59.74,39.07 C59.4323857,37.1768726 60.4097853,35.3075959 62.14,34.48 C62.3361166,34.3753783 62.5234005,34.2549816 62.7,34.12 C63.0966096,33.737635 63.2299711,33.15712 63.04,32.64 C62.7926615,31.67709 62.0549321,30.9165442 61.1,30.64 C58.96,30.25 56.83,32.01 55.65,33.64 C55.4408457,33.9177769 55.1453947,34.1182615 54.81,34.21 C53.6279397,34.4924434 52.3823468,34.1829099 51.47,33.38 C50.2993548,32.3914753 49.6621769,30.9096661 49.75,29.38 C49.88,27.48 50.97,25.72 53.06,23.98 C53.39,23.7 53.73,23.43 54.06,23.16 C55.0431821,22.4758044 55.913642,21.6424571 56.64,20.69 C57.9821051,18.4720694 57.4586081,15.6014179 55.42,14 C55.2817825,13.8858437 55.1219139,13.8008072 54.95,13.75 C54.449864,14.1851099 54.1649186,14.8171042 54.17,15.48 C54.17,15.82 54.17,16.17 54.17,16.48 C54.3887603,17.9428125 54.1180636,19.4369179 53.4,20.73 C52.7386054,21.7245355 51.6900808,22.3957364 50.51,22.58 C48.3578341,22.7894091 46.208025,22.1587984 44.51,20.82 L43.64,20.14 C42.02,18.88 40.51,17.69 38.99,17.96 L35.73,18.15 L21.41,31.61 L22.27,33.14 C22.4026833,33.3744117 22.4684089,33.6407733 22.46,33.91 C22.5180756,36.1157666 22.1793612,38.3140234 21.46,40.4 C20.6005485,42.8597444 18.4840643,44.6667788 15.92,45.13 L15.49,45.18 C15.3078027,45.1809844 15.1264263,45.2044961 14.95,45.25 C14.85,45.25 14.65,45.51 14.36,46.46 L12.72,70.08 C13.7212274,71.8329747 14.8864439,73.4870464 16.2,75.02 C16.73,75.68 17.29,76.33 17.82,76.42 C18.3830688,76.4184799 18.9379305,76.284902 19.44,76.03 C21.9143371,75.0013363 24.7031747,75.037508 27.15,76.13 C28.4813764,76.7820996 29.4606383,77.9842532 29.83,79.42 C29.9404727,79.88984 30.0107266,80.3682357 30.04,80.85 C30.0474275,81.2389029 30.1183624,81.6239779 30.25,81.99 C30.6,82.77 31.94,82.99 33.05,82.99 L33.98,82.99 C34.48,83 34.93,82.94 35.4,82.94 L35.4,82.94 Z" id="Shape" fill="#000000"></path>
                    </g>
                    <rect id="Rectangle" fill="#FFFFFF" fill-rule="nonzero" x="172.33" y="229.26" width="75.74" height="5.68"></rect>
                    <path d="M172.95,234.94 L247.45,234.94" id="Path" fill="#FFFFFF" fill-rule="nonzero"></path>
                    <path d="M247.44,236.44 L173,236.44 C172.171573,236.44 171.5,235.768427 171.5,234.94 C171.5,234.111573 172.171573,233.44 173,233.44 L247.49,233.44 C248.318427,233.44 248.99,234.111573 248.99,234.94 C248.99,235.768427 248.318427,236.44 247.49,236.44 L247.44,236.44 Z" id="Path" fill="#000000" fill-rule="nonzero"></path>
                    <path d="M173,229.26 L185.31,229.26 C182.24,225.83 181.84,220.76 184.42,217.93 C187,215.1 191.6,215.59 194.68,219.02 C193.41,212.84 196.68,206.75 202.05,205.41 C207.42,204.07 212.76,207.99 214.05,214.16 C216.56,211.38 219.97,211.16 222.12,213.01 C223.849169,214.56067 224.612788,216.92025 224.12,219.19 C226.39,215.84 230.54,215.03 233.39,217.39 C236.24,219.75 236.19,225.92 233.92,229.26 L247.55,229.26" id="Path" fill="#FFFFFF" fill-rule="nonzero"></path>
                    <path d="M247.44,230.76 L233.82,230.76 C233.26558,230.758988 232.75693,230.452243 232.497331,229.962355 C232.237732,229.472466 232.269524,228.879333 232.58,228.42 C234.58,225.53 234.42,220.27 232.34,218.55 C231.408765,217.740322 230.17159,217.375374 228.95,217.55 C227.426384,217.808429 226.082708,218.69816 225.25,220 C224.847078,220.581304 224.092832,220.802161 223.44,220.53 C222.784078,220.261206 222.410848,219.565069 222.55,218.87 C222.9579,217.127343 222.387293,215.300637 221.06,214.1 C219.43,212.68 216.92,213.1 215.06,215.1 C214.687243,215.52453 214.103017,215.695903 213.56,215.54 C213.019053,215.388606 212.606857,214.949444 212.49,214.4 C211.99228,211.686347 210.415486,209.290485 208.12,207.76 C206.411643,206.658544 204.329378,206.297666 202.35,206.76 C197.78,207.91 194.96,213.23 196.07,218.63 C196.19962,219.290142 195.873866,219.955843 195.273076,220.258567 C194.672287,220.56129 193.943428,220.426984 193.49,219.93 C192.28273,218.47395 190.519202,217.592186 188.63,217.5 L188.63,217.5 C187.43801,217.478089 186.294168,217.969868 185.49,218.85 C183.41,221.12 183.81,225.31 186.38,228.18 C186.778743,228.617394 186.880794,229.249327 186.64,229.79 C186.394154,230.325517 185.859252,230.669103 185.27,230.67 L173,230.67 C172.171573,230.67 171.5,229.998427 171.5,229.17 C171.5,228.341573 172.171573,227.67 173,227.67 L182.49,227.67 C180.61,223.97 180.83,219.55 183.32,216.82 C184.691865,215.320481 186.637753,214.476657 188.67,214.5 L188.67,214.5 C190.148124,214.524365 191.597488,214.912465 192.89,215.63 C193.14,210.05 196.61,205.12 201.65,203.86 C204.415899,203.167684 207.345037,203.652856 209.74,205.2 C212.029061,206.698433 213.780591,208.887845 214.74,211.45 C217.253014,209.668762 220.651682,209.808489 223.01,211.79 C224.184915,212.813114 225.013061,214.175885 225.38,215.69 C226.326421,215.078188 227.394319,214.679005 228.51,214.52 C230.557128,214.223069 232.633814,214.812251 234.22,216.14 C237.22,218.6 237.59,223.78 236.22,227.67 L247.44,227.67 C248.268427,227.67 248.94,228.341573 248.94,229.17 C248.94,229.998427 248.268427,230.67 247.44,230.67 L247.44,230.76 Z" id="Path" fill="#000000" fill-rule="nonzero"></path>
                    <rect id="Rectangle" fill="#FFFFFF" fill-rule="nonzero" x="288.74" y="285.04" width="74.49" height="5.68"></rect>
                    <path d="M288.74,290.72 L363.23,290.72" id="Path" fill="#FFFFFF" fill-rule="nonzero"></path>
                    <path d="M363.23,292.21 L288.74,292.21 C287.911573,292.21 287.24,291.538427 287.24,290.71 C287.24,289.881573 287.911573,289.21 288.74,289.21 L363.23,289.21 C364.058427,289.21 364.73,289.881573 364.73,290.71 C364.73,291.538427 364.058427,292.21 363.23,292.21 Z" id="Path" fill="#000000" fill-rule="nonzero"></path>
                    <path d="M288.74,285 L301.05,285 C297.97,281.57 297.57,276.5 300.16,273.67 C302.75,270.84 307.34,271.33 310.41,274.76 C309.14,268.58 312.41,262.48 317.79,261.14 C323.17,259.8 328.49,263.72 329.79,269.9 C332.31,267.12 335.71,266.9 337.86,268.75 C339.598486,270.290325 340.364246,272.652695 339.86,274.92 C342.13,271.57 346.29,270.77 349.13,273.13 C351.97,275.49 351.94,281.65 349.66,285 L363.29,285" id="Path" fill="#FFFFFF" fill-rule="nonzero"></path>
                    <path d="M363.23,286.54 L349.6,286.54 C349.04558,286.538988 348.53693,286.232243 348.277331,285.742355 C348.017732,285.252466 348.049524,284.659333 348.36,284.2 C350.36,281.3 350.2,276.04 348.12,274.32 C347.187467,273.512693 345.951393,273.148069 344.73,273.32 C343.19016,273.577591 341.833295,274.479742 341,275.8 C340.598208,276.385121 339.841299,276.608527 339.186179,276.335358 C338.531059,276.06219 338.157082,275.367235 338.29,274.67 C338.702935,272.93018 338.131246,271.103847 336.8,269.91 C335.18,268.49 332.66,268.91 330.8,270.91 C330.419095,271.322406 329.839785,271.487592 329.298658,271.338097 C328.757531,271.188603 328.345177,270.749456 328.23,270.2 C327.724093,267.489658 326.14455,265.098705 323.85,263.57 C322.145107,262.459699 320.059092,262.098171 318.08,262.57 C313.51,263.72 310.7,269.04 311.81,274.44 C311.93962,275.100142 311.613866,275.765843 311.013076,276.068567 C310.412287,276.37129 309.683428,276.236984 309.23,275.74 C308.0199,274.280679 306.253363,273.395596 304.36,273.3 L304.36,273.3 C303.162724,273.276424 302.013892,273.772428 301.21,274.66 C299.13,276.93 299.54,281.12 302.11,283.98 C302.500555,284.421813 302.598186,285.050556 302.36,285.59 C302.122629,286.12957 301.589473,286.478474 301,286.48 L288.74,286.48 C287.911573,286.48 287.24,285.808427 287.24,284.98 C287.24,284.151573 287.911573,283.48 288.74,283.48 L298.22,283.48 C296.34,279.78 296.56,275.35 299.06,272.63 C300.43083,271.127841 302.376463,270.280491 304.41,270.3 L304.41,270.3 C305.889387,270.324531 307.339497,270.716267 308.63,271.44 C308.88,265.85 312.35,260.93 317.39,259.66 C320.157464,258.975505 323.084747,259.463988 325.48,261.01 C327.770488,262.506863 329.522436,264.696798 330.48,267.26 C332.986573,265.473989 336.383897,265.609718 338.74,267.59 C339.910115,268.618866 340.740088,269.978907 341.12,271.49 C342.06635,270.885332 343.129406,270.486686 344.24,270.32 C346.31242,270.023306 348.412037,270.635695 350,272 C353,274.46 353.36,279.63 352,283.53 L363.23,283.53 C364.058427,283.53 364.73,284.201573 364.73,285.03 C364.73,285.858427 364.058427,286.53 363.23,286.53 L363.23,286.54 Z" id="Path" fill="#000000" fill-rule="nonzero"></path>
                    <path d="M315.95,217.51 L297.62,231.2" id="Path" fill="#E8E8E8" fill-rule="nonzero"></path>
                    <path d="M297.62,232.2 C297.305243,232.2 297.008854,232.051806 296.82,231.8 C296.495396,231.359919 296.58449,230.740712 297.02,230.41 L315.35,216.71 C315.635812,216.495641 316.014273,216.450044 316.34282,216.590385 C316.671367,216.730726 316.900086,217.035684 316.94282,217.390385 C316.985555,217.745085 316.835812,218.095641 316.55,218.31 L298.22,232 C298.046904,232.129822 297.83637,232.2 297.62,232.2 L297.62,232.2 Z" id="Path" fill="#000000" fill-rule="nonzero"></path>
                    <path d="M319.1,221.72 L306.2,231.37" id="Path" fill="#E8E8E8" fill-rule="nonzero"></path>
                    <path d="M306.2,232.36 C305.885243,232.36 305.588854,232.211806 305.4,231.96 C305.075396,231.519919 305.16449,230.900712 305.6,230.57 L318.5,220.92 C318.713405,220.761928 318.980922,220.695235 319.243555,220.73463 C319.506189,220.774025 319.742366,220.916272 319.9,221.13 C320.224604,221.570081 320.13551,222.189288 319.7,222.52 L306.79,232.17 C306.618421,232.294224 306.411826,232.360754 306.2,232.36 Z" id="Path" fill="#000000" fill-rule="nonzero"></path>
                    <path d="M312.91,213.44 L300.01,223.08" id="Path" fill="#E8E8E8" fill-rule="nonzero"></path>
                    <path d="M300,224.08 C299.685243,224.08 299.388854,223.931806 299.2,223.68 C299.04087,223.467827 298.972543,223.20113 299.010051,222.938579 C299.047558,222.676028 299.187827,222.43913 299.4,222.28 L312.3,212.64 C312.513405,212.481928 312.780922,212.415235 313.043555,212.45463 C313.306189,212.494025 313.542366,212.636272 313.7,212.85 C314.022421,213.292671 313.928803,213.912334 313.49,214.24 L300.59,223.88 C300.419646,224.007788 300.212945,224.077856 300,224.08 L300,224.08 Z" id="Path" fill="#000000" fill-rule="nonzero"></path>
                    <path d="M326.87,160.85 C324.460244,162.65955 323.19892,165.617233 323.561159,168.608919 C323.923397,171.600604 325.854164,174.171784 328.626159,175.353919 C331.398153,176.536054 334.590244,176.14955 337,174.34" id="Path" fill="#94BDC2" fill-rule="nonzero"></path>
                    <path d="M331.93,177.51 C327.649067,177.533101 323.836238,174.807346 322.472929,170.749229 C321.10962,166.691112 322.503415,162.216211 325.93,159.65 C326.595602,159.164263 327.527028,159.297324 328.03,159.95 C328.267635,160.269491 328.36849,160.670356 328.310341,161.064265 C328.252193,161.458173 328.039813,161.812799 327.72,162.05 C324.657581,164.33922 324.03078,168.677581 326.32,171.74 C328.60922,174.802419 332.947581,175.42922 336.01,173.14 C336.67679,172.65086 337.612984,172.78906 338.11,173.45 C338.347099,173.767884 338.447693,174.167172 338.389508,174.559449 C338.331324,174.951725 338.119161,175.304623 337.8,175.54 C336.106631,176.811847 334.047792,177.502803 331.93,177.51 L331.93,177.51 Z" id="Path" fill="#000000" fill-rule="nonzero"></path>
                    <path d="M345.06,185.19 L322.06,154.46 C319.941655,151.611659 320.527572,147.586273 323.37,145.46 L323.37,145.46 C324.737095,144.439975 326.453461,144.004935 328.141371,144.25062 C329.829281,144.496304 331.35041,145.40258 332.37,146.77 L364.23,170.86" id="Path" fill="#CCCCCB" fill-rule="nonzero"></path>
                    <path d="M345.06,186.69 C344.588234,186.688439 344.144308,186.466476 343.86,186.09 L320.86,155.36 C318.27878,151.840323 318.995165,146.901276 322.47,144.26 C325.9155,141.666234 330.802194,142.301504 333.47,145.69 L365.16,169.69 C365.785493,170.200368 365.89487,171.11424 365.407486,171.757803 C364.920101,172.401366 364.010789,172.543762 363.35,172.08 L331.5,148 C331.388687,147.915276 331.290903,147.81412 331.21,147.7 C329.577999,145.512952 326.482048,145.062999 324.295,146.695 C322.107952,148.327001 321.657999,151.422952 323.29,153.61 L346.29,184.35 C346.527099,184.667884 346.627693,185.067172 346.569508,185.459449 C346.511324,185.851725 346.299161,186.204623 345.98,186.44 C345.709622,186.623224 345.385924,186.711186 345.06,186.69 L345.06,186.69 Z" id="Path" fill="#000000" fill-rule="nonzero"></path>
                    <path d="M374.39,184.41 L388.46,221.78 C389.481086,223.145864 389.917762,224.861411 389.673964,226.549239 C389.430167,228.237067 388.525867,229.758918 387.16,230.78 L387.16,230.78 C384.311659,232.898345 380.286273,232.312428 378.16,229.47 L355.16,198.74" id="Path" fill="#CCCCCB" fill-rule="nonzero"></path>
                    <path d="M383.33,233.56 C382.941851,233.563232 382.554031,233.536486 382.17,233.48 C380.089796,233.181735 378.214528,232.065933 376.96,230.38 L353.96,199.65 C353.598459,199.224256 353.503411,198.632894 353.713333,198.115301 C353.923255,197.597708 354.403376,197.239618 354.959337,197.185989 C355.515299,197.132361 356.055014,197.392076 356.36,197.86 L379.36,228.59 C380.142376,229.641256 381.312523,230.336143 382.61,230.52 C383.908751,230.71883 385.232671,230.383341 386.28,229.59 C388.438803,227.938558 388.882952,224.865049 387.28,222.67 C387.195825,222.556966 387.128459,222.43234 387.08,222.3 L373,184.93 C372.784844,184.17825 373.183265,183.387323 373.915413,183.112768 C374.647561,182.838213 375.467802,183.17214 375.8,183.88 L389.8,221.06 C392.279741,224.575818 391.508162,229.427011 388.06,232 C386.694469,233.019651 385.034203,233.567223 383.33,233.56 L383.33,233.56 Z" id="Path" fill="#000000" fill-rule="nonzero"></path>
                    <path d="M363.3,209.6 C359.574839,212.383515 358.811485,217.659839 361.595,221.385 C364.378515,225.110161 369.654839,225.873515 373.38,223.09" id="Path" fill="#94BDC2" fill-rule="nonzero"></path>
                    <path d="M368.36,226.27 C367.877976,226.268087 367.396722,226.231325 366.92,226.16 C362.950939,225.584629 359.718798,222.675955 358.729628,218.789306 C357.740459,214.902658 359.188886,210.802757 362.4,208.4 C362.825744,208.038459 363.417106,207.943411 363.934699,208.153333 C364.452292,208.363255 364.810382,208.843376 364.864011,209.399337 C364.917639,209.955299 364.657924,210.495014 364.19,210.8 C362.7187,211.898829 361.744487,213.537402 361.481901,215.354872 C361.219315,217.172342 361.689892,219.019657 362.79,220.49 C363.884359,221.969086 365.52773,222.945739 367.35,223.2 C369.168843,223.454523 371.014857,222.98404 372.49,221.89 C373.154995,221.407563 374.08367,221.545309 374.58,222.2 C374.818154,222.51665 374.920383,222.915116 374.864088,223.307309 C374.807792,223.699503 374.597608,224.053124 374.28,224.29 C372.57352,225.574372 370.49581,226.269282 368.36,226.27 Z" id="Path" fill="#000000" fill-rule="nonzero"></path>
                    <path d="M328.6,208.14 L313.94,206.51 C310.886608,206.066923 308.769581,203.233776 309.21,200.18 L309.21,200.18 C309.420141,198.713092 310.206161,197.390391 311.39414,196.504567 C312.58212,195.618744 314.074116,195.242829 315.54,195.46 L328.76,197.37 L376.38,161.79 C380.121875,158.993251 385.422376,159.75878 388.22,163.5 L388.22,163.5 C389.566218,165.297604 390.142439,167.556718 389.821682,169.779508 C389.500925,172.002299 388.309515,174.006338 386.51,175.35 L338.89,210.93 L337,224.15 C336.78973,225.617545 336.004095,226.941086 334.816495,227.828502 C333.628896,228.715919 332.136969,229.094252 330.67,228.88 L330.67,228.88 C329.203092,228.669859 327.880391,227.883839 326.994567,226.69586 C326.108744,225.50788 325.732829,224.015884 325.95,222.55 L328.52,208 L328.6,208.14 Z" id="Path" fill="#FFFFFF" fill-rule="nonzero"></path>
                    <path d="M331.45,230.44 C331.115182,230.437284 330.780991,230.410549 330.45,230.36 C326.589752,229.798028 323.908624,226.223191 324.45,222.36 L326.74,209.46 L313.74,208.02 C309.882769,207.452951 307.204342,203.881716 307.74,200.02 C308.004948,198.163359 308.996733,196.488062 310.497094,195.362792 C311.997454,194.237521 313.883439,193.754491 315.74,194.02 L328.35,195.84 L375.47,160.63 C379.891209,157.758968 385.781891,158.813144 388.933014,163.039293 C392.084137,167.265443 391.413373,173.211996 387.4,176.63 L340.28,211.84 L338.45,224.45 C337.90862,227.897192 334.939444,230.437958 331.45,230.44 Z M329.91,208.73 L327.4,222.82 C327.15536,225.022633 328.709512,227.019395 330.904803,227.322941 C333.100094,227.626488 335.137765,226.126373 335.5,223.94 L337.42,210.72 C337.467511,210.321064 337.677314,209.959335 338,209.72 L385.62,174.14 C387.920051,172.768757 389.236281,170.205506 389.010511,167.537254 C388.784742,164.869002 387.056538,162.563351 384.558786,161.598066 C382.061034,160.632781 379.231455,161.177026 377.27,163 L329.66,198.58 C329.342536,198.818444 328.942579,198.919334 328.55,198.86 L315.32,196.95 C314.257601,196.801271 313.179444,197.077998 312.32,197.72 C310.997931,198.710592 310.401603,200.399265 310.808447,202.000394 C311.215292,203.601524 312.545415,204.800689 314.18,205.04 L328.18,206.59 L328.24,206.59 C328.819265,206.449526 329.426269,206.670255 329.78,207.15 C330.095676,207.618038 330.14493,208.216659 329.91,208.73 L329.91,208.73 Z" id="Shape" fill="#000000" fill-rule="nonzero"></path>
                    <path d="M363.49,112.69 C364.38,111.16 366.65,110.89 368.18,110.39 C369.71,109.89 368.39,109.33 367.66,108.51 C366.962169,107.734537 366.540279,106.750128 366.46,105.71 C366.374637,103.935127 367.24908,102.251157 368.75,101.3 C370.75,100.09 372.8,100.56 374.95,100.49 C374.95,100.49 375.75,97.09 375.86,96.8 C376.257399,95.5610637 376.995555,94.4590278 377.99,93.62 C379.573675,92.5163264 381.557355,92.1516793 383.43,92.62 C384.691778,92.9233119 385.896975,93.4263215 387,94.11 C388,94.7 388.36,95.22 389.38,94.36 C390.003398,93.8332314 390.692478,93.3895313 391.43,93.04 C392.885697,92.3571448 394.517745,92.1439651 396.1,92.43 C397.409499,92.6814892 398.63816,93.2477713 399.68,94.08 C400.254484,94.6106363 400.73762,95.2322942 401.11,95.92 C402.23,97.61 403.01,95.81 404.24,95.13 C406.850444,93.7004927 409.939963,93.4285281 412.76,94.38 C414.492097,94.937991 416.028956,95.9787537 417.19,97.38 C417.83,98.26 417.9,99.86 419.31,99.82 C419.9,99.82 420.69,99.16 421.44,99.14 C424.345301,98.9752568 427.164211,100.159642 429.08,102.35 C430.08,103.58 430.96,105.89 430.25,107.43 C429.79,108.43 428.39,108.77 428.94,110.13 C430.865511,110.098556 432.592759,111.309245 433.22,113.13 C433.687631,114.983339 433.322363,116.948481 432.22,118.51 C431.33,119.88 428.45,121.11 428.33,122.89 C428.26,123.99 429.24,124.53 429.11,125.89 C428.949297,127.38144 428.23575,128.758584 427.11,129.75 C425.898158,130.733846 424.430679,131.351367 422.88,131.53 C422.098843,131.644607 421.307617,131.674781 420.52,131.62 C419.06,131.54 419.43,132.22 419.38,133.28 C419.31,134.58 418.02,135.93 417,136.58 C414.274402,137.989188 411.11736,138.317749 408.16,137.5 C407.652834,137.330503 407.171593,137.091566 406.73,136.79 C405.5,135.94 405.19,137.14 404.07,137.51 C402.541735,137.955001 400.918265,137.955001 399.39,137.51 C397.508333,137.034648 395.760389,136.135021 394.28,134.88 C392.89,133.61 392.18,135.1 390.79,135.7 C389.532795,136.248402 388.150347,136.445401 386.79,136.27 C385.15,136.05 383.04,135.2 382.4,133.59 C381.68,131.79 380.32,133.14 379.03,133.59 C377.627209,134.083829 376.108723,134.146518 374.67,133.77 C373.043994,133.306567 371.729668,132.107013 371.12,130.53 C370.93,130 371.33,129.21 371,128.84 C370.67,128.47 369.83,128.7 369.42,128.62 C368.5954,128.45938 367.816696,128.117843 367.14,127.62 C365.75668,126.547783 364.660672,125.149428 363.95,123.55 C363.414621,122.647231 363.199683,121.59016 363.34,120.55 C363.58,119.62 364.74,119.04 364.9,118.16 C365.17,116.21 362.1,115.09 363.49,112.69 Z" id="Path" fill="#F5CEB4" fill-rule="nonzero"></path>
                    <path d="M367,150.76 C366.645033,150.966475 366.362228,151.277212 366.19,151.65 C366.012663,152.076457 365.94726,152.541162 366,153 C366.008151,153.59801 366.1198,154.190091 366.33,154.75 C366.538509,155.314728 366.990297,155.755497 367.56,155.95 C368.189082,156.07835 368.843393,155.952521 369.38,155.6 C370.72,154.85 372.73,152.73 371.63,151.22 C370.69,149.84 368.17,150 367,150.76 Z" id="Path" stroke="#221F20" stroke-width="2.5"></path>
                    <path d="M378.91,145 C379.318765,144.944469 379.703534,144.774616 380.02,144.51 C380.322939,144.188327 380.548645,143.80189 380.68,143.38 C380.914804,142.834591 381.053515,142.252683 381.09,141.66 C381.134785,141.055599 380.903091,140.463492 380.46,140.05 C379.939204,139.677355 379.291937,139.526326 378.66,139.63 C377.12,139.76 374.42,140.88 374.81,142.71 C375.14,144.3 377.49,145.22 378.91,145 Z" id="Path" stroke="#221F20" stroke-width="2.5"></path>
                    <path d="M358.65,108.71 C359.53,107.18 361.8,106.92 363.33,106.42 C364.86,105.92 363.54,105.36 362.81,104.54 C362.110148,103.761881 361.688118,102.773628 361.61,101.73 C361.537144,99.9578871 362.408532,98.2797996 363.9,97.32 C365.9,96.11 367.96,96.58 370.1,96.51 C370.1,96.51 370.9,93.12 371.01,92.82 C371.412449,91.5863305 372.149899,90.4888119 373.14,89.65 C374.718486,88.5352112 376.700017,88.1527468 378.58,88.6 C379.843692,88.9024161 381.049546,89.4090777 382.15,90.1 C383.15,90.68 383.51,91.21 384.53,90.35 C385.153094,89.8200835 385.84215,89.3730371 386.58,89.02 C388.038062,88.3449901 389.668659,88.1354916 391.25,88.42 C392.560245,88.6691654 393.789443,89.2356952 394.83,90.07 C395.404284,90.5970031 395.887468,91.215344 396.26,91.9 C397.38,93.6 398.16,91.79 399.39,91.11 C402.001881,89.6838096 405.091344,89.415476 407.91,90.37 C409.645834,90.9203001 411.184711,91.9624291 412.34,93.37 C412.98,94.24 413.05,95.84 414.46,95.8 C415.05,95.8 415.84,95.14 416.59,95.12 C419.495301,94.9552568 422.314211,96.1396417 424.23,98.33 C425.23,99.56 426.11,101.87 425.41,103.41 C424.94,104.41 423.54,104.76 424.09,106.12 C426.01648,106.08539 427.745406,107.297253 428.37,109.12 C428.837631,110.973339 428.472363,112.938481 427.37,114.5 C426.48,115.88 423.6,117.1 423.48,118.88 C423.41,119.98 424.39,120.52 424.26,121.88 C424.09689,123.367874 423.383549,124.741055 422.26,125.73 C421.051525,126.714749 419.587942,127.335558 418.04,127.52 C417.257957,127.624654 416.467742,127.65479 415.68,127.61 C414.21,127.53 414.59,128.2 414.53,129.27 C414.46,130.56 413.17,131.91 412.16,132.57 C410.421794,133.567318 408.430611,134.036445 406.43,133.92 C405.37296,133.944535 404.31903,133.795904 403.31,133.48 C402.801119,133.314679 402.319303,133.075456 401.88,132.77 C400.65,131.92 400.34,133.12 399.22,133.49 C397.696493,133.951355 396.073016,133.9687 394.54,133.54 C392.658574,133.058717 390.9112,132.155964 389.43,130.9 C388.04,129.63 387.34,131.12 385.94,131.73 C384.682933,132.278889 383.30035,132.475907 381.94,132.3 C380.3,132.07 378.19,131.23 377.55,129.62 C376.83,127.82 375.48,129.17 374.18,129.62 C372.781509,130.116312 371.266439,130.182487 369.83,129.81 C368.200381,129.343008 366.883118,128.140451 366.27,126.56 C366.09,126.04 366.48,125.24 366.15,124.87 C365.82,124.5 364.98,124.74 364.57,124.66 C363.749296,124.49672 362.974412,124.155362 362.3,123.66 C360.910825,122.587085 359.811004,121.184813 359.1,119.58 C358.572569,118.692651 358.361089,117.652876 358.5,116.63 C358.73,115.7 359.9,115.13 360.05,114.24 C360.32,112.24 357.26,111.11 358.65,108.71 Z" id="Path" stroke="#221F20" stroke-width="2.5"></path>
                    <path d="M390.63,115.06 C390.59109,113.948345 390.760679,112.839234 391.13,111.79 C391.560799,110.859856 392.200794,110.041893 393,109.4 C393.674698,108.843608 394.270206,108.197633 394.77,107.48 C395.05504,107.005695 395.207033,106.463357 395.21,105.91 C395.21,104.26 394.44,103.43 392.92,103.43 C392.275249,103.403011 391.648389,103.645783 391.19,104.1 C390.72907,104.600019 390.481504,105.260196 390.5,105.94 L386.26,105.94 C386.192255,104.28529 386.853904,102.684173 388.07,101.56 C389.430407,100.442084 391.162154,99.8779277 392.92,99.98 C394.656395,99.870787 396.372212,100.404755 397.74,101.48 C398.915587,102.566358 399.54299,104.122022 399.45,105.72 C399.454702,106.538961 399.266273,107.347495 398.9,108.08 C398.373367,109.001621 397.697531,109.82952 396.9,110.53 L395.71,111.66 C395.001086,112.318593 394.550701,113.208725 394.44,114.17 L394.38,115.06 L390.63,115.06 Z M390.21,119.55 C390.190767,118.943847 390.430831,118.358236 390.87,117.94 C391.335572,117.51428 391.949513,117.288091 392.58,117.31 C393.207767,117.286393 393.819225,117.512992 394.28,117.94 C394.725029,118.354957 394.969256,118.941832 394.95,119.55 C394.967709,120.150961 394.731803,120.731653 394.3,121.15 C393.301726,121.975001 391.858274,121.975001 390.86,121.15 C390.423911,120.734558 390.187193,120.151869 390.21,119.55 L390.21,119.55 Z" id="Shape" stroke="#221F20" stroke-width="0.25" fill="#221F20" fill-rule="nonzero" stroke-linecap="round" stroke-linejoin="round"></path>
                </g>
                <rect id="Rectangle" x="0" y="0" width="640" height="415"></rect>
            </g>
        </g>
    </g>
</svg>