<?xml version="1.0" encoding="UTF-8"?>
<svg width="535px" height="264px" viewBox="0 0 535 264" version="1.1" xmlns="http://www.w3.org/2000/svg" xmlns:xlink="http://www.w3.org/1999/xlink">
    <!-- Generator: Sketch 53 (72520) - https://sketchapp.com -->
    <title>errors</title>
    <desc>Created with Sketch.</desc>
    <g id="Spacing-Specs---Current-vs-Final" stroke="none" stroke-width="1" fill="none" fill-rule="evenodd">
        <g id="Clem--Errors" transform="translate(-377.000000, -104.000000)">
            <g id="errors" transform="translate(320.000000, 104.000000)">
                <path d="M0,246.46 L640,246.46" id="Path"></path>
                <path d="M565.71,262.49 C565.71,131.57 459.58,25.49 328.71,25.49 C197.84,25.49 91.71,131.61 91.71,262.49" id="Path" fill="#DCEAF3" fill-rule="nonzero"></path>
                <rect id="Rectangle" fill="#FFFFFF" fill-rule="nonzero" x="85.28" y="188.23" width="55.75" height="4.25"></rect>
                <path d="M85.28,192.48 L141.04,192.48" id="Path" fill="#FFFFFF" fill-rule="nonzero"></path>
                <path d="M141,193.71 L85.28,193.71 C84.6006898,193.71 84.05,193.15931 84.05,192.48 C84.05,191.80069 84.6006898,191.25 85.28,191.25 L141,191.25 C141.67931,191.25 142.23,191.80069 142.23,192.48 C142.23,193.15931 141.67931,193.71 141,193.71 Z" id="Path" fill="#000000" fill-rule="nonzero"></path>
                <path d="M85.28,188.23 L94.49,188.23 C92.19,185.66 91.89,181.87 93.83,179.75 C95.77,177.63 99.2,178 101.5,180.56 C100.5,175.94 103.02,171.38 107.02,170.38 C111.02,169.38 115.02,172.31 116.02,176.93 C117.9,174.85 120.45,174.65 122.02,176.07 C123.314367,177.227839 123.880655,178.995574 123.5,180.69 C125.2,178.18 128.31,177.58 130.44,179.35 C132.57,181.12 132.54,185.73 130.84,188.23 L141,188.23" id="Path" fill="#FFFFFF" fill-rule="nonzero"></path>
                <path d="M141,189.46 L130.8,189.46 C130.347988,189.453332 129.936061,189.199252 129.727239,188.798313 C129.518416,188.397374 129.546356,187.914197 129.8,187.54 C131.24,185.42 131.16,181.54 129.64,180.29 C128.959563,179.719771 128.068983,179.46532 127.19,179.59 C126.081517,179.781851 125.105062,180.431611 124.5,181.38 C124.168157,181.85819 123.548378,182.041212 123.01,181.82 C122.468887,181.597459 122.15943,181.024545 122.27,180.45 C122.572537,179.185854 122.157932,177.857583 121.19,176.99 C120.03,175.99 118.19,176.28 116.88,177.76 C116.571038,178.109694 116.086206,178.246542 115.64,178.11 C115.196931,177.987127 114.858226,177.629176 114.76,177.18 C114.392514,175.176173 113.226714,173.407622 111.53,172.28 C110.276742,171.474005 108.747733,171.217363 107.3,171.57 C103.94,172.41 101.87,176.33 102.69,180.32 C102.799107,180.861987 102.533195,181.410175 102.04,181.66 C101.544112,181.917177 100.936623,181.801465 100.57,181.38 C99.6784699,180.317095 98.3854079,179.672375 97,179.6 L97,179.6 C96.1345048,179.590259 95.3069785,179.954808 94.73,180.6 C93.24,182.23 93.54,185.36 95.4,187.43 C95.723759,187.79197 95.8042293,188.310551 95.6053909,188.753614 C95.4065525,189.196678 94.9656343,189.48127 94.48,189.48 L85.28,189.48 C84.6006898,189.48 84.05,188.92931 84.05,188.25 C84.05,187.57069 84.6006898,187.02 85.28,187.02 L92.21,187.02 C90.86,184.25 91.06,180.97 92.92,178.94 C93.9618218,177.786648 95.4457966,177.131953 97,177.14 L97,177.14 C98.0466639,177.16593 99.0732551,177.432843 100,177.92 C100.26,173.77 102.87,170.13 106.63,169.19 C108.726942,168.661109 110.949253,169.023049 112.77,170.19 C114.478051,171.294368 115.796624,172.906734 116.54,174.8 C118.45218,173.513596 120.984923,173.648187 122.75,175.13 C123.599672,175.883661 124.214185,176.866188 124.52,177.96 C125.207091,177.539754 125.972708,177.264132 126.77,177.15 C128.337033,176.918366 129.928163,177.369854 131.14,178.39 C133.36,180.23 133.68,184.06 132.7,186.99 L141,186.99 C141.67931,186.99 142.23,187.54069 142.23,188.22 C142.23,188.89931 141.67931,189.45 141,189.45 L141,189.46 Z" id="Path" fill="#000000" fill-rule="nonzero"></path>
                <rect id="Rectangle" fill="#FFFFFF" fill-rule="nonzero" x="496.67" y="161.09" width="68.25" height="5.2"></rect>
                <path d="M496.67,166.29 L564.92,166.29" id="Path" fill="#FFFFFF" fill-rule="nonzero"></path>
                <path d="M564.92,167.52 L496.67,167.52 C495.99069,167.52 495.44,166.96931 495.44,166.29 C495.44,165.61069 495.99069,165.06 496.67,165.06 L564.92,165.06 C565.59931,165.06 566.15,165.61069 566.15,166.29 C566.15,166.96931 565.59931,167.52 564.92,167.52 L564.92,167.52 Z" id="Path" fill="#000000" fill-rule="nonzero"></path>
                <path d="M496.67,161.09 L507.94,161.09 C505.12,157.94 504.76,153.29 507.13,150.7 C509.5,148.11 513.71,148.56 516.52,151.7 C515.36,146.04 518.38,140.45 523.28,139.23 C528.18,138.01 533.09,141.59 534.28,147.23 C536.59,144.68 539.71,144.44 541.68,146.17 C543.256942,147.593917 543.944776,149.756773 543.48,151.83 C545.57,148.76 549.37,148.03 551.98,150.19 C554.59,152.35 554.55,158 552.46,161.07 L564.95,161.07" id="Path" fill="#FFFFFF" fill-rule="nonzero"></path>
                <path d="M564.92,162.31 L552.44,162.31 C551.987988,162.303332 551.576061,162.049252 551.367239,161.648313 C551.158416,161.247374 551.186356,160.764197 551.44,160.39 C553.27,157.69 553.13,152.77 551.18,151.16 C550.292098,150.405968 549.122515,150.070761 547.97,150.24 C546.538464,150.483906 545.275505,151.31862 544.49,152.54 C544.159429,153.018245 543.539156,153.199729 543.002933,152.975095 C542.46671,152.750461 542.160995,152.181064 542.27,151.61 C542.650188,149.968335 542.110449,148.249594 540.86,147.12 C539.31,145.75 536.92,146.12 535.19,148.12 C534.875765,148.45822 534.399651,148.593865 533.954349,148.472037 C533.509046,148.350209 533.168294,147.991081 533.07,147.54 C532.606194,145.016496 531.137253,142.789625 529,141.37 C527.401263,140.338184 525.448598,140.009124 523.6,140.46 C519.34,141.53 516.71,146.46 517.75,151.46 C517.86044,152.004828 517.594783,152.556576 517.1,152.81 C516.603569,153.06342 515.998509,152.94817 515.63,152.53 C514.492898,151.163903 512.835294,150.336914 511.06,150.25 L511.06,150.25 C509.920485,150.225836 508.826341,150.696318 508.06,151.54 C506.06,153.68 506.47,157.6 508.88,160.27 C509.199116,160.632489 509.280871,161.146377 509.09,161.59 C508.891567,162.03601 508.448154,162.322463 507.96,162.32 L496.67,162.32 C496.205925,162.361972 495.757976,162.138099 495.512965,161.741744 C495.267955,161.345388 495.267955,160.844612 495.512965,160.448256 C495.757976,160.051901 496.205925,159.828028 496.67,159.87 L505.59,159.87 C503.77,156.49 503.93,152.39 506.22,149.87 C507.452618,148.526125 509.196494,147.766812 511.02,147.78 L511.02,147.78 C512.429969,147.804435 513.808992,148.197456 515.02,148.92 C515.16,143.77 518.33,139.19 522.95,138.04 C525.445852,137.413798 528.089664,137.852019 530.25,139.25 C532.387735,140.63206 534.013965,142.676262 534.88,145.07 C537.140303,143.383331 540.262164,143.466029 542.43,145.27 C543.530061,146.235686 544.290772,147.529244 544.6,148.96 C545.497314,148.349257 546.524364,147.955555 547.6,147.81 C549.438665,147.537617 551.305975,148.065415 552.73,149.26 C555.46,151.52 555.73,156.32 554.43,159.86 L564.92,159.86 C565.384075,159.818028 565.832024,160.041901 566.077035,160.438256 C566.322045,160.834612 566.322045,161.335388 566.077035,161.731744 C565.832024,162.128099 565.384075,162.351972 564.92,162.31 L564.92,162.31 Z" id="Path" fill="#000000" fill-rule="nonzero"></path>
                <circle id="Oval" fill="#FDD848" fill-rule="nonzero" cx="213.7" cy="59.05" r="26.51"></circle>
                <path d="M213.7,86.38 C202.643325,86.3921369 192.668612,79.7410967 188.428993,69.5295422 C184.189374,59.3179878 186.520202,47.5579503 194.334162,39.7354035 C202.148122,31.9128566 213.905593,29.569114 224.121797,33.7975149 C234.338002,38.0259158 240.999993,47.9933182 241,59.05 C240.983506,74.1253985 228.775371,86.3469489 213.7,86.38 L213.7,86.38 Z M213.7,33.38 C199.511805,33.38 188.01,44.8818048 188.01,59.07 C188.01,73.2581952 199.511805,84.76 213.7,84.76 C227.888195,84.76 239.39,73.2581952 239.39,59.07 C239.384493,44.8808482 227.889143,33.3765493 213.7,33.36 L213.7,33.38 Z" id="Shape" fill="#000000" fill-rule="nonzero"></path>
                <path d="M213.7,26.22 C213.247127,26.22 212.88,25.8528735 212.88,25.4 L212.88,0.82 C212.88,0.367126581 213.247127,1.95503235e-07 213.7,1.95503235e-07 C214.152873,1.95503235e-07 214.52,0.367126581 214.52,0.82 L214.52,25.4 C214.52,25.6174775 214.433607,25.8260477 214.279828,25.9798276 C214.126048,26.1336074 213.917478,26.22 213.7,26.22 L213.7,26.22 Z" id="Path" fill="#000000" fill-rule="nonzero"></path>
                <path d="M240.53,33 C240.198234,33.0001396 239.899073,32.8003514 239.772093,32.4938471 C239.645113,32.1873429 239.715336,31.8345243 239.95,31.6 L250.61,21 C250.930325,20.6796748 251.449675,20.6796748 251.77,21 C252.090325,21.3203252 252.090325,21.8396748 251.77,22.16 L241.11,32.8 C240.949829,32.9392047 240.741929,33.0108943 240.53,33 L240.53,33 Z" id="Path" fill="#000000" fill-rule="nonzero"></path>
                <path d="M251.19,97.36 C250.972487,97.3600915 250.76385,97.2737589 250.61,97.12 L240,86.46 C239.679675,86.1396748 239.679675,85.6203252 240,85.3000001 C240.320325,84.979675 240.839675,84.9796749 241.16,85.3 L251.77,96 C252.004664,96.2345243 252.074887,96.5873429 251.947907,96.8938471 C251.820927,97.2003514 251.521766,97.4001396 251.19,97.4 L251.19,97.36 Z" id="Path" fill="#000000" fill-rule="nonzero"></path>
                <path d="M176.21,97.36 C175.878234,97.3601396 175.579073,97.1603514 175.452093,96.8538471 C175.325113,96.5473429 175.395336,96.1945243 175.63,95.96 L186.29,85.3 C186.497214,85.0927859 186.799235,85.0118596 187.082295,85.0877052 C187.365354,85.1635508 187.586449,85.3846456 187.662295,85.6677052 C187.73814,85.9507649 187.657214,86.252786 187.45,86.46 L176.79,97.12 C176.634944,97.2719429 176.427083,97.3579543 176.21,97.36 L176.21,97.36 Z" id="Path" fill="#000000" fill-rule="nonzero"></path>
                <path d="M186.87,33 C186.652487,33.0000915 186.44385,32.9137589 186.29,32.76 L175.63,22.14 C175.379598,21.9435448 175.265491,21.6199393 175.33729,21.3098732 C175.409088,20.9998071 175.653821,20.7592939 175.965089,20.6928983 C176.276357,20.6265027 176.597929,20.7462191 176.79,21 L187.45,31.66 C187.684664,31.8945243 187.754887,32.2473429 187.627907,32.5538471 C187.500927,32.8603514 187.201766,33.0601396 186.87,33.06 L186.87,33 Z" id="Path" fill="#000000" fill-rule="nonzero"></path>
                <path d="M271.93,59.87 L247.34,59.87 C246.887127,59.87 246.52,59.5028735 246.52,59.05 C246.52,58.5971265 246.887127,58.23 247.34,58.23 L271.93,58.23 C272.382873,58.23 272.75,58.5971265 272.75,59.05 C272.75,59.5028735 272.382873,59.87 271.93,59.87 L271.93,59.87 Z" id="Path" fill="#000000" fill-rule="nonzero"></path>
                <path d="M213.7,118.1 C213.247127,118.1 212.88,117.732873 212.88,117.28 L212.88,92.69 C212.88,92.2371266 213.247127,91.8700002 213.7,91.8700002 C214.152873,91.8700002 214.52,92.2371266 214.52,92.69 L214.52,117.28 C214.52,117.497478 214.433607,117.706048 214.279828,117.859828 C214.126048,118.013607 213.917478,118.1 213.7,118.1 L213.7,118.1 Z" id="Path" fill="#000000" fill-rule="nonzero"></path>
                <path d="M180.05,59.87 L155.47,59.87 C155.017127,59.87 154.65,59.5028735 154.65,59.05 C154.65,58.5971265 155.017127,58.23 155.47,58.23 L180.05,58.23 C180.502873,58.23 180.87,58.5971265 180.87,59.05 C180.87,59.5028735 180.502873,59.87 180.05,59.87 L180.05,59.87 Z" id="Path" fill="#000000" fill-rule="nonzero"></path>
                <polygon id="Path" fill="#48AA80" fill-rule="nonzero" points="151.12 223.47 141.03 248.44 161.21 248.44"></polygon>
                <path d="M161.21,249.26 L141,249.26 C140.725251,249.259975 140.469246,249.120678 140.32,248.89 C140.160633,248.668707 140.130203,248.379626 140.24,248.13 L150.32,223.13 C150.448243,222.823062 150.747356,222.622341 151.08,222.62 L151.08,222.62 C151.414307,222.616867 151.716192,222.819448 151.84,223.13 L161.93,248.13 C162.028141,248.383055 161.996354,248.668107 161.844879,248.893326 C161.693404,249.118545 161.441381,249.255474 161.17,249.26 L161.21,249.26 Z M142.21,247.62 L160,247.62 L151.13,225.62 L142.21,247.62 Z" id="Shape" fill="#000000" fill-rule="nonzero"></path>
                <path d="M151.12,235.95 L151.12,262.49" id="Path" fill="#48AA80" fill-rule="nonzero"></path>
                <path d="M151.12,263.31 C150.667127,263.31 150.3,262.942873 150.3,262.49 L150.3,236 C150.3,235.547127 150.667127,235.18 151.12,235.18 C151.572873,235.18 151.94,235.547127 151.94,236 L151.94,262.54 C151.913535,262.973238 151.554045,263.310808 151.12,263.31 L151.12,263.31 Z" id="Path" fill="#000000" fill-rule="nonzero"></path>
                <polygon id="Path" fill="#48AA80" fill-rule="nonzero" points="186 192.88 168.09 237.21 203.9 237.21"></polygon>
                <path d="M203.91,238.37 L168.09,238.37 C167.690265,238.387265 167.310739,238.193706 167.09,237.86 C166.871713,237.542793 166.826668,237.137387 166.97,236.78 L184.88,192.45 C185.084561,192.047078 185.498124,191.793231 185.95,191.793231 C186.401876,191.793231 186.815439,192.047078 187.02,192.45 L205,236.78 C205.149984,237.135191 205.108515,237.542341 204.89,237.86 C204.67303,238.187502 204.302721,238.380214 203.91,238.37 Z M169.8,236.06 L202.2,236.06 L186,196 L169.8,236.06 Z" id="Shape" fill="#000000" fill-rule="nonzero"></path>
                <path d="M186,215.05 L186,262.16" id="Path" fill="#48AA80" fill-rule="nonzero"></path>
                <path d="M186,263.31 C185.364873,263.31 184.85,262.795127 184.85,262.16 L184.85,215.05 C184.85,214.414873 185.364873,213.9 186,213.9 C186.635127,213.9 187.15,214.414873 187.15,215.05 L187.15,262.16 C187.15,262.795127 186.635127,263.31 186,263.31 Z" id="Path" fill="#000000" fill-rule="nonzero"></path>
                <path d="M311.55,53.87 C311.097127,53.87 310.73,53.5028735 310.73,53.05 C310.73,50.27 306.73,48.1 301.73,48.1 C301.277127,48.1 300.91,47.7328735 300.91,47.28 C300.91,46.8271265 301.277127,46.46 301.73,46.46 C306.26,46.46 309.96,48.05 311.54,50.46 C313.11,48.09 316.81,46.46 321.35,46.46 C321.802873,46.46 322.17,46.8271265 322.17,47.28 C322.17,47.7328735 321.802873,48.1 321.35,48.1 C316.35,48.1 312.35,50.27 312.35,53.05 C312.350132,53.4951766 311.995044,53.8591421 311.55,53.87 L311.55,53.87 Z" id="Path" fill="#2A1616" fill-rule="nonzero"></path>
                <path d="M173.56,149.66 C173.107127,149.66 172.74,149.292873 172.74,148.84 C172.74,147.43 170.53,146.28 167.82,146.28 C167.367127,146.28 167,145.912873 167,145.46 C167,145.007127 167.367127,144.64 167.82,144.64 C169.944564,144.507289 172.02721,145.272861 173.56,146.75 C175.097199,145.273416 177.182583,144.508171 179.31,144.64 C179.602958,144.64 179.873662,144.796291 180.020141,145.05 C180.16662,145.303709 180.16662,145.616291 180.020141,145.87 C179.873662,146.123709 179.602958,146.28 179.31,146.28 C176.59,146.28 174.38,147.43 174.38,148.84 C174.38,149.292873 174.012873,149.66 173.56,149.66 L173.56,149.66 Z" id="Path" fill="#2A1616" fill-rule="nonzero"></path>
                <path d="M479.39,141.19 C478.937127,141.19 478.57,140.822873 478.57,140.37 C478.57,138.96 476.36,137.81 473.65,137.81 C473.197127,137.81 472.83,137.442873 472.83,136.99 C472.83,136.537127 473.197127,136.17 473.65,136.17 C475.774564,136.037289 477.85721,136.802861 479.39,138.28 C480.925865,136.801282 483.01222,136.03568 485.14,136.17 C485.592873,136.17 485.96,136.537127 485.96,136.99 C485.96,137.442873 485.592873,137.81 485.14,137.81 C482.42,137.81 480.21,138.96 480.21,140.37 C480.21,140.822873 479.842873,141.19 479.39,141.19 Z" id="Path" fill="#2A1616" fill-rule="nonzero"></path>
                <path d="M564.28,251.53 C564.28,251.53 514.43,269.26 472.84,248.37 C535.03,260.66 564.28,224.86 564.28,224.86 L564.28,251.53 Z" id="Path" stroke="#221F20" fill="#577A53" fill-rule="nonzero"></path>
                <polygon id="Path" stroke="#221F20" fill="#939393" fill-rule="nonzero" points="553.28 222.41 554.2 233.65 563.48 227.24"></polygon>
                <polygon id="Path" stroke="#221F20" fill="#939393" fill-rule="nonzero" points="543.79 228.01 543.79 239.29 553.56 233.65"></polygon>
                <polygon id="Path" stroke="#221F20" fill="#939393" fill-rule="nonzero" points="534.62 232.72 533.52 243.95 543.79 239.29"></polygon>
                <polygon id="Path" stroke="#221F20" fill="#939393" fill-rule="nonzero" points="525.27 236.25 522.73 247.24 533.52 243.95"></polygon>
                <polygon id="Path" stroke="#221F20" fill="#939393" fill-rule="nonzero" points="514.9 239.37 511.2 250.02 522.28 247.89"></polygon>
                <ellipse id="Oval" fill="#89BF84" fill-rule="nonzero" cx="566.21" cy="204.95" rx="21.3" ry="25"></ellipse>
                <path d="M566.21,231.18 C553.78,231.18 543.68,219.41 543.68,204.95 C543.68,190.49 553.78,178.71 566.21,178.71 C578.64,178.71 588.74,190.48 588.74,204.95 C588.74,219.42 578.63,231.18 566.21,231.18 Z M566.21,181.18 C555.14,181.18 546.14,191.84 546.14,204.95 C546.14,218.06 555.14,228.71 566.21,228.71 C577.28,228.71 586.27,218.05 586.27,204.95 C586.27,191.85 577.27,181.18 566.21,181.18 Z" id="Shape" fill="#000000" fill-rule="nonzero"></path>
                <path d="M566.21,262.08 L566.21,204.95" id="Path" fill="#89BF84" fill-rule="nonzero"></path>
                <path d="M566.21,263.31 C565.529075,263.304508 564.979978,262.750947 564.98,262.07 L564.98,205 C564.98,204.32069 565.53069,203.77 566.21,203.77 C566.88931,203.77 567.44,204.32069 567.44,205 L567.44,262.12 C567.413327,262.781377 566.871897,263.3052 566.21,263.31 Z" id="Path" fill="#000000" fill-rule="nonzero"></path>
                <path d="M566.21,204.95 L570.9,195.22" id="Path" fill="#DCEAF3" fill-rule="nonzero"></path>
                <path d="M566.21,206.18 C566.023545,206.178589 565.839504,206.137691 565.67,206.06 C565.059459,205.75956 564.805091,205.023232 565.1,204.41 L569.79,194.69 C570.086778,194.075661 570.824097,193.816482 571.44,194.11 C572.049251,194.406382 572.304105,195.139646 572.01,195.75 L567.32,205.48 C567.117685,205.909404 566.684671,206.182475 566.21,206.18 Z" id="Path" fill="#221F20" fill-rule="nonzero"></path>
                <path d="M566.21,204.95 L576.4,201.39" id="Path" fill="#DCEAF3" fill-rule="nonzero"></path>
                <path d="M566.21,206.18 C565.598771,206.195806 565.06873,205.760237 564.965768,205.157535 C564.862807,204.554834 565.218189,203.968005 565.8,203.78 L576,200.22 C576.642817,200.006 577.339105,200.343057 577.57,200.98 C577.681194,201.288824 577.663259,201.629426 577.520244,201.924863 C577.37723,202.220301 577.121203,202.445649 576.81,202.55 L566.62,206.11 C566.488903,206.158728 566.349839,206.182471 566.21,206.18 Z" id="Path" fill="#221F20" fill-rule="nonzero"></path>
                <path d="M566.21,204.95 L556.02,208.5" id="Path" fill="#DCEAF3" fill-rule="nonzero"></path>
                <path d="M556,209.74 C555.390832,209.750444 554.865813,209.31336 554.765651,208.712391 C554.66549,208.111423 555.020372,207.527689 555.6,207.34 L565.79,203.78 C566.433179,203.560231 567.133405,203.899194 567.36,204.54 C567.471194,204.848824 567.453259,205.189426 567.310244,205.484863 C567.16723,205.780301 566.911203,206.005649 566.6,206.11 L556.41,209.67 C556.277342,209.712648 556.139294,209.736217 556,209.74 L556,209.74 Z" id="Path" fill="#221F20" fill-rule="nonzero"></path>
                <path d="M566.21,204.95 L556.49,200.25" id="Path" fill="#DCEAF3" fill-rule="nonzero"></path>
                <path d="M566.21,206.18 C566.023545,206.178589 565.839504,206.137691 565.67,206.06 L556,201.37 C555.436164,201.046987 555.21732,200.343487 555.498426,199.75763 C555.779532,199.171774 556.465232,198.902293 557.07,199.14 L566.79,203.83 C567.301572,204.084503 567.573009,204.655626 567.447301,205.213008 C567.321594,205.770391 566.83129,206.169716 566.26,206.18 L566.21,206.18 Z" id="Path" fill="#221F20" fill-rule="nonzero"></path>
                <path d="M465.2,250.48 C462.44,259.57 453.66,264.95 445.58,262.48 C437.5,260.01 433.18,250.67 435.94,241.58 L435.94,241.58 L437,245.58 L440.11,242.83 L440.11,242.83 L440.67,248.47 L444.27,244.09 L444.27,244.09 L445.33,248.09 L448.44,245.34 L448.44,245.34 L449.88,248.08 L452.61,246.6 L452.61,246.6 L453.66,250.6 L456.77,247.84 L456.77,247.84 L457.02,254.55 L460.94,249.11 L460.94,249.11 L462,253.11 L465.11,250.36 L465.2,250.48 Z" id="Path" stroke="#221F20" fill="#E8E8E3" fill-rule="nonzero" stroke-linecap="round" stroke-linejoin="round"></path>
                <path d="M439,258.21 C439.431498,257.470422 439.519132,256.579476 439.24,255.77 L438.84,253.77 C438.704011,252.746173 438.363965,251.760042 437.84,250.87 C437.308348,249.961164 436.298398,249.442541 435.25,249.54 L435.78,252.03 L439,258.21 Z" id="Path" stroke="#221F20" fill="#FFFFFF" fill-rule="nonzero" stroke-linecap="round" stroke-linejoin="round"></path>
                <path d="M443,261.42 C443.095744,260.765231 443.457586,260.179047 444,259.8 C444.529045,259.429684 445.108212,259.136733 445.72,258.93 C446.029831,258.77733 446.376379,258.714951 446.72,258.75 C446.926758,258.812501 447.122459,258.906978 447.3,259.03 C448.017679,259.465784 448.687969,259.975205 449.3,260.55 C449.914773,261.142482 450.312719,261.92429 450.43,262.77 L448.29,263.04 L445.53,262.5 L443,261.42 Z" id="Path" stroke="#221F20" fill="#FFFFFF" fill-rule="nonzero" stroke-linecap="round" stroke-linejoin="round"></path>
                <path d="M445.3,247.87 C445.289823,248.349553 445.330043,248.828849 445.42,249.3 C445.516162,249.770822 445.765886,250.196406 446.13,250.51 C446.515128,250.783712 446.961492,250.958824 447.43,251.02 C448.41905,251.209284 449.423053,251.309685 450.43,251.32 C451.35,251.32 453.14,251.53 453.72,250.58 L452.6,246.66 L449.87,248.14 L448.43,245.4 L445.3,247.87 Z" id="Path" stroke="#221F20" fill="#FFFFFF" fill-rule="nonzero" stroke-linecap="round" stroke-linejoin="round"></path>
                <path d="M462,253.2 L465.2,250.48 L463,255.3 L460.42,258.46 L456.23,261.46 L456.61,259.98 C456.801125,259.196733 457.038202,258.425398 457.32,257.67 C458.145688,255.606235 459.65716,253.889936 461.6,252.81" id="Path" stroke="#221F20" fill="#FFFFFF" fill-rule="nonzero" stroke-linecap="round" stroke-linejoin="round"></path>
                <rect id="Rectangle" fill="#221F20" fill-rule="nonzero" x="57.7" y="261.26" width="534.22" height="2.46"></rect>
                <path d="M247.67,240.21 L243.78,238.87 L235.54,250.42 L235.54,261.28 L244.54,261.28 C244.54,258.15 247.71,240.21 247.71,240.21" id="Path" stroke="#221F20" fill="#8E6D4E" fill-rule="nonzero" stroke-linecap="round" stroke-linejoin="round"></path>
                <path d="M215.8,240.81 C215.8,240.81 219,258.15 219,261.28 L228,261.28 L228,251.12" id="Path" stroke="#221F20" fill="#8E6D4E" fill-rule="nonzero" stroke-linecap="round" stroke-linejoin="round"></path>
                <path d="M246.19,239.81 C244.243539,246.06423 238.700053,250.514262 232.172892,251.062228 C225.64573,251.610195 219.43789,248.146709 216.475916,242.304551 C213.513942,236.462393 214.389123,229.407814 218.688875,224.466536 C222.988628,219.525257 229.854606,217.68369 236.05,219.81 L246.19,239.81 Z" id="Path" stroke="#221F20" fill="#8E6D4E" fill-rule="nonzero" stroke-linecap="round" stroke-linejoin="round"></path>
                <path d="M227.93,261.28 C227.678202,260.23877 226.746243,259.505321 225.675,259.505321 C224.603757,259.505321 223.671798,260.23877 223.42,261.28" id="Path" stroke="#221F20" fill="#D8D8D8" fill-rule="nonzero" stroke-linecap="round" stroke-linejoin="round"></path>
                <path d="M223.42,261.28 C223.168202,260.23877 222.236243,259.505321 221.165,259.505321 C220.093757,259.505321 219.161798,260.23877 218.91,261.28" id="Path" stroke="#221F20" fill="#D8D8D8" fill-rule="nonzero" stroke-linecap="round" stroke-linejoin="round"></path>
                <path d="M244.52,261.18 C244.268202,260.13877 243.336243,259.405321 242.265,259.405321 C241.193757,259.405321 240.261798,260.13877 240.01,261.18" id="Path" stroke="#221F20" fill="#D8D8D8" fill-rule="nonzero" stroke-linecap="round" stroke-linejoin="round"></path>
                <path d="M240,261.18 C239.748202,260.13877 238.816243,259.405321 237.745,259.405321 C236.673757,259.405321 235.741798,260.13877 235.49,261.18" id="Path" stroke="#221F20" fill="#D8D8D8" fill-rule="nonzero" stroke-linecap="round" stroke-linejoin="round"></path>
                <path d="M217.5,225.36 C216.498036,224.563122 215.144628,224.367449 213.95799,224.847903 C212.771352,225.328356 211.935317,226.410506 211.77,227.68 C211.757032,228.114087 211.686413,228.544525 211.56,228.96 C211.404585,229.385143 210.940244,229.610681 210.51,229.47" id="Path" stroke="#221F20" stroke-linecap="round" stroke-linejoin="round"></path>
                <path d="M229.72,221.86 C230.147701,222.333205 230.462287,222.897408 230.64,223.51" id="Path" stroke="#221F20" stroke-linecap="round" stroke-linejoin="round"></path>
                <path d="M224.51,223 C225.303928,223.471105 225.731507,224.37773 225.59,225.29" id="Path" stroke="#221F20" stroke-linecap="round" stroke-linejoin="round"></path>
                <path d="M228.07,227.31 C228.62277,227.994471 229.04634,228.773839 229.32,229.61" id="Path" stroke="#221F20" stroke-linecap="round" stroke-linejoin="round"></path>
                <path d="M220.49,227.14 L221.69,228.26" id="Path" stroke="#221F20" stroke-linecap="round" stroke-linejoin="round"></path>
                <path d="M223.58,229.22 L224.68,230.29" id="Path" stroke="#221F20" stroke-linecap="round" stroke-linejoin="round"></path>
                <path d="M228,231.38 L228.91,233.16" id="Path" stroke="#221F20" stroke-linecap="round" stroke-linejoin="round"></path>
                <path d="M231.46,235.19 C232.168905,235.90355 232.47305,236.924876 232.27,237.91" id="Path" stroke="#221F20" stroke-linecap="round" stroke-linejoin="round"></path>
                <path d="M224.13,234.79 C224.359414,235.021551 224.539687,235.297062 224.66,235.6" id="Path" stroke="#221F20" stroke-linecap="round" stroke-linejoin="round"></path>
                <path d="M219.41,232.18 L220.06,233.29" id="Path" stroke="#221F20" stroke-linecap="round" stroke-linejoin="round"></path>
                <path d="M222.36,231.8 C222.654988,232.112164 222.886,232.479066 223.04,232.88" id="Path" stroke="#221F20" stroke-linecap="round" stroke-linejoin="round"></path>
                <path d="M227,235.33 L228.4,237.76" id="Path" stroke="#221F20" stroke-linecap="round" stroke-linejoin="round"></path>
                <path d="M219.68,237.76 L219.93,238.31" id="Path" stroke="#221F20" stroke-linecap="round" stroke-linejoin="round"></path>
                <path d="M217,235.45 L217.53,236.45" id="Path" stroke="#221F20" stroke-linecap="round" stroke-linejoin="round"></path>
                <path d="M217.06,228.54 C217.369554,228.8793 217.568382,229.304861 217.63,229.76" id="Path" stroke="#221F20" stroke-linecap="round" stroke-linejoin="round"></path>
                <path d="M223.05,237.9 L223.84,239.01" id="Path" stroke="#221F20" stroke-linecap="round" stroke-linejoin="round"></path>
                <path d="M220.15,241.32 C220.346694,241.81607 220.635052,242.270659 221,242.66" id="Path" stroke="#221F20" stroke-linecap="round" stroke-linejoin="round"></path>
                <path d="M223.32,242.66 L224.53,244.3" id="Path" stroke="#221F20" stroke-linecap="round" stroke-linejoin="round"></path>
                <path d="M226.89,240.31 L227.89,241.31" id="Path" stroke="#221F20" stroke-linecap="round" stroke-linejoin="round"></path>
                <path d="M230.92,239.67 C231.598311,240.282876 232.148852,241.023728 232.54,241.85" id="Path" stroke="#221F20" stroke-linecap="round" stroke-linejoin="round"></path>
                <path d="M237.07,244 C237.858903,244.82185 238.441529,245.819169 238.77,246.91" id="Path" stroke="#221F20" stroke-linecap="round" stroke-linejoin="round"></path>
                <path d="M235,245 L235.25,246.09" id="Path" stroke="#221F20" stroke-linecap="round" stroke-linejoin="round"></path>
                <path d="M232.13,245.11 C232.309781,245.44597 232.409057,245.81911 232.42,246.2" id="Path" stroke="#221F20" stroke-linecap="round" stroke-linejoin="round"></path>
                <path d="M229,242.66 C228.997422,243.229448 229.156971,243.787868 229.46,244.27" id="Path" stroke="#221F20" stroke-linecap="round" stroke-linejoin="round"></path>
                <path d="M227.39,247.15 L227.39,248" id="Path" stroke="#221F20" stroke-linecap="round" stroke-linejoin="round"></path>
                <path d="M226.72,244 C226.994059,244.291711 227.086195,244.71016 226.96,245.09" id="Path" stroke="#221F20" stroke-linecap="round" stroke-linejoin="round"></path>
                <path d="M222.6,245.94 C222.866034,246.472551 223.202373,246.966968 223.6,247.41" id="Path" stroke="#221F20" stroke-linecap="round" stroke-linejoin="round"></path>
                <path d="M219.78,244.29 L220.19,245.29" id="Path" stroke="#221F20" stroke-linecap="round" stroke-linejoin="round"></path>
                <path d="M234.53,241 C234.942824,241.485959 235.209767,242.07878 235.3,242.71" id="Path" stroke="#221F20" stroke-linecap="round" stroke-linejoin="round"></path>
                <path d="M230.1,248.23 C230.629245,248.655528 231.088197,249.161725 231.46,249.73" id="Path" stroke="#221F20" stroke-linecap="round" stroke-linejoin="round"></path>
                <path d="M234.52,248 L235.45,249.42" id="Path" stroke="#221F20" stroke-linecap="round" stroke-linejoin="round"></path>
                <path d="M226.7,222 C226.80544,222.3154 226.995736,222.595654 227.25,222.81" id="Path" stroke="#221F20" stroke-linecap="round" stroke-linejoin="round"></path>
                <path d="M222.1,224.32 C222.307312,224.61595 222.434753,224.960386 222.47,225.32" id="Path" stroke="#221F20" stroke-linecap="round" stroke-linejoin="round"></path>
                <path d="M218.8,249.1 C219.2454,249.374374 219.472837,249.89708 219.37,250.41" id="Path" stroke="#221F20" stroke-linecap="round" stroke-linejoin="round"></path>
                <path d="M221,250 L222.05,251.52" id="Path" stroke="#221F20" stroke-linecap="round" stroke-linejoin="round"></path>
                <path d="M223.76,251.6 C224.047054,252.006586 224.135243,252.521021 224,253" id="Path" stroke="#221F20" stroke-linecap="round" stroke-linejoin="round"></path>
                <path d="M226.18,252.85 L225.91,254.76" id="Path" stroke="#221F20" stroke-linecap="round" stroke-linejoin="round"></path>
                <path d="M220.09,253.38 L220.72,254.89" id="Path" stroke="#221F20" stroke-linecap="round" stroke-linejoin="round"></path>
                <path d="M222.49,255.17 L223.31,256.17" id="Path" stroke="#221F20" stroke-linecap="round" stroke-linejoin="round"></path>
                <path d="M225.09,256.66 C225.012624,257.025103 225.047484,257.405071 225.19,257.75" id="Path" stroke="#221F20" stroke-linecap="round" stroke-linejoin="round"></path>
                <path d="M221.14,257.47 L221.69,258.14" id="Path" stroke="#221F20" stroke-linecap="round" stroke-linejoin="round"></path>
                <path d="M237.85,252.31 L237.44,251.63 C237.76,252.13 237.53,251.81 237.85,252.31 Z" id="Path" stroke="#221F20" stroke-linecap="round" stroke-linejoin="round"></path>
                <path d="M241.67,248.64 L242.07,251.36" id="Path" stroke="#221F20" stroke-linecap="round" stroke-linejoin="round"></path>
                <path d="M244.23,246.74 L244.23,247.42" id="Path" stroke="#221F20" stroke-linecap="round" stroke-linejoin="round"></path>
                <path d="M239.45,250.68 L239.6,252.04" id="Path" stroke="#221F20" stroke-linecap="round" stroke-linejoin="round"></path>
                <path d="M241.87,253.29 L242.53,254.45" id="Path" stroke="#221F20" stroke-linecap="round" stroke-linejoin="round"></path>
                <path d="M243.59,250.93 C243.911208,251.416012 244.039575,252.004363 243.95,252.58" id="Path" stroke="#221F20" stroke-linecap="round" stroke-linejoin="round"></path>
                <path d="M239.2,254.48 L239.2,255.57" id="Path" stroke="#221F20" stroke-linecap="round" stroke-linejoin="round"></path>
                <path d="M237,256.66 L237.57,257.74" id="Path" stroke="#221F20" stroke-linecap="round" stroke-linejoin="round"></path>
                <path d="M240.84,257.19 C241.199747,257.406538 241.442331,257.77409 241.5,258.19" id="Path" stroke="#221F20" stroke-linecap="round" stroke-linejoin="round"></path>
                <path d="M243.3,256.39 L243.13,257.47" id="Path" stroke="#221F20" stroke-linecap="round" stroke-linejoin="round"></path>
                <path d="M252.88,217.95 L257.03,217.27" id="Path" stroke="#221F20" stroke-linecap="round" stroke-linejoin="round"></path>
                <path d="M252.88,217.95 L255.46,216.26" id="Path" stroke="#221F20" stroke-linecap="round" stroke-linejoin="round"></path>
                <path d="M252.88,217.95 L255.9,218.57" id="Path" stroke="#221F20" stroke-linecap="round" stroke-linejoin="round"></path>
                <path d="M252.88,217.95 L253.51,214.93" id="Path" stroke="#221F20" stroke-linecap="round" stroke-linejoin="round"></path>
                <path d="M252.88,217.95 L251.19,215.37" id="Path" stroke="#221F20" stroke-linecap="round" stroke-linejoin="round"></path>
                <path d="M252.88,217.95 L250.01,216.83" id="Path" stroke="#221F20" stroke-linecap="round" stroke-linejoin="round"></path>
                <path d="M210.72,229.57 L208.77,229.29" id="Path" stroke="#221F20" stroke-linecap="round" stroke-linejoin="round"></path>
                <path d="M210.72,229.57 L209.55,228" id="Path" stroke="#221F20" stroke-linecap="round" stroke-linejoin="round"></path>
                <path d="M210.72,229.57 L209.14,230.74" id="Path" stroke="#221F20" stroke-linecap="round" stroke-linejoin="round"></path>
                <path d="M210.72,229.57 L210.43,231.52" id="Path" stroke="#221F20" stroke-linecap="round" stroke-linejoin="round"></path>
                <path d="M210.72,229.57 L211.61,231.32" id="Path" stroke="#221F20" stroke-linecap="round" stroke-linejoin="round"></path>
                <path d="M262,237.79 C263.147568,238.427811 264.329354,239.002012 265.54,239.51 C264.320751,239.951471 263.006998,240.06526 261.73,239.84" id="Path" stroke="#221F20" fill="#D8D8D8" fill-rule="nonzero" stroke-linecap="round" stroke-linejoin="round"></path>
                <path d="M242.53,237.49 C244.084769,238.883471 245.983556,239.836317 248.03,240.25 C252.72,240.25 258.03,241.66 258.03,249.01 C258.032659,249.669468 257.772549,250.302838 257.30717,250.770093 C256.841791,251.237348 256.209473,251.500005 255.55,251.5 L255.55,251.5 C254.876735,251.519035 254.224686,251.263413 253.743734,250.791891 C253.262782,250.32037 252.994299,249.673509 253,249 L248.19,249 C248.189996,252.795817 251.264187,255.874483 255.06,255.88 L255.06,255.88 C256.895063,255.896004 258.660472,255.17822 259.963728,253.886231 C261.266984,252.594242 262.00007,250.835133 262,249 L262,229.1 C261.973603,226.05353 260.737332,223.142488 258.563467,221.008011 C256.389602,218.873535 253.456444,217.690694 250.41,217.72 C248.22701,217.714863 246.086194,218.321081 244.23,219.47" id="Path" stroke="#221F20" fill="#8E6D4E" fill-rule="nonzero" stroke-linecap="round" stroke-linejoin="round"></path>
                <circle id="Oval" stroke="#221F20" fill="#121212" fill-rule="nonzero" stroke-linecap="round" stroke-linejoin="round" cx="255.34" cy="230.87" r="1.07"></circle>
                <path d="M242.27,244.2 C228.61,238.35 232.96,224.64 232.96,224.64 C234.43,220.64 237.17,218.01 240.31,218.01 C243.07,218.01 245.52,220.07 247.08,223.26 L247.08,225.74 C247.08,225.74 242.06,228.45 242.27,244.2 Z" id="Path" stroke="#221F20" fill="#8E6D4E" fill-rule="nonzero" stroke-linecap="round" stroke-linejoin="round"></path>
                <path d="M261.69,244.09 C259.290553,243.572307 257.081899,242.398743 255.31,240.7 L252.9,238.1 C252.377885,237.522673 252.413441,236.63378 252.98,236.1 L252.98,236.1 C253.55533,235.572404 254.448649,235.608136 254.98,236.18 L257.39,238.79 C257.39,238.79 259.69,241.33 265.49,243.79 C264.270751,244.231471 262.956998,244.34526 261.68,244.12" id="Path" stroke="#221F20" fill="#D8D8D8" fill-rule="nonzero" stroke-linecap="round" stroke-linejoin="round"></path>
                <path d="M304.73,240.21 L300.85,238.87 L292.6,250.42 L292.6,261.28 L301.6,261.28 C301.6,258.15 304.76,240.21 304.76,240.21" id="Path" stroke="#221F20" fill="#8E6D4E" fill-rule="nonzero" stroke-linecap="round" stroke-linejoin="round"></path>
                <path d="M272.86,240.81 C272.86,240.81 276,258.15 276,261.28 L285,261.28 L285,251.12" id="Path" stroke="#221F20" fill="#8E6D4E" fill-rule="nonzero" stroke-linecap="round" stroke-linejoin="round"></path>
                <path d="M303.26,239.81 C301.317015,246.070825 295.77206,250.528452 289.239981,251.080788 C282.707903,251.633124 276.493178,248.169866 273.526498,242.32419 C270.559817,236.478514 271.433637,229.41782 275.735887,224.471734 C280.038137,219.525649 286.909646,217.68192 293.11,219.81 L303.26,239.81 Z" id="Path" stroke="#221F20" fill="#8E6D4E" fill-rule="nonzero" stroke-linecap="round" stroke-linejoin="round"></path>
                <path d="M285,261.28 C284.748202,260.23877 283.816243,259.505321 282.745,259.505321 C281.673757,259.505321 280.741798,260.23877 280.49,261.28" id="Path" stroke="#221F20" fill="#D8D8D8" fill-rule="nonzero" stroke-linecap="round" stroke-linejoin="round"></path>
                <path d="M280.48,261.28 C280.228202,260.23877 279.296243,259.505321 278.225,259.505321 C277.153757,259.505321 276.221798,260.23877 275.97,261.28" id="Path" stroke="#221F20" fill="#D8D8D8" fill-rule="nonzero" stroke-linecap="round" stroke-linejoin="round"></path>
                <path d="M301.58,261.18 C301.328202,260.13877 300.396243,259.405321 299.325,259.405321 C298.253757,259.405321 297.321798,260.13877 297.07,261.18" id="Path" stroke="#221F20" fill="#D8D8D8" fill-rule="nonzero" stroke-linecap="round" stroke-linejoin="round"></path>
                <path d="M297.07,261.18 C296.818202,260.13877 295.886243,259.405321 294.815,259.405321 C293.743757,259.405321 292.811798,260.13877 292.56,261.18" id="Path" stroke="#221F20" fill="#D8D8D8" fill-rule="nonzero" stroke-linecap="round" stroke-linejoin="round"></path>
                <path d="M274.57,225.36 C273.568036,224.563122 272.214628,224.367449 271.02799,224.847903 C269.841352,225.328356 269.005317,226.410506 268.84,227.68 C268.828667,228.115033 268.754569,228.546149 268.62,228.96 C268.44,229.36 267.96,229.67 267.62,229.47" id="Path" stroke="#221F20" stroke-linecap="round" stroke-linejoin="round"></path>
                <path d="M286.78,221.86 C287.21153,222.33045 287.526643,222.895599 287.7,223.51" id="Path" stroke="#221F20" stroke-linecap="round" stroke-linejoin="round"></path>
                <path d="M281.58,223 C282.374413,223.469974 282.799211,224.379119 282.65,225.29" id="Path" stroke="#221F20" stroke-linecap="round" stroke-linejoin="round"></path>
                <path d="M285.13,227.31 C285.689566,227.991512 286.116895,228.771558 286.39,229.61" id="Path" stroke="#221F20" stroke-linecap="round" stroke-linejoin="round"></path>
                <path d="M277.56,227.14 L278.76,228.26" id="Path" stroke="#221F20" stroke-linecap="round" stroke-linejoin="round"></path>
                <path d="M280.65,229.22 L281.75,230.29" id="Path" stroke="#221F20" stroke-linecap="round" stroke-linejoin="round"></path>
                <path d="M285,231.38 L285.91,233.16" id="Path" stroke="#221F20" stroke-linecap="round" stroke-linejoin="round"></path>
                <path d="M288.53,235.19 C289.235303,235.905508 289.535617,236.926574 289.33,237.91" id="Path" stroke="#221F20" stroke-linecap="round" stroke-linejoin="round"></path>
                <path d="M281.19,234.79 C281.42237,235.021161 281.605994,235.296597 281.73,235.6" id="Path" stroke="#221F20" stroke-linecap="round" stroke-linejoin="round"></path>
                <path d="M276.48,232.18 L277.13,233.29" id="Path" stroke="#221F20" stroke-linecap="round" stroke-linejoin="round"></path>
                <path d="M279.43,231.8 C279.721489,232.114862 279.952055,232.481054 280.11,232.88" id="Path" stroke="#221F20" stroke-linecap="round" stroke-linejoin="round"></path>
                <path d="M284,235.33 L285.39,237.76" id="Path" stroke="#221F20" stroke-linecap="round" stroke-linejoin="round"></path>
                <path d="M276.75,237.76 L276.99,238.31" id="Path" stroke="#221F20" stroke-linecap="round" stroke-linejoin="round"></path>
                <path d="M274,235.45 L274.52,236.45" id="Path" stroke="#221F20" stroke-linecap="round" stroke-linejoin="round"></path>
                <path d="M274.12,228.54 C274.428568,228.881138 274.630235,229.305333 274.7,229.76" id="Path" stroke="#221F20" stroke-linecap="round" stroke-linejoin="round"></path>
                <path d="M280.12,237.9 L280.91,239.01" id="Path" stroke="#221F20" stroke-linecap="round" stroke-linejoin="round"></path>
                <path d="M277.22,241.32 C277.409018,241.819943 277.698277,242.275952 278.07,242.66" id="Path" stroke="#221F20" stroke-linecap="round" stroke-linejoin="round"></path>
                <path d="M280.39,242.66 L281.6,244.3" id="Path" stroke="#221F20" stroke-linecap="round" stroke-linejoin="round"></path>
                <path d="M284,240.31 L285,241.31" id="Path" stroke="#221F20" stroke-linecap="round" stroke-linejoin="round"></path>
                <path d="M288,239.67 C288.67544,240.285479 289.225532,241.025726 289.62,241.85" id="Path" stroke="#221F20" stroke-linecap="round" stroke-linejoin="round"></path>
                <path d="M294.14,244 C294.9259,244.822428 295.505141,245.819819 295.83,246.91" id="Path" stroke="#221F20" stroke-linecap="round" stroke-linejoin="round"></path>
                <path d="M292.07,245 L292.33,246.09" id="Path" stroke="#221F20" stroke-linecap="round" stroke-linejoin="round"></path>
                <path d="M289.2,245.11 C289.379781,245.44597 289.479057,245.81911 289.49,246.2" id="Path" stroke="#221F20" stroke-linecap="round" stroke-linejoin="round"></path>
                <path d="M286.07,242.66 C286.067422,243.229448 286.226971,243.787868 286.53,244.27" id="Path" stroke="#221F20" stroke-linecap="round" stroke-linejoin="round"></path>
                <path d="M284.45,247.15 L284.45,248" id="Path" stroke="#221F20" stroke-linecap="round" stroke-linejoin="round"></path>
                <path d="M283.79,244 C284.066798,244.290512 284.155825,244.71242 284.02,245.09" id="Path" stroke="#221F20" stroke-linecap="round" stroke-linejoin="round"></path>
                <path d="M279.66,245.94 C279.926449,246.472307 280.262752,246.966672 280.66,247.41" id="Path" stroke="#221F20" stroke-linecap="round" stroke-linejoin="round"></path>
                <path d="M276.85,244.29 L277.25,245.29" id="Path" stroke="#221F20" stroke-linecap="round" stroke-linejoin="round"></path>
                <path d="M291.59,241 C292.005511,241.485386 292.27584,242.078032 292.37,242.71" id="Path" stroke="#221F20" stroke-linecap="round" stroke-linejoin="round"></path>
                <path d="M287.17,248.23 C287.698775,248.653049 288.154795,249.159738 288.52,249.73" id="Path" stroke="#221F20" stroke-linecap="round" stroke-linejoin="round"></path>
                <path d="M291.59,248 L292.52,249.42" id="Path" stroke="#221F20" stroke-linecap="round" stroke-linejoin="round"></path>
                <path d="M283.76,222 C283.869152,222.316095 284.062831,222.596238 284.32,222.81" id="Path" stroke="#221F20" stroke-linecap="round" stroke-linejoin="round"></path>
                <path d="M279.16,224.32 C279.367312,224.61595 279.494753,224.960386 279.53,225.32" id="Path" stroke="#221F20" stroke-linecap="round" stroke-linejoin="round"></path>
                <path d="M275.86,249.1 C276.304684,249.375536 276.534922,249.895554 276.44,250.41" id="Path" stroke="#221F20" stroke-linecap="round" stroke-linejoin="round"></path>
                <path d="M278.09,250 L279.14,251.52" id="Path" stroke="#221F20" stroke-linecap="round" stroke-linejoin="round"></path>
                <path d="M280.83,251.6 C281.084174,252.020915 281.146051,252.530487 281,253" id="Path" stroke="#221F20" stroke-linecap="round" stroke-linejoin="round"></path>
                <path d="M283.24,252.85 L282.98,254.76" id="Path" stroke="#221F20" stroke-linecap="round" stroke-linejoin="round"></path>
                <path d="M277.16,253.38 L277.79,254.89" id="Path" stroke="#221F20" stroke-linecap="round" stroke-linejoin="round"></path>
                <path d="M279.56,255.17 L280.37,256.17" id="Path" stroke="#221F20" stroke-linecap="round" stroke-linejoin="round"></path>
                <path d="M282.15,256.66 C282.075779,257.026106 282.114127,257.406105 282.26,257.75" id="Path" stroke="#221F20" stroke-linecap="round" stroke-linejoin="round"></path>
                <path d="M278.21,257.47 L278.76,258.14" id="Path" stroke="#221F20" stroke-linecap="round" stroke-linejoin="round"></path>
                <path d="M294.92,252.31 L294.51,251.63 C294.83,252.13 294.6,251.81 294.92,252.31 Z" id="Path" stroke="#221F20" stroke-linecap="round" stroke-linejoin="round"></path>
                <path d="M298.73,248.64 L299.14,251.36" id="Path" stroke="#221F20" stroke-linecap="round" stroke-linejoin="round"></path>
                <path d="M301.3,246.74 L301.3,247.42" id="Path" stroke="#221F20" stroke-linecap="round" stroke-linejoin="round"></path>
                <path d="M296.52,250.68 L296.67,252.04" id="Path" stroke="#221F20" stroke-linecap="round" stroke-linejoin="round"></path>
                <path d="M298.93,253.29 L299.6,254.45" id="Path" stroke="#221F20" stroke-linecap="round" stroke-linejoin="round"></path>
                <path d="M300.65,250.93 C300.971208,251.416012 301.099575,252.004363 301.01,252.58" id="Path" stroke="#221F20" stroke-linecap="round" stroke-linejoin="round"></path>
                <path d="M296.27,254.48 L296.27,255.57" id="Path" stroke="#221F20" stroke-linecap="round" stroke-linejoin="round"></path>
                <path d="M294.08,256.66 L294.65,257.74" id="Path" stroke="#221F20" stroke-linecap="round" stroke-linejoin="round"></path>
                <path d="M297.91,257.19 C298.262944,257.413549 298.50321,257.777589 298.57,258.19" id="Path" stroke="#221F20" stroke-linecap="round" stroke-linejoin="round"></path>
                <path d="M300.37,256.39 L300.2,257.47" id="Path" stroke="#221F20" stroke-linecap="round" stroke-linejoin="round"></path>
                <path d="M309.95,217.95 L314.09,217.27" id="Path" stroke="#221F20" stroke-linecap="round" stroke-linejoin="round"></path>
                <path d="M309.95,217.95 L312.53,216.26" id="Path" stroke="#221F20" stroke-linecap="round" stroke-linejoin="round"></path>
                <path d="M309.95,217.95 L312.97,218.57" id="Path" stroke="#221F20" stroke-linecap="round" stroke-linejoin="round"></path>
                <path d="M309.95,217.95 L310.57,214.93" id="Path" stroke="#221F20" stroke-linecap="round" stroke-linejoin="round"></path>
                <path d="M309.95,217.95 L308.26,215.37" id="Path" stroke="#221F20" stroke-linecap="round" stroke-linejoin="round"></path>
                <path d="M309.95,217.95 L307.08,216.83" id="Path" stroke="#221F20" stroke-linecap="round" stroke-linejoin="round"></path>
                <path d="M267.78,229.57 L265.84,229.29" id="Path" stroke="#221F20" stroke-linecap="round" stroke-linejoin="round"></path>
                <path d="M267.78,229.57 L266.61,228" id="Path" stroke="#221F20" stroke-linecap="round" stroke-linejoin="round"></path>
                <path d="M267.78,229.57 L266.21,230.74" id="Path" stroke="#221F20" stroke-linecap="round" stroke-linejoin="round"></path>
                <path d="M267.78,229.57 L267.5,231.52" id="Path" stroke="#221F20" stroke-linecap="round" stroke-linejoin="round"></path>
                <path d="M267.78,229.57 L268.67,231.32" id="Path" stroke="#221F20" stroke-linecap="round" stroke-linejoin="round"></path>
                <path d="M319,237.79 C320.143048,238.429905 321.321624,239.004169 322.53,239.51 C321.314135,239.951089 320.0037,240.06489 318.73,239.84" id="Path" stroke="#221F20" fill="#D8D8D8" fill-rule="nonzero" stroke-linecap="round" stroke-linejoin="round"></path>
                <path d="M299.6,237.49 C301.153664,238.885093 303.052916,239.838172 305.1,240.25 C309.78,240.25 315.05,241.66 315.05,249.01 C315.052659,249.669468 314.792549,250.302838 314.32717,250.770093 C313.861791,251.237348 313.229473,251.500005 312.57,251.5 L312.57,251.5 C311.910527,251.500005 311.278209,251.237348 310.81283,250.770093 C310.347451,250.302838 310.087341,249.669468 310.09,249.01 L305.27,249.01 C305.27,252.809719 308.350281,255.89 312.15,255.89 L312.15,255.89 C315.941903,255.873469 319.005548,252.791935 319,249 L319,229.1 C318.970965,226.052618 317.73248,223.1416 315.557028,221.007406 C313.381575,218.873212 310.447379,217.690686 307.4,217.72 C305.220186,217.715129 303.082654,218.321398 301.23,219.47" id="Path" stroke="#221F20" fill="#8E6D4E" fill-rule="nonzero" stroke-linecap="round" stroke-linejoin="round"></path>
                <circle id="Oval" stroke="#221F20" fill="#121212" fill-rule="nonzero" stroke-linecap="round" stroke-linejoin="round" cx="312.41" cy="230.87" r="1.07"></circle>
                <path d="M299.33,244.2 C285.68,238.35 290.02,224.64 290.02,224.64 C291.5,220.64 294.24,218.01 297.37,218.01 C300.13,218.01 302.59,220.07 304.14,223.26 L304.14,225.74 C304.14,225.74 299.13,228.45 299.33,244.2 Z" id="Path" stroke="#221F20" fill="#8E6D4E" fill-rule="nonzero" stroke-linecap="round" stroke-linejoin="round"></path>
                <path d="M318.76,244.09 C316.358075,243.571064 314.14652,242.397797 312.37,240.7 L310,238.1 C309.483238,237.520744 309.518622,236.63613 310.08,236.1 L310.08,236.1 C310.657327,235.577885 311.54622,235.613441 312.08,236.18 L314.49,238.79 C314.49,238.79 316.78,241.33 322.58,243.79 C321.364135,244.231089 320.0537,244.34489 318.78,244.12" id="Path" stroke="#221F20" fill="#D8D8D8" fill-rule="nonzero" stroke-linecap="round" stroke-linejoin="round"></path>
                <path d="M330.33,174.19 L314.24,186.21" id="Path" fill="#E8E8E8" fill-rule="nonzero"></path>
                <path d="M314.24,187.09 C313.961814,187.09178 313.700363,186.957319 313.54,186.73 C313.40156,186.544536 313.342723,186.311556 313.376503,186.082599 C313.410284,185.853642 313.533898,185.647581 313.72,185.51 L329.8,173.51 C330.190916,173.226287 330.736774,173.306169 331.03,173.69 C331.312628,174.077734 331.232561,174.620408 330.85,174.91 L314.76,186.91 C314.611793,187.026683 314.428627,187.090086 314.24,187.09 L314.24,187.09 Z" id="Path" fill="#000000" fill-rule="nonzero"></path>
                <path d="M333.09,177.89 L321.77,186.35" id="Path" fill="#E8E8E8" fill-rule="nonzero"></path>
                <path d="M321.77,187.23 C321.494023,187.232412 321.233656,187.102228 321.07,186.88 C320.778436,186.493102 320.854424,185.94331 321.24,185.65 L332.57,177.19 C332.953577,176.995029 333.422065,177.109746 333.672163,177.459884 C333.922261,177.810021 333.878835,178.29039 333.57,178.59 L322.25,187.05 C322.112019,187.157401 321.944578,187.220191 321.77,187.23 L321.77,187.23 Z" id="Path" fill="#000000" fill-rule="nonzero"></path>
                <path d="M327.66,170.62 L316.33,179.08" id="Path" fill="#E8E8E8" fill-rule="nonzero"></path>
                <path d="M316.33,180 C315.954873,179.994388 315.624554,179.751567 315.507269,179.395203 C315.389984,179.038838 315.511528,178.647302 315.81,178.42 L327.13,169.96 C327.520916,169.676287 328.066774,169.756169 328.36,170.14 C328.49844,170.325464 328.557277,170.558444 328.523497,170.787401 C328.489716,171.016358 328.366102,171.222419 328.18,171.36 L316.86,179.82 C316.707985,179.936745 316.521671,180.000021 316.33,180 L316.33,180 Z" id="Path" fill="#000000" fill-rule="nonzero"></path>
                <path d="M339.91,124.47 C337.725139,126.023766 336.55316,128.638979 336.847517,131.303779 C337.141873,133.968579 338.856391,136.264947 341.3277,137.304387 C343.799009,138.343827 346.639443,137.963286 348.75,136.31" id="Path" fill="#94BDC2" fill-rule="nonzero"></path>
                <path d="M344.35,139.1 C343.92509,139.099525 343.50073,139.069452 343.08,139.01 C339.591824,138.513481 336.746347,135.964366 335.87071,132.551572 C334.995074,129.138778 336.261767,125.534584 339.08,123.42 C339.452979,123.088437 339.981058,122.995564 340.444781,123.179977 C340.908504,123.36439 341.22858,123.794557 341.271995,124.291711 C341.31541,124.788865 341.074739,125.268001 340.65,125.53 C338.821508,126.797359 337.83123,128.962204 338.068084,131.174326 C338.304938,133.386448 339.731096,135.292563 341.786457,136.144075 C343.841819,136.995586 346.198135,136.656505 347.93,135.26 C348.512639,134.900601 349.273347,135.046262 349.682004,135.595476 C350.090661,136.144689 350.011636,136.915176 349.5,137.37 C348.012675,138.482881 346.207559,139.08926 344.35,139.1 Z" id="Path" fill="#000000" fill-rule="nonzero"></path>
                <path d="M355.87,145.83 L335.72,118.83 C334.82198,117.62999 334.43757,116.122333 334.651373,114.638839 C334.865177,113.155345 335.65967,111.817593 336.86,110.92 L336.86,110.92 C339.359818,109.05892 342.894518,109.573465 344.76,112.07 L372.71,133.21" id="Path" fill="#CCCCCB" fill-rule="nonzero"></path>
                <path d="M355.87,147.15 C355.455523,147.15082 355.065498,146.95395 354.82,146.62 L334.66,119.62 C332.39216,116.534254 333.024862,112.198908 336.08,109.89 C339.093802,107.624192 343.365328,108.179224 345.7,111.14 L373.51,132.14 C374.087138,132.579066 374.199066,133.402862 373.76,133.98 C373.320934,134.557138 372.497138,134.669066 371.92,134.23 L344,113.15 C343.90363,113.073613 343.816387,112.98637 343.74,112.89 C342.306821,110.973572 339.591428,110.581821 337.675,112.015 C335.758572,113.448179 335.366821,116.163572 336.8,118.08 L356.95,145.08 C357.16219,145.358364 357.253167,145.710532 357.20235,146.056839 C357.151534,146.403147 356.963217,146.714332 356.68,146.92 C356.442035,147.082367 356.157784,147.16308 355.87,147.15 L355.87,147.15 Z" id="Path" fill="#000000" fill-rule="nonzero"></path>
                <path d="M381.61,145.15 L394,177.94 C395.86108,180.439818 395.346535,183.974518 392.85,185.84 L392.85,185.84 C391.651598,186.737479 390.145521,187.121626 388.663661,186.907788 C387.181801,186.69395 385.845775,185.899677 384.95,184.7 L364.8,157.7" id="Path" fill="#CCCCCB" fill-rule="nonzero"></path>
                <path d="M389.45,188.28 C387.249746,188.288715 385.175707,187.25355 383.86,185.49 L363.71,158.49 C363.49943,158.211904 363.408468,157.861311 363.457274,157.515919 C363.506079,157.170528 363.690621,156.858864 363.97,156.65 C364.554783,156.224976 365.371975,156.34489 365.81,156.92 L385.96,183.92 C386.647084,184.8432 387.673416,185.454905 388.812328,185.620019 C389.95124,185.785134 391.109031,185.490072 392.03,184.8 C393.939267,183.359823 394.327878,180.648483 392.9,178.73 C392.825876,178.633565 392.768416,178.525405 392.73,178.41 L380.38,145.62 C380.123188,144.943451 380.463451,144.186813 381.14,143.93 C381.816549,143.673188 382.573188,144.013451 382.83,144.69 L395.12,177.32 C396.60229,179.448466 396.786144,182.222085 395.597766,184.52758 C394.409388,186.833076 392.043606,188.292474 389.45,188.32 L389.45,188.28 Z" id="Path" fill="#000000" fill-rule="nonzero"></path>
                <path d="M371.87,167.26 C368.737001,169.745967 368.150263,174.273292 370.546041,177.475785 C372.94182,180.678277 377.450609,181.393648 380.72,179.09" id="Path" fill="#94BDC2" fill-rule="nonzero"></path>
                <path d="M376.31,181.88 C375.88841,181.879548 375.467374,181.849474 375.05,181.79 C371.555722,181.302539 368.701815,178.753028 367.824991,175.335605 C366.948166,171.918183 368.222058,168.309583 371.05,166.2 C371.632639,165.840601 372.393347,165.986262 372.802004,166.535476 C373.210661,167.084689 373.131636,167.855176 372.62,168.31 C370.791508,169.577359 369.80123,171.742204 370.038084,173.954326 C370.274938,176.166448 371.701096,178.072563 373.756457,178.924075 C375.811819,179.775586 378.168135,179.436505 379.9,178.04 C380.482639,177.680601 381.243347,177.826262 381.652004,178.375476 C382.060661,178.924689 381.981636,179.695176 381.47,180.15 C379.979599,181.264277 378.170866,181.870693 376.31,181.88 L376.31,181.88 Z" id="Path" fill="#000000" fill-rule="nonzero"></path>
                <path d="M341.43,166 L328.56,164.56 C327.27367,164.374412 326.113761,163.6854 325.335473,162.644556 C324.557184,161.603713 324.224279,160.296311 324.41,159.01 L324.41,159.01 C324.595588,157.72367 325.2846,156.563761 326.325444,155.785473 C327.366287,155.007184 328.673689,154.674279 329.96,154.86 L341.57,156.54 L383.35,125.32 C384.928037,124.139785 386.910282,123.634782 388.860661,123.916087 C390.811039,124.197391 392.569788,125.24196 393.75,126.82 L393.75,126.82 C394.929154,128.399269 395.43252,130.382332 395.149329,132.332792 C394.866137,134.283252 393.819592,136.04128 392.24,137.22 L350.46,168.44 L348.78,180 C348.594412,181.28633 347.9054,182.446239 346.864556,183.224527 C345.823713,184.002816 344.516311,184.335721 343.23,184.15 L343.23,184.15 C341.942484,183.966931 340.780921,183.278544 340.002143,182.237046 C339.223366,181.195548 338.891527,179.886736 339.08,178.6 L341.35,165.85 L341.43,166 Z" id="Path" fill="#FFFFFF" fill-rule="nonzero"></path>
                <path d="M343.93,185.54 C343.631913,185.54118 343.334237,185.517768 343.04,185.47 C339.663128,184.97494 337.315911,181.851268 337.78,178.47 L339.78,167.15 L328.39,165.89 C325.002914,165.404452 322.638628,162.28181 323.09,158.89 C323.590099,155.516123 326.710207,153.171585 330.09,153.63 L341.16,155.23 L382.5,124.33 C384.98918,122.286167 388.399925,121.775025 391.378885,122.999389 C394.357845,124.223753 396.423355,126.985657 396.755841,130.189206 C397.088327,133.392754 395.634029,136.519968 392.97,138.33 L351.62,169.22 L350.02,180.29 C349.542124,183.291087 346.968743,185.509519 343.93,185.54 Z M342.57,166.54 L340.37,178.9 C340.099057,180.860689 341.466175,182.670762 343.426205,182.946434 C345.386234,183.222107 347.1996,181.859359 347.48,179.9 L349.16,168.29 C349.213665,167.948625 349.396196,167.640827 349.67,167.43 L391.46,136.21 C392.757924,135.248477 393.618268,133.808572 393.85,132.21 C394.091877,130.605262 393.673386,128.970984 392.69,127.68 C391.72377,126.37749 390.277926,125.51417 388.672949,125.281401 C387.067972,125.048632 385.436442,125.465643 384.14,126.44 L342.35,157.66 C342.06756,157.882104 341.703732,157.973061 341.35,157.91 L329.75,156.23 C328.805041,156.093647 327.844618,156.338249 327.08,156.91 C325.504562,158.094318 325.182725,160.329292 326.36,161.91 C326.924106,162.677569 327.775954,163.182902 328.72,163.31 L341,164.61 L341.05,164.61 C341.559459,164.49231 342.090112,164.688848 342.4,165.11 C342.699197,165.506571 342.764006,166.032672 342.57,166.49 L342.57,166.54 Z" id="Shape" fill="#000000" fill-rule="nonzero"></path>
                <path d="M372.05,82.21 C372.82,80.87 374.81,80.63 376.16,80.21 C377.51,79.79 376.34,79.28 375.7,78.56 C375.089379,77.8775379 374.72039,77.0130486 374.65,76.1 C374.567708,74.5432294 375.332497,73.0633627 376.65,72.23 C378.37,71.16 380.21,71.58 382.09,71.52 C382.09,71.52 382.79,68.52 382.89,68.28 C383.235013,67.19094 383.883769,66.2230109 384.76,65.49 C386.141492,64.5064452 387.88181,64.1707864 389.53,64.57 C390.637897,64.8377027 391.694982,65.2835022 392.66,65.89 C393.55,66.4 393.86,66.89 394.75,66.1 C395.298763,65.6390846 395.90355,65.249333 396.55,64.94 C397.830016,64.3471942 399.261317,64.1621724 400.65,64.41 C401.798562,64.6321807 402.876056,65.12975 403.79,65.86 C404.298907,66.3182364 404.722176,66.8634076 405.04,67.47 C406.04,68.96 406.71,67.38 407.79,66.78 C410.081576,65.5244725 412.793979,65.2851429 415.27,66.12 C416.785517,66.6027064 418.131644,67.5082192 419.15,68.73 C419.71,69.5 419.78,70.9 421.02,70.87 C421.53,70.87 422.23,70.29 422.89,70.27 C425.438888,70.1254522 427.911658,71.1662301 429.59,73.09 C430.43,74.17 431.24,76.19 430.59,77.54 C430.18,78.43 428.95,78.73 429.43,79.92 C431.128289,79.885043 432.651871,80.9588438 433.19,82.57 C433.613076,84.1931846 433.298382,85.9203439 432.33,87.29 C431.55,88.5 429.02,89.58 428.92,91.14 C428.86,92.14 429.72,92.57 429.6,93.74 C429.453115,95.0505087 428.817506,96.2574516 427.82,97.12 C426.757627,97.9852091 425.47072,98.529803 424.11,98.69 C423.424491,98.7867082 422.730929,98.8135125 422.04,98.77 C420.75,98.7 421.09,99.29 421.04,100.22 C420.780424,101.4368 420.022215,102.488861 418.95,103.12 C417.433361,103.991541 415.696647,104.40488 413.95,104.31 C413.021792,104.325672 412.096972,104.194037 411.21,103.92 C410.763372,103.772541 410.339337,103.563889 409.95,103.3 C408.87,102.55 408.61,103.6 407.62,103.93 C406.277796,104.320281 404.852204,104.320281 403.51,103.93 C401.861543,103.507777 400.329976,102.718063 399.03,101.62 C397.81,100.51 397.19,101.81 395.97,102.34 C394.856045,102.833052 393.626805,103.006184 392.42,102.84 C390.98,102.64 389.13,101.9 388.57,100.49 C387.94,98.91 386.75,100.09 385.57,100.49 C384.340915,100.92205 383.010909,100.977757 381.75,100.65 C380.319072,100.244603 379.162909,99.1884924 378.63,97.8 C378.47,97.34 378.81,96.64 378.53,96.32 C378.25,96 377.53,96.2 377.14,96.13 C376.413575,95.9859692 375.729565,95.6781648 375.14,95.23 C373.920998,94.2881058 372.955356,93.0578573 372.33,91.65 C371.864898,90.8716868 371.678019,89.95845 371.8,89.06 C372,88.25 373.03,87.74 373.16,86.97 C373.52,85.31 370.83,84.32 372.05,82.21 Z" id="Path" fill="#F5CEB4" fill-rule="nonzero"></path>
                <path d="M375.1,115.62 C374.789695,115.804993 374.539618,116.07591 374.38,116.4 C374.254858,116.769614 374.21386,117.162514 374.26,117.55 C374.265356,118.073144 374.363546,118.591182 374.55,119.08 C374.745506,119.55588 375.140509,119.921624 375.63,120.08 C376.178782,120.197538 376.751777,120.089425 377.22,119.78 C378.41,119.12 380.17,117.25 379.22,115.93 C378.36,114.82 376.15,114.92 375.1,115.62 Z" id="Path" stroke="#221F20" stroke-width="2.5"></path>
                <path d="M385.57,110.56 C385.937539,110.515037 386.284533,110.365829 386.57,110.13 C386.836717,109.846662 387.032109,109.503869 387.14,109.13 C387.350742,108.64869 387.47595,108.134321 387.51,107.61 C387.540196,107.080448 387.335294,106.564535 386.95,106.2 C386.49144,105.876 385.924738,105.743292 385.37,105.83 C384.03,105.95 381.66,106.93 381.99,108.54 C382.26,110 384.33,110.76 385.57,110.56 Z" id="Path" stroke="#221F20" stroke-width="2.5"></path>
                <path d="M367.79,78.72 C368.57,77.38 370.56,77.15 371.9,76.72 C373.24,76.29 372.09,75.79 371.45,75.07 C370.832523,74.3909579 370.459464,73.5251777 370.39,72.61 C370.314087,71.0546096 371.077313,69.5777674 372.39,68.74 C374.1,67.67 375.94,68.09 377.82,68.03 C377.82,68.03 378.53,65.03 378.62,64.79 C378.973547,63.7000136 379.628889,62.7326046 380.51,62 C381.890987,61.015464 383.63031,60.6763507 385.28,61.07 C386.389582,61.342099 387.44928,61.787577 388.42,62.39 C389.3,62.9 389.61,63.39 390.51,62.61 C391.05374,62.1423164 391.659462,61.7519625 392.31,61.45 C393.587653,60.8493621 395.020399,60.660659 396.41,60.91 C397.558562,61.1321807 398.636056,61.62975 399.55,62.36 C400.05115,62.8367857 400.473108,63.3903957 400.8,64 C401.8,65.49 402.46,63.91 403.55,63.31 C405.83955,62.0582761 408.54866,61.8225436 411.02,62.66 C412.5365,63.1412573 413.885376,64.0428195 414.91,65.26 C415.47,66.03 415.53,67.43 416.77,67.4 C417.29,67.4 417.98,66.82 418.64,66.8 C421.188888,66.6554522 423.661658,67.6962301 425.34,69.62 C426.19,70.7 426.99,72.72 426.34,74.08 C425.94,74.96 424.71,75.26 425.19,76.45 C426.898296,76.399793 428.441259,77.464883 429,79.08 C429.410683,80.7036255 429.096941,82.4255602 428.14,83.8 C427.35,85 424.83,86.08 424.73,87.64 C424.66,88.64 425.52,89.08 425.41,90.24 C425.261477,91.5522551 424.62201,92.7597399 423.62,93.62 C422.560419,94.4834727 421.277219,95.0279656 419.92,95.19 C419.234472,95.2865023 418.540931,95.3133059 417.85,95.27 C416.56,95.2 416.85,95.79 416.85,96.73 C416.591366,97.9418393 415.837006,98.9899649 414.77,99.62 C413.254435,100.494245 411.516906,100.907777 409.77,100.81 C408.84175,100.826351 407.916823,100.694701 407.03,100.42 C406.582515,100.274644 406.158194,100.065851 405.77,99.8 C404.69,99.05 404.42,100.11 403.44,100.43 C402.097717,100.81973 400.672283,100.81973 399.33,100.43 C397.679157,100.014071 396.146233,99.2236571 394.85,98.12 C393.63,97.01 393.01,98.31 391.78,98.85 C390.666932,99.3337407 389.443504,99.5065412 388.24,99.35 C386.8,99.15 384.95,98.41 384.38,96.99 C383.76,95.41 382.57,96.6 381.43,96.99 C380.201859,97.4269347 378.870377,97.4827036 377.61,97.15 C376.18202,96.7452777 375.026817,95.6937468 374.49,94.31 C374.33,93.84 374.67,93.15 374.38,92.82 C374.09,92.49 373.38,92.7 373,92.63 C372.274943,92.4817102 371.591845,92.1743162 371,91.73 C369.78394,90.7851449 368.818931,89.5557025 368.19,88.15 C367.730602,87.3732778 367.547344,86.4640355 367.67,85.57 C367.87,84.75 368.89,84.24 369.03,83.47 C369.26,81.82 366.57,80.83 367.79,78.72 Z" id="Path" stroke="#221F20" stroke-width="2.5"></path>
                <path d="M395.86,84.3 C395.819598,83.323876 395.969028,82.3491886 396.3,81.43 C396.665046,80.613617 397.212401,79.8917931 397.9,79.32 C398.489851,78.8352784 399.008302,78.2696953 399.44,77.64 C399.69307,77.2276929 399.827981,76.7537744 399.83,76.27 C399.83,74.82 399.16,74.09 397.83,74.09 C397.259113,74.0589392 396.702226,74.2736862 396.3,74.68 C395.901322,75.1201008 395.686581,75.6963227 395.7,76.29 L392,76.29 C391.934264,74.8395695 392.51253,73.4341637 393.58,72.45 C396.107038,70.6232203 399.513184,70.5951367 402.07,72.38 C403.10786,73.3293296 403.66256,74.6958762 403.58,76.1 C403.584055,76.8191999 403.416049,77.5289406 403.09,78.17 C402.635382,78.9713035 402.058433,79.6967074 401.38,80.32 L400.38,81.32 C399.754051,81.8946331 399.356382,82.675769 399.26,83.52 L399.21,84.31 L395.86,84.3 Z M395.49,88.24 C395.470075,87.7052733 395.681409,87.1878682 396.07,86.82 C396.930795,86.0737957 398.209205,86.0737957 399.07,86.82 C399.458591,87.1878682 399.669925,87.7052733 399.65,88.24 C399.666422,88.7633287 399.459114,89.2688692 399.08,89.63 C398.210078,90.3513263 396.949922,90.3513263 396.08,89.63 C395.693513,89.2724245 395.478729,88.7664081 395.49,88.24 L395.49,88.24 Z" id="Shape" stroke="#221F20" stroke-width="0.25" fill="#221F20" fill-rule="nonzero" stroke-linecap="round" stroke-linejoin="round"></path>
            </g>
        </g>
    </g>
</svg>