<svg width="517" height="401" viewBox="0 0 517 401" fill="none" xmlns="http://www.w3.org/2000/svg">
<path d="M192.263 366.814H93.1857V359.262H192.263V366.814Z" fill="white"/>
<path d="M192.263 369H93.184C91.9774 369 91 368.021 91 366.816C91 365.609 91.9774 364.63 93.184 364.63H192.263C193.47 364.63 194.447 365.609 194.447 366.816C194.447 368.021 193.47 369 192.263 369Z" fill="#100F0D"/>
<path d="M93.1852 359.262H109.556C105.463 354.701 104.935 347.951 108.374 344.189C111.814 340.425 117.92 341.076 122.011 345.636C120.321 337.42 124.712 329.313 131.819 327.531C138.927 325.747 146.059 330.961 147.75 339.178C151.097 335.482 155.626 335.133 158.48 337.644C160.908 339.779 161.681 342.91 161.102 345.858C164.126 341.405 169.648 340.337 173.435 343.471C177.223 346.608 177.161 354.809 174.138 359.262H192.263" fill="white"/>
<path d="M192.263 361.449H174.139C173.33 361.449 172.588 361 172.207 360.289C171.829 359.571 171.877 358.707 172.332 358.035C174.9 354.257 174.741 347.391 172.042 345.153C170.807 344.13 169.266 343.675 167.686 343.913C165.84 344.174 164.098 345.336 162.906 347.089C162.323 347.947 161.214 348.267 160.258 347.872C159.3 347.476 158.757 346.456 158.956 345.438C159.434 343.021 158.733 340.773 157.038 339.282C154.964 337.473 151.737 338.024 149.372 340.649C148.823 341.256 147.984 341.523 147.175 341.285C146.381 341.068 145.775 340.426 145.61 339.618C144.844 335.902 142.754 332.733 139.872 330.923C137.551 329.472 134.881 329.012 132.353 329.648C126.376 331.152 122.698 338.122 124.151 345.198C124.35 346.166 123.876 347.146 122.996 347.588C122.117 348.038 121.047 347.84 120.384 347.094C118.589 345.091 116.283 343.938 114.054 343.925H114.024C112.421 343.925 111.028 344.53 109.99 345.66C107.337 348.567 107.884 354.128 111.184 357.808C111.758 358.446 111.904 359.367 111.552 360.157C111.2 360.943 110.418 361.449 109.556 361.449H93.184C91.9774 361.449 91 360.47 91 359.265C91 358.059 91.9774 357.079 93.184 357.079H105.489C103.102 352.153 103.459 346.332 106.763 342.713C108.627 340.677 111.204 339.556 114.026 339.556H114.077C115.924 339.568 117.779 340.05 119.506 340.944C119.956 333.558 124.594 327.089 131.288 325.417C134.976 324.488 138.857 325.12 142.196 327.224C145.167 329.092 147.502 331.976 148.887 335.413C152.531 333.188 156.862 333.307 159.922 336.005C161.461 337.352 162.533 339.094 163.07 341.029C164.306 340.284 165.668 339.788 167.072 339.589C169.86 339.186 172.634 339.964 174.83 341.786C178.775 345.063 179.36 351.867 177.604 357.079H192.263C193.47 357.079 194.447 358.059 194.447 359.265C194.447 360.47 193.47 361.449 192.263 361.449Z" fill="#100F0D"/>
<ellipse cx="234" cy="296" rx="88" ry="88" transform="rotate(180 234 296)" fill="url(#paint0_linear)"/>
<path d="M173.217 232.705C160.797 245.166 151.972 261.461 148.793 280.132C140.623 328.124 172.853 373.643 220.78 381.802C254.927 387.615 287.829 372.895 306.881 346.594" stroke="black" stroke-width="5" stroke-linecap="round"/>
<path d="M214.291 187.623C240.302 173.004 241.768 149.701 233.881 127.809C227.361 109.707 211.189 96.5537 184.133 88.7945C157.076 81.0354 157.085 55.7048 145.376 65.2755C130.932 77.082 139.014 89.5951 145.677 104.65C130.861 108.534 142.853 130.292 153.427 138.171C139.486 146.701 168.628 172.515 180.45 176.542C175.455 178.601 181.452 206.08 214.291 187.623Z" fill="#E8F4FC"/>
<path d="M215.292 179.623C241.302 165.004 242.768 141.701 234.881 119.809C228.361 101.707 212.189 88.5537 185.133 80.7946C158.076 73.0354 158.086 47.7048 146.376 57.2755C131.932 69.082 140.014 81.5952 146.677 96.65C131.861 100.534 143.853 122.292 154.427 130.171C140.486 138.701 169.628 164.515 181.45 168.542C176.456 170.601 182.452 198.08 215.292 179.623Z" stroke="black" stroke-width="5" stroke-linecap="round"/>
<path d="M159.017 104.689C168.447 112.44 179.504 115.606 200.82 114.003" stroke="black" stroke-width="4" stroke-linecap="round"/>
<path d="M168.021 133.609C178.932 139.378 198.878 138.265 211.398 132.736" stroke="black" stroke-width="4" stroke-linecap="round"/>
<path d="M197.649 165.268C209.642 163.309 215.239 155.657 216.976 147.059" stroke="black" stroke-width="4" stroke-linecap="round"/>
<path d="M332.513 223.297C317.733 197.378 328.467 176.643 346.495 161.93C361.401 149.764 382.035 146.807 409.227 154.077C436.419 161.346 449.446 139.622 454.561 153.854C460.871 171.41 447.502 177.98 434.042 187.46C444.748 198.414 423.268 210.9 410.147 212.215C417.712 226.703 379.441 233.841 367.232 231.21C370.455 235.546 351.174 256.021 332.513 223.297Z" fill="#E8F4FC"/>
<path d="M335.513 216.297C320.733 190.378 331.468 169.643 349.495 154.93C364.401 142.764 385.035 139.807 412.228 147.077C439.42 154.346 452.446 132.622 457.561 146.853C463.871 164.41 450.502 170.98 437.042 180.46C447.748 191.414 426.269 203.9 413.148 205.215C420.712 219.703 382.441 226.841 370.233 224.21C373.455 228.546 354.174 249.021 335.513 216.297Z" stroke="black" stroke-width="5" stroke-linecap="round"/>
<path d="M422.325 181.004C410.251 182.797 399.141 179.822 381.689 167.478" stroke="black" stroke-width="4" stroke-linecap="round"/>
<path d="M399.723 201.167C387.399 200.5 370.869 189.281 362.979 178.098" stroke="black" stroke-width="4" stroke-linecap="round"/>
<path d="M358.027 213.068C348.753 205.216 347.891 195.775 350.826 187.509" stroke="black" stroke-width="4" stroke-linecap="round"/>
<circle cx="288.106" cy="155.312" r="37.5" transform="rotate(105.899 288.106 155.312)" stroke="black" stroke-width="7" stroke-linecap="round"/>
<line x1="281.682" y1="196.113" x2="248.809" y2="311.522" stroke="black" stroke-width="7" stroke-linecap="round"/>
<line x1="249.899" y1="300.395" x2="229.702" y2="294.642" stroke="black" stroke-width="7" stroke-linecap="round"/>
<line x1="255.104" y1="282.122" x2="234.907" y2="276.369" stroke="black" stroke-width="7" stroke-linecap="round"/>
<path d="M478.078 259.629C477.344 259.629 476.749 259.032 476.749 258.3V246.328C476.749 245.597 477.344 245 478.078 245C478.813 245 479.408 245.597 479.408 246.328V258.3C479.408 259.032 478.813 259.629 478.078 259.629Z" fill="#100F0D"/>
<path d="M478.078 321.155C477.344 321.155 476.749 320.557 476.749 319.825V307.853C476.749 307.121 477.344 306.524 478.078 306.524C478.813 306.524 479.408 307.121 479.408 307.853V319.825C479.408 320.557 478.813 321.155 478.078 321.155Z" fill="#100F0D"/>
<path d="M453.304 284.409H441.331C440.595 284.409 440 283.811 440 283.079C440 282.347 440.595 281.75 441.331 281.75H453.304C454.039 281.75 454.633 282.347 454.633 283.079C454.633 283.811 454.039 284.409 453.304 284.409Z" fill="#100F0D"/>
<path d="M514.827 284.409H502.852C502.117 284.409 501.523 283.811 501.523 283.079C501.523 282.347 502.117 281.75 502.852 281.75H514.827C515.561 281.75 516.156 282.347 516.156 283.079C516.156 283.811 515.561 284.409 514.827 284.409Z" fill="#100F0D"/>
<circle cx="478" cy="284" r="9.5" fill="#F0433B" stroke="black" stroke-width="3"/>
<path d="M285.078 19.6293C284.344 19.6293 283.749 19.032 283.749 18.3V6.328C283.749 5.59733 284.344 5 285.078 5C285.813 5 286.408 5.59733 286.408 6.328V18.3C286.408 19.032 285.813 19.6293 285.078 19.6293Z" fill="#100F0D"/>
<path d="M285.078 81.1547C284.344 81.1547 283.749 80.5574 283.749 79.8254V67.8534C283.749 67.1214 284.344 66.5241 285.078 66.5241C285.813 66.5241 286.408 67.1214 286.408 67.8534V79.8254C286.408 80.5574 285.813 81.1547 285.078 81.1547Z" fill="#100F0D"/>
<path d="M260.304 44.4086H248.331C247.595 44.4086 247 43.8113 247 43.0793C247 42.3473 247.595 41.75 248.331 41.75H260.304C261.039 41.75 261.633 42.3473 261.633 43.0793C261.633 43.8113 261.039 44.4086 260.304 44.4086Z" fill="#100F0D"/>
<path d="M321.827 44.4086H309.852C309.117 44.4086 308.523 43.8113 308.523 43.0793C308.523 42.3473 309.117 41.75 309.852 41.75H321.827C322.561 41.75 323.156 42.3473 323.156 43.0793C323.156 43.8113 322.561 44.4086 321.827 44.4086Z" fill="#100F0D"/>
<circle cx="285" cy="44" r="9.5" fill="#FFD216" stroke="black" stroke-width="3"/>
<path d="M38.0782 128.629C37.3435 128.629 36.7488 128.032 36.7488 127.3V115.328C36.7488 114.597 37.3435 114 38.0782 114C38.8128 114 39.4075 114.597 39.4075 115.328V127.3C39.4075 128.032 38.8128 128.629 38.0782 128.629Z" fill="#100F0D"/>
<path d="M38.0782 190.155C37.3435 190.155 36.7488 189.557 36.7488 188.825V176.853C36.7488 176.121 37.3435 175.524 38.0782 175.524C38.8128 175.524 39.4075 176.121 39.4075 176.853V188.825C39.4075 189.557 38.8128 190.155 38.0782 190.155Z" fill="#100F0D"/>
<path d="M13.304 153.409H1.33067C0.594667 153.409 0 152.811 0 152.079C0 151.347 0.594667 150.75 1.33067 150.75H13.304C14.0387 150.75 14.6333 151.347 14.6333 152.079C14.6333 152.811 14.0387 153.409 13.304 153.409Z" fill="#100F0D"/>
<path d="M74.8268 153.409H62.8521C62.1174 153.409 61.5228 152.811 61.5228 152.079C61.5228 151.347 62.1174 150.75 62.8521 150.75H74.8268C75.5614 150.75 76.1561 151.347 76.1561 152.079C76.1561 152.811 75.5614 153.409 74.8268 153.409Z" fill="#100F0D"/>
<circle cx="38" cy="153" r="9.5" fill="#FF9E58" stroke="black" stroke-width="3"/>
<mask id="path-36-inside-1" fill="white">
<rect x="355" y="80.7426" width="13.7782" height="13.7782" rx="1" transform="rotate(-45 355 80.7426)"/>
</mask>
<rect x="355" y="80.7426" width="13.7782" height="13.7782" rx="1" transform="rotate(-45 355 80.7426)" stroke="black" stroke-width="6" mask="url(#path-36-inside-1)"/>
<mask id="path-37-inside-2" fill="white">
<rect x="39" y="299.743" width="13.7782" height="13.7782" rx="1" transform="rotate(-45 39 299.743)"/>
</mask>
<rect x="39" y="299.743" width="13.7782" height="13.7782" rx="1" transform="rotate(-45 39 299.743)" stroke="black" stroke-width="6" mask="url(#path-37-inside-2)"/>
<mask id="path-38-inside-3" fill="white">
<rect x="118" y="186.743" width="9" height="9" rx="1" transform="rotate(-45 118 186.743)"/>
</mask>
<rect x="118" y="186.743" width="9" height="9" rx="1" transform="rotate(-45 118 186.743)" stroke="black" stroke-width="4" mask="url(#path-38-inside-3)"/>
<mask id="path-39-inside-4" fill="white">
<rect x="355" y="393.743" width="9" height="9" rx="1" transform="rotate(-45 355 393.743)"/>
</mask>
<rect x="355" y="393.743" width="9" height="9" rx="1" transform="rotate(-45 355 393.743)" stroke="black" stroke-width="4" mask="url(#path-39-inside-4)"/>
<path d="M276.442 339.869H244V353H422.43V339.869H393.85C407.754 322.875 393.85 301.248 369.905 318.241C376.084 286.572 333.601 278.847 323.56 308.972C314.291 299.703 300.387 301.248 300.387 318.241C274.433 300.939 268.718 329.055 276.442 339.869Z" fill="white"/>
<path d="M244 339.869C244 339.869 261.766 339.869 276.442 339.869C268.718 329.055 274.433 300.939 300.387 318.241C300.387 301.248 314.291 299.703 323.56 308.972C333.601 278.847 376.084 286.572 369.905 318.241C393.85 301.248 407.754 322.875 393.85 339.869C406.209 339.869 418.053 339.869 422.43 339.869M244 353H422.43" stroke="black" stroke-width="5" stroke-linecap="round" stroke-linejoin="round"/>
<defs>
<linearGradient id="paint0_linear" x1="270" y1="208" x2="202" y2="374" gradientUnits="userSpaceOnUse">
<stop stop-color="#FFBF6D"/>
<stop offset="1" stop-color="#FFE96D"/>
</linearGradient>
</defs>
</svg>
