<?xml version="1.0" encoding="UTF-8"?>
<svg width="364px" height="421px" viewBox="0 0 364 421" version="1.1" xmlns="http://www.w3.org/2000/svg" xmlns:xlink="http://www.w3.org/1999/xlink">
    <!-- Generator: Sketch 53 (72520) - https://sketchapp.com -->
    <title>500-2_1</title>
    <desc>Created with Sketch.</desc>
    <g id="Spacing-Specs---Current-vs-Final" stroke="none" stroke-width="1" fill="none" fill-rule="evenodd">
        <g id="Clem--Error-500---Spacing-FINAL" transform="translate(-457.000000, -99.000000)">
            <g id="500-2_1" transform="translate(450.000000, 84.000000)">
                <rect id="Rectangle" x="0" y="0" width="380" height="450"></rect>
                <rect id="Rectangle" fill="#EBAECA" fill-rule="nonzero" x="240.14" y="350.42" width="49.52" height="7.43" rx="3.71"></rect>
                <rect id="Rectangle" fill="#BDDCC1" fill-rule="nonzero" transform="translate(180.790000, 334.635000) rotate(90.000000) translate(-180.790000, -334.635000) " x="158.055" y="309.855" width="45.47" height="49.56" rx="22.735"></rect>
                <path d="M55.47,149.92 L55.47,262.92 C55.4644788,275.668349 45.1283507,286.000001 32.38,286 L32.38,286 C26.2509499,286.000005 20.373367,283.563198 16.0422887,279.226492 C11.7112103,274.889787 9.28203675,269.009045 9.29,262.88 L9.29,46.07 C9.29265159,39.9488032 11.7268308,34.0793682 16.0570459,29.7529038 C20.387261,25.4264394 26.2588032,22.9973473 32.38,23 L32.38,23 C38.5011968,22.9973473 44.372739,25.4264394 48.7029541,29.7529038 C53.0331692,34.0793682 55.4673484,39.9488032 55.47,46.07 L55.47,103.75 L107.7,103.75 C120.463301,103.75 130.81,114.096699 130.81,126.86 L130.81,126.86 C130.817963,132.994349 128.386683,138.880178 124.051853,143.220635 C119.717024,147.561091 113.834354,150.000005 107.7,150 L55.47,149.92 Z" id="Path" fill="#CBBAD7" fill-rule="nonzero"></path>
                <path d="M13.08,407.68 L13.08,407.68 C12.996874,420.345644 23.1943897,430.681932 35.86,430.77 L347.93,430 C360.59561,429.911932 370.793126,419.575644 370.71,406.91 L370.71,406.91 C370.793126,394.244356 360.59561,383.908068 347.93,383.82 L58.64,384.6 L58.64,384.6 L58.64,337.17 C58.723126,324.504356 48.5256103,314.168068 35.86,314.08 L35.86,314.08 C23.1943897,314.168068 12.996874,324.504356 13.08,337.17 L13.08,407.68 C12.996874,420.345644 23.1943897,430.681932 35.86,430.77" id="Path" fill="#EEAD97" fill-rule="nonzero"></path>
                <path d="M135.58,234.78 L166.15,234.78 C178.61,234.78 188.71,245.36 188.71,258.41 L188.71,258.41 C188.71,271.41 178.61,282.04 166.15,282.04 L135.58,282.04 L135.58,335.13 C135.58,348.18 125.47,358.76 113.01,358.76 L113.01,358.76 C100.55,358.76 90.45,348.18 90.45,335.13 L90.45,205.69 C90.45,192.64 100.55,182.06 113.01,182.06 L113.01,182.06 C125.47,182.06 135.58,192.64 135.58,205.69 L135.58,234.78 Z" id="Path" fill="#E27375" fill-rule="nonzero" opacity="0.85"></path>
                <path d="M315.58,312.56 L236.13,312.56 C223.079511,312.56 212.5,301.980489 212.5,288.93 L212.5,288.93 C212.5,275.879511 223.079511,265.3 236.13,265.3 L315.58,265.3 L315.58,249.21 C315.577347,242.943854 318.064704,236.933445 322.494601,232.501673 C326.924498,228.069901 332.933854,225.579999 339.2,225.58 L339.2,225.58 C352.250489,225.58 362.83,236.159511 362.83,249.21 L362.83,328.65 C362.83,341.700489 352.250489,352.28 339.2,352.28 L339.2,352.28 C332.933854,352.280001 326.924498,349.790099 322.494601,345.358327 C318.064704,340.926555 315.577347,334.916146 315.58,328.65 L315.58,312.56 L315.58,312.56 Z" id="Path" fill="#A4D1EF" fill-rule="nonzero"></path>
                <rect id="Rectangle" fill="#A0D3D9" fill-rule="nonzero" x="86.28" y="15.99" width="131.55" height="49.56" rx="23.09"></rect>
                <path d="M207.1,150.89 L207.1,131.44 C207.1,118.389511 217.679511,107.81 230.73,107.81 L230.73,107.81 C243.780489,107.81 254.36,118.389511 254.36,131.44 L254.36,150.89 L270.45,150.89 C283.500489,150.89 294.08,161.469511 294.08,174.52 L294.08,174.52 C294.080001,180.786146 291.590099,186.795502 287.158327,191.225399 C282.726555,195.655296 276.716146,198.142653 270.45,198.14 L191,198.14 C184.733854,198.142653 178.723445,195.655296 174.291673,191.225399 C169.859901,186.795502 167.369999,180.786146 167.37,174.52 L167.37,174.52 C167.37,161.469511 177.949511,150.89 191,150.89 L207.1,150.89 Z" id="Path" fill="#F1E8B6" fill-rule="nonzero"></path>
                <path d="M346.63,25.25 L346.63,25.25 C359.382255,25.25 369.72,35.5877451 369.72,48.34 L369.72,180.1 C369.72,192.852255 359.382255,203.19 346.63,203.19 L346.63,203.19 C333.877745,203.19 323.54,192.852255 323.54,180.1 L323.54,71.43 L276.12,71.43 C269.990955,71.4379633 264.110213,69.0087897 259.773508,64.6777113 C255.436802,60.346633 252.999995,54.4690501 253,48.34 L253,48.34 C253,35.5877451 263.337745,25.25 276.09,25.25 L346.6,25.25 C359.352255,25.25 369.69,35.5877451 369.69,48.34" id="Path" fill="#D47BAC" fill-rule="nonzero"></path>
                <path d="M343.83,19.63 L343.83,19.63 C356.582255,19.63 366.92,29.9677451 366.92,42.72 L366.92,174.49 C366.920001,180.61293 364.486992,186.484934 360.156489,190.813561 C355.825987,195.142188 349.952929,197.572653 343.83,197.57 L343.83,197.57 C337.707071,197.572653 331.834013,195.142188 327.503511,190.813561 C323.173008,186.484934 320.739999,180.61293 320.74,174.49 L320.74,65.81 L273.32,65.81 C260.567745,65.81 250.23,55.4722549 250.23,42.72 L250.23,42.72 C250.23,29.9677451 260.567745,19.63 273.32,19.63 L343.83,19.63 C356.582255,19.63 366.92,29.9677451 366.92,42.72" id="Path" stroke="#221F20" stroke-width="3" stroke-linecap="round" stroke-linejoin="round"></path>
                <path d="M9.29,410.93 L9.29,410.93 C9.21243245,423.590105 19.4099266,433.917418 32.07,434 L344.14,433.23 C356.80561,433.141932 367.003126,422.805644 366.92,410.14 L366.92,410.14 C367.003126,397.474356 356.80561,387.138068 344.14,387.05 L54.84,387.83 L54.84,387.83 L54.84,340.41 C54.9231262,327.749879 44.7300875,317.418068 32.07,317.33 L32.07,317.33 C25.9885451,317.369653 20.1719376,319.823597 15.8998308,324.151965 C11.6277241,328.480333 9.25008714,334.328547 9.29,340.41 L9.29,410.93 C9.21243245,423.590105 19.4099266,433.917418 32.07,434" id="Path" stroke="#221F20" stroke-width="3" stroke-linecap="round" stroke-linejoin="round"></path>
                <path d="M319.66,316.12 L240.21,316.12 C233.943854,316.120001 227.934498,313.630099 223.504601,309.198327 C219.074704,304.766555 216.587347,298.756146 216.59,292.49 L216.59,292.49 C216.59,279.49 227.16,267.87 240.21,267.87 L319.66,268.87 L319.66,252.77 C319.66,239.719511 330.239511,229.14 343.29,229.14 L343.29,229.14 C356.340489,229.14 366.92,239.719511 366.92,252.77 L366.92,332.22 C366.92,345.270489 356.340489,355.85 343.29,355.85 L343.29,355.85 C330.239511,355.85 319.66,345.270489 319.66,332.22 L319.66,316.12 L319.66,316.12 Z" id="Path" stroke="#221F20" stroke-width="3" stroke-linecap="round" stroke-linejoin="round"></path>
                <path d="M202.1,151.89 L202.1,132.44 C202.1,119.389511 212.679511,108.81 225.73,108.81 L225.73,108.81 C238.780489,108.81 249.36,119.389511 249.36,132.44 L249.36,151.89 L265.45,151.89 C278.500489,151.89 289.08,162.469511 289.08,175.52 L289.08,175.52 C289.080001,181.786146 286.590099,187.795502 282.158327,192.225399 C277.726555,196.655296 271.716146,199.142653 265.45,199.14 L186,199.14 C179.733854,199.142653 173.723445,196.655296 169.291673,192.225399 C164.859901,187.795502 162.369999,181.786146 162.37,175.52 L162.37,175.52 C162.37,162.469511 172.949511,151.89 186,151.89 L202.1,151.89 Z" id="Path" stroke="#221F20" stroke-width="3" stroke-linecap="round" stroke-linejoin="round"></path>
                <path d="M135.58,231 L166.15,231 C178.61,231 188.71,241.58 188.71,254.63 L188.71,254.63 C188.71,267.63 178.61,278.26 166.15,278.26 L135.58,278.26 L135.58,331.3 C135.58,344.35 125.47,354.93 113.01,354.93 L113.01,354.93 C100.55,354.93 90.45,344.35 90.45,331.3 L90.45,201.86 C90.45,188.81 100.55,178.23 113.01,178.23 L113.01,178.23 C125.47,178.23 135.58,188.81 135.58,201.86 L135.58,231 Z" id="Path" stroke="#221F20" stroke-width="3" stroke-linecap="round" stroke-linejoin="round"></path>
                <rect id="Rectangle" stroke="#221F20" stroke-width="3" stroke-linecap="round" stroke-linejoin="round" x="89.27" y="19.63" width="131.55" height="49.56" rx="23.09"></rect>
                <path d="M55.47,146.57 L55.47,259.57 C55.47,265.693849 53.0373106,271.566881 48.7070956,275.897096 C44.3768806,280.227311 38.5038488,282.66 32.38,282.66 L32.38,282.66 C26.2492145,282.660009 20.3701126,280.22183 16.038746,275.88296 C11.7073793,271.544089 9.27937932,265.660776 9.29,259.53 L9.29,42.72 C9.29,29.9677451 19.6277451,19.63 32.38,19.63 L32.38,19.63 C38.5038488,19.63 44.3768806,22.0626894 48.7070956,26.3929044 C53.0373106,30.7231194 55.47,36.5961512 55.47,42.72 L55.47,100.39 L107.7,100.39 C120.463301,100.39 130.81,110.736699 130.81,123.5 L130.81,123.5 C130.81,136.263301 120.463301,146.61 107.7,146.61 L55.47,146.57 Z" id="Path" stroke="#221F20" stroke-width="3" stroke-linecap="round" stroke-linejoin="round"></path>
                <rect id="Rectangle" stroke="#221F20" stroke-width="3" stroke-linecap="round" stroke-linejoin="round" transform="translate(181.790000, 332.635000) rotate(90.000000) translate(-181.790000, -332.635000) " x="159.055" y="307.855" width="45.47" height="49.56" rx="22.735"></rect>
                <rect id="Rectangle" stroke="#221F20" stroke-width="3" stroke-linecap="round" stroke-linejoin="round" x="238.14" y="348.42" width="49.52" height="7.43" rx="3.71"></rect>
                <path d="M141.48,139.83 L132.19,146.77" id="Path" fill="#E8E8E8" fill-rule="nonzero"></path>
                <path d="M132.19,147.28 C131.969059,147.286235 131.770239,147.146663 131.701036,146.936746 C131.631832,146.72683 131.708668,146.496383 131.89,146.37 L141.18,139.37 C141.405489,139.208757 141.717821,139.252747 141.89,139.47 C142.056729,139.694116 142.012146,140.010655 141.79,140.18 L132.49,147.18 C132.401433,147.240961 132.29743,147.275628 132.19,147.28 L132.19,147.28 Z" id="Path" fill="#000000" fill-rule="nonzero"></path>
                <path d="M143.08,141.96 L136.54,146.85" id="Path" fill="#E8E8E8" fill-rule="nonzero"></path>
                <path d="M136.54,147.36 C136.324059,147.357317 136.133217,147.218917 136.063579,147.014495 C135.993941,146.810073 136.060605,146.583951 136.23,146.45 L142.78,141.56 C142.924693,141.45282 143.115574,141.430975 143.28074,141.502692 C143.445907,141.57441 143.560266,141.728795 143.58074,141.907692 C143.601214,142.08659 143.524693,142.26282 143.38,142.37 L136.84,147.26 C136.7538,147.325572 136.648304,147.360738 136.54,147.36 Z" id="Path" fill="#000000" fill-rule="nonzero"></path>
                <path d="M139.94,137.76 L133.4,142.65" id="Path" fill="#E8E8E8" fill-rule="nonzero"></path>
                <path d="M133.4,143.16 C133.249115,143.171285 133.101479,143.112231 133,143 C132.839911,142.777681 132.884065,142.468601 133.1,142.3 L139.65,137.41 C139.794693,137.30282 139.985574,137.280975 140.15074,137.352692 C140.315907,137.42441 140.430266,137.578795 140.45074,137.757692 C140.471214,137.93659 140.394693,138.11282 140.25,138.22 L133.71,143.11 C133.613386,143.155362 133.505977,143.172686 133.4,143.16 Z" id="Path" fill="#000000" fill-rule="nonzero"></path>
                <path d="M147,111.09 C145.169886,112.519734 144.818011,115.149983 146.207956,117.010496 C147.597901,118.871009 150.219953,119.27951 152.11,117.93" id="Path" fill="#94BDC2" fill-rule="nonzero"></path>
                <path d="M149.59,119.54 C149.345876,119.5382 149.10209,119.521502 148.86,119.49 C146.831968,119.223191 145.170976,117.747997 144.66658,115.765653 C144.162184,113.78331 144.916119,111.693651 146.57,110.49 C146.904575,110.240435 147.377807,110.307402 147.63,110.64 C147.880627,110.977773 147.813844,111.454162 147.48,111.71 C146.73139,112.264138 146.234524,113.093804 146.099391,114.015338 C145.964258,114.936872 146.202004,115.874261 146.76,116.62 C147.319808,117.364493 148.149113,117.859922 149.07,118 C149.994733,118.137376 150.935777,117.895806 151.68,117.33 C152.016894,117.07871 152.49371,117.148106 152.745,117.485 C152.99629,117.821894 152.926894,118.29871 152.59,118.55 C151.72327,119.195543 150.670712,119.542887 149.59,119.54 Z" id="Path" fill="#000000" fill-rule="nonzero"></path>
                <path d="M156.25,123.43 L144.6,107.85 C143.52317,106.405042 143.818336,104.361237 145.26,103.28 L145.26,103.28 C146.704958,102.20317 148.748763,102.498336 149.83,103.94 L166,116.16" id="Path" fill="#CCCCCB" fill-rule="nonzero"></path>
                <path d="M156.25,124.19 C156.010784,124.191576 155.784787,124.08043 155.64,123.89 L144,108.3 C143.356087,107.446858 143.080409,106.371492 143.234462,105.313785 C143.388515,104.256078 143.959483,103.304025 144.82,102.67 C146.562192,101.355992 149.036054,101.680797 150.38,103.4 L166.45,115.55 C166.69435,115.70182 166.832037,115.978593 166.805723,116.265062 C166.779409,116.55153 166.593605,116.798588 166.325686,116.903353 C166.057766,117.008118 165.753657,116.952632 165.54,116.76 L149.38,104.55 C149.33,104.55 149.27,104.45 149.23,104.4 C148.833667,103.868015 148.242143,103.515367 147.585685,103.419712 C146.929226,103.324057 146.261665,103.493237 145.73,103.89 C145.198015,104.286333 144.845367,104.877857 144.749712,105.534315 C144.654057,106.190774 144.823237,106.858335 145.22,107.39 L156.86,123 C156.981484,123.161023 157.032986,123.364192 157.00288,123.563642 C156.972775,123.763092 156.863599,123.942008 156.7,124.06 C156.568033,124.150916 156.410119,124.196535 156.25,124.19 Z" id="Path" fill="#000000" fill-rule="nonzero"></path>
                <path d="M171.12,123 L178.26,142 C179.33683,143.444958 179.041664,145.488763 177.6,146.57 L177.6,146.57 C176.155042,147.64683 174.111237,147.351664 173.03,145.91 L161.39,130.32" id="Path" fill="#CCCCCB" fill-rule="nonzero"></path>
                <path d="M175.66,148 C175.462354,147.998232 175.265125,147.981517 175.07,147.95 C174.016129,147.798857 173.065994,147.233815 172.43,146.38 L160.78,130.8 C160.529373,130.462227 160.596156,129.985838 160.93,129.73 C161.267176,129.482613 161.740865,129.554114 161.99,129.89 L173.64,145.47 C174.469035,146.57907 176.039615,146.807274 177.15,145.98 C178.255791,145.147901 178.479455,143.577775 177.65,142.47 C177.610562,142.413601 177.577051,142.353281 177.55,142.29 L170.41,123.29 C170.29943,122.908149 170.501816,122.505603 170.874257,122.366593 C171.246697,122.227584 171.66334,122.399084 171.83,122.76 L178.93,141.62 C179.811255,142.841689 179.931433,144.454875 179.240926,145.793656 C178.550419,147.132437 177.166333,147.969764 175.66,147.96 L175.66,148 Z" id="Path" fill="#000000" fill-rule="nonzero"></path>
                <path d="M165.5,135.81 C164.276365,136.722814 163.632661,138.219089 163.811363,139.735195 C163.990065,141.2513 164.964026,142.556903 166.366363,143.160195 C167.7687,143.763487 169.386365,143.572814 170.61,142.66" id="Path" fill="#94BDC2" fill-rule="nonzero"></path>
                <path d="M168.06,144.27 C167.815457,144.269478 167.571346,144.249414 167.33,144.21 C165.301968,143.943191 163.640976,142.467997 163.13658,140.485653 C162.632184,138.50331 163.386119,136.413651 165.04,135.21 C165.377773,134.959373 165.854162,135.026156 166.11,135.36 C166.231484,135.521023 166.282986,135.724192 166.25288,135.923642 C166.222775,136.123092 166.113599,136.302008 165.95,136.42 C164.513266,137.618808 164.265562,139.732169 165.386145,141.230716 C166.506728,142.729262 168.603896,143.089176 170.16,142.05 C170.494575,141.800435 170.967807,141.867402 171.22,142.2 C171.470627,142.537773 171.403844,143.014162 171.07,143.27 C170.199768,143.917306 169.144576,144.267868 168.06,144.27 L168.06,144.27 Z" id="Path" fill="#000000" fill-rule="nonzero"></path>
                <path d="M147.9,135.08 L140.46,134.25 C139.716218,134.143748 139.045587,133.745079 138.596892,133.142439 C138.148198,132.539799 137.958541,131.78302 138.07,131.04 L138.07,131.04 C138.291722,129.494081 139.723836,128.419996 141.27,128.64 L147.98,129.64 L172.13,111.59 C174.027537,110.17512 176.712477,110.564436 178.13,112.46 L178.13,112.46 C179.54488,114.357537 179.155564,117.042477 177.26,118.46 L153.11,136.51 L152.11,143.22 C151.883491,144.766354 150.446377,145.836355 148.9,145.61 L148.9,145.61 C148.155583,145.503615 147.484115,145.105331 147.033828,144.503073 C146.583541,143.900814 146.391464,143.144106 146.5,142.4 L147.82,135.04 L147.9,135.08 Z" id="Path" fill="#FFFFFF" fill-rule="nonzero"></path>
                <path d="M149.35,146.38 C149.176969,146.39447 149.003031,146.39447 148.83,146.38 C146.886683,146.076939 145.549018,144.266632 145.83,142.32 L147,135.77 L140.42,135.04 C138.449903,134.761209 137.076833,132.940884 137.35,130.97 C137.657968,129.025242 139.471206,127.688704 141.42,127.97 L147.82,128.89 L171.68,111 C172.741807,110.177977 174.08963,109.817596 175.42,110 C177.41496,110.314082 179.032121,111.784346 179.534194,113.740473 C180.036267,115.696601 179.327095,117.763957 177.73,119 L153.83,136.86 L152.9,143.25 C152.665121,145.033874 151.149245,146.370407 149.35,146.38 L149.35,146.38 Z M148.56,135.38 L147.29,142.53 C147.132599,143.664945 147.925055,144.712599 149.06,144.87 C150.194945,145.027401 151.242599,144.234945 151.4,143.1 L152.4,136.39 C152.430588,136.19045 152.538321,136.010895 152.7,135.89 L176.85,117.89 C177.930352,117.15817 178.5205,115.891346 178.385698,114.593439 C178.250895,113.295531 177.413004,112.177025 176.205316,111.682834 C174.997627,111.188643 173.615996,111.398912 172.61,112.23 L148.47,130.23 C148.307422,130.353244 148.101175,130.403901 147.9,130.37 L141.2,129.37 C140.655462,129.294413 140.102924,129.434341 139.66,129.76 C139.212101,130.084948 138.918849,130.580943 138.85,131.13 C138.694673,132.259544 139.473314,133.305147 140.6,133.48 L147.68,134.26 L147.68,134.26 C147.972492,134.190896 148.278235,134.30065 148.46,134.54 C148.642453,134.777625 148.680792,135.095839 148.56,135.37 L148.56,135.38 Z" id="Shape" fill="#000000" fill-rule="nonzero"></path>
                <path d="M165.6,86.66 C166.05,85.89 167.2,85.75 167.97,85.5 C168.74,85.25 168.08,84.96 167.71,84.5 C167.355659,84.1068733 167.141201,83.6076447 167.1,83.08 C167.05341,82.1812547 167.497359,81.3278 168.26,80.85 C169.26,80.23 170.32,80.47 171.41,80.43 C171.41,80.43 171.81,78.71 171.87,78.56 C172.095229,77.9455462 172.486377,77.4055532 173,77 C173.802072,76.4372336 174.806529,76.2443487 175.76,76.47 C176.400966,76.6222465 177.012482,76.8790158 177.57,77.23 C178.08,77.53 178.26,77.79 178.78,77.36 C179.079521,77.089921 179.416295,76.864282 179.78,76.69 C180.517501,76.3391841 181.34708,76.2306738 182.15,76.38 C182.810903,76.5083247 183.431512,76.7929133 183.96,77.21 C184.249764,77.4805659 184.496,77.7942638 184.69,78.14 C185.25,79.01 185.69,78.14 186.27,77.74 C187.594721,77.017388 189.161694,76.8831797 190.59,77.37 C191.46949,77.6414439 192.251171,78.1625648 192.84,78.87 C193.16,79.32 193.2,80.13 193.92,80.11 C194.21,80.11 194.62,79.77 195,79.76 C196.472373,79.6772697 197.900504,80.2787822 198.87,81.39 C199.47402,82.1030899 199.697385,83.06356 199.47,83.97 C199.23,84.48 198.47,84.65 198.8,85.34 C199.790188,85.3100765 200.683447,85.9312981 201,86.87 C201.242399,87.8060444 201.059438,88.8013521 200.5,89.59 C200.05,90.29 198.59,90.91 198.5,91.81 C198.5,92.37 198.96,92.65 198.9,93.32 C198.829939,94.0886721 198.472901,94.8027476 197.9,95.32 C197.284309,95.8213785 196.53855,96.1370251 195.75,96.23 C195.354347,96.2701051 194.955653,96.2701051 194.56,96.23 C193.81,96.23 194,96.52 193.98,97.07 C193.827495,97.7711784 193.388787,98.3766666 192.77,98.74 C191.891824,99.2491859 190.883394,99.4891228 189.87,99.43 C189.334413,99.4384615 188.800947,99.360805 188.29,99.2 C188.028568,99.1208524 187.78194,98.9992278 187.56,98.84 C186.94,98.41 186.78,99.02 186.21,99.21 C185.436711,99.4397962 184.613289,99.4397962 183.84,99.21 C182.885951,98.971539 181.999686,98.5164301 181.25,97.88 C180.54,97.23 180.18,97.99 179.47,98.3 C178.839994,98.5691657 178.149702,98.6658066 177.47,98.58 C176.545622,98.5293516 175.708204,98.0186392 175.24,97.22 C174.88,96.31 174.24,96.99 173.53,97.22 C172.819671,97.4723759 172.050219,97.5071927 171.32,97.32 C170.494546,97.0825332 169.828214,96.4717292 169.52,95.67 C169.43,95.4 169.62,95 169.46,94.81 C169.3,94.62 168.87,94.74 168.66,94.7 C168.238903,94.6168775 167.84223,94.4390584 167.5,94.18 C166.800062,93.6316451 166.244069,92.9212089 165.88,92.11 C165.614043,91.6616796 165.508264,91.1363124 165.58,90.62 C165.69,90.15 166.29,89.85 166.36,89.41 C166.45,88.45 164.89,87.88 165.6,86.66 Z" id="Path" fill="#F5CEB4" fill-rule="nonzero"></path>
                <path d="M167.36,106 C167.179887,106.103745 167.036578,106.261035 166.95,106.45 C166.877002,106.661864 166.853067,106.887538 166.88,107.11 C166.888059,107.413047 166.942005,107.713121 167.04,108 C167.144893,108.289478 167.37729,108.514497 167.67,108.61 C167.988395,108.676058 168.319978,108.611183 168.59,108.43 C169.27,108.05 170.29,106.97 169.74,106.21 C169.080238,105.621759 168.112574,105.536377 167.36,106 Z" id="Path" stroke="#221F20" stroke-width="2"></path>
                <path d="M173.41,103 C173.619333,102.977276 173.817458,102.893855 173.98,102.76 C174.131878,102.593696 174.244631,102.395524 174.31,102.18 C174.433706,101.905655 174.504934,101.610568 174.52,101.31 C174.545836,101.001895 174.427697,100.699166 174.2,100.49 C173.935191,100.305058 173.609073,100.2298 173.29,100.28 C172.51,100.35 171.14,100.91 171.29,101.84 C171.44,102.77 172.7,103.16 173.41,103 Z" id="Path" stroke="#221F20" stroke-width="2"></path>
                <path d="M163.14,84.64 C163.59,83.87 164.74,83.73 165.51,83.48 C166.28,83.23 165.62,82.94 165.25,82.48 C164.897554,82.085662 164.683385,81.5871037 164.64,81.06 C164.600366,80.157608 165.046735,79.3030204 165.81,78.82 C166.81,78.2 167.86,78.44 168.95,78.41 C168.95,78.41 169.35,76.69 169.41,76.53 C169.613384,75.9062091 169.987535,75.351911 170.49,74.93 C171.288953,74.3601125 172.295182,74.1632417 173.25,74.39 C173.888038,74.5511144 174.498201,74.8073157 175.06,75.15 C175.57,75.45 175.75,75.72 176.27,75.28 C176.569521,75.009921 176.906295,74.784282 177.27,74.61 C178.009941,74.2675342 178.836869,74.1593707 179.64,74.3 C180.303049,74.4274581 180.924611,74.715918 181.45,75.14 C181.742126,75.4083899 181.988675,75.722487 182.18,76.07 C182.74,76.93 183.18,76.01 183.76,75.67 C185.085082,74.9500252 186.649576,74.8124077 188.08,75.29 C188.958474,75.5688366 189.73907,76.0927035 190.33,76.8 C190.65,77.24 190.69,78.05 191.41,78.03 C191.7,78.03 192.11,77.7 192.49,77.69 C193.963167,77.6026572 195.393249,78.2049915 196.36,79.32 C196.963833,80.0292331 197.187369,80.9867118 196.96,81.89 C196.72,82.4 196.01,82.58 196.29,83.26 C197.271895,83.2447813 198.150238,83.8681219 198.46,84.8 C198.702707,85.739257 198.519837,86.7377292 197.96,87.53 C197.51,88.22 196.05,88.85 195.96,89.75 C195.96,90.31 196.43,90.58 196.36,91.25 C196.285216,92.0173201 195.928986,92.7297811 195.36,93.25 C194.741206,93.7444941 193.996533,94.0562177 193.21,94.15 C192.814347,94.1901051 192.415653,94.1901051 192.02,94.15 C191.27,94.15 191.47,94.45 191.44,94.99 C191.290966,95.6927255 190.851339,96.2994831 190.23,96.66 C189.351824,97.1691859 188.343394,97.4091228 187.33,97.35 C186.794953,97.3616968 186.261499,97.2874183 185.75,97.13 C185.491902,97.0426054 185.246454,96.9215623 185.02,96.77 C184.4,96.34 184.24,96.94 183.67,97.13 C182.89606,97.3552786 182.07394,97.3552786 181.3,97.13 C180.34531,96.8879151 179.459118,96.429422 178.71,95.79 C178,95.15 177.64,95.9 176.93,96.21 C176.301051,96.4830347 175.610596,96.5831506 174.93,96.5 C174.007801,96.4423849 173.173401,95.9335129 172.7,95.14 C172.34,94.22 171.7,94.91 170.99,95.14 C170.278669,95.3890724 169.509229,95.420407 168.78,95.23 C167.954546,94.9925332 167.288214,94.3817292 166.98,93.58 C166.89,93.32 167.08,92.91 166.92,92.73 C166.76,92.55 166.33,92.66 166.12,92.62 C165.699817,92.5285139 165.304212,92.3477635 164.96,92.09 C164.258161,91.5476592 163.701587,90.8399177 163.34,90.03 C163.073296,89.5782944 162.967545,89.0495373 163.04,88.53 C163.15,88.06 163.75,87.77 163.82,87.32 C164,86.43 162.43,85.86 163.14,84.64 Z" id="Path" stroke="#221F20" stroke-width="2"></path>
                <path d="M179.36,87.87 C179.336772,87.3057903 179.421629,86.7423424 179.61,86.21 C179.824513,85.7386924 180.14237,85.3217189 180.54,84.99 C180.882862,84.7008401 181.182568,84.3640918 181.43,83.99 C181.576897,83.7524004 181.656402,83.4793196 181.66,83.2 C181.66,82.36 181.27,81.94 180.5,81.94 C180.171541,81.9222631 179.851208,82.0460278 179.62,82.28 C179.385725,82.5320052 179.260004,82.866065 179.27,83.21 L177.12,83.21 C177.077185,82.3802803 177.398562,81.5731847 178,81 C179.467232,79.9467982 181.442768,79.9467982 182.91,81 C183.509933,81.5484181 183.829721,82.3386984 183.78,83.15 C183.783742,83.563414 183.687691,83.971629 183.5,84.34 C183.235962,84.8076683 182.898302,85.229743 182.5,85.59 L181.9,86.16 C181.538978,86.4923973 181.308479,86.9427579 181.25,87.43 L181.25,87.89 L179.36,87.87 Z M179.14,90.14 C179.133446,89.8340218 179.257018,89.5396297 179.48,89.33 C179.714422,89.1084356 180.027607,88.9896415 180.35,89 C180.66973,88.987779 180.980516,89.107034 181.21,89.33 C181.442208,89.5331014 181.567675,89.8320095 181.55,90.14 C181.560414,90.4446824 181.440368,90.73934 181.22,90.95 C180.718877,91.3777782 179.981123,91.3777782 179.48,90.95 C179.257018,90.7403703 179.133446,90.4459782 179.14,90.14 L179.14,90.14 Z" id="Shape" fill="#221F20" fill-rule="nonzero"></path>
                <circle id="Etoile" fill="#DDDDDD" fill-rule="nonzero" cx="221.73" cy="84.87" r="5.05"></circle>
                <circle id="Etoile-2" fill="#DDDDDD" fill-rule="nonzero" cx="137.79" cy="84.87" r="5.05"></circle>
                <circle id="Etoile-3" fill="#DDDDDD" fill-rule="nonzero" cx="112.4" cy="84.87" r="5.05"></circle>
                <circle id="Etoile-4" fill="#DDDDDD" fill-rule="nonzero" cx="87.01" cy="84.87" r="5.05"></circle>
                <circle id="Etoile-5" fill="#DDDDDD" fill-rule="nonzero" cx="70.05" cy="25.25" r="5.05"></circle>
                <path d="M70.05,31.3 C67.5985551,31.3202606 65.3772064,29.8591406 64.425007,27.6000902 C63.4728075,25.3410397 63.9780052,22.7306687 65.7042899,20.9899983 C67.4305747,19.2493278 70.0366634,18.7224851 72.3035379,19.6559048 C74.5704125,20.5893245 76.0499163,22.7984714 76.05,25.25 C76.0446847,28.5696556 73.3694971,31.2671363 70.05,31.3 L70.05,31.3 Z M70.05,21.2 C68.4069743,21.200005 66.9259223,22.1902777 66.2981019,23.7086238 C65.6702815,25.2269699 66.0194746,26.9740301 67.1827009,28.1343912 C68.3459271,29.2947524 70.0938431,29.6396361 71.6106363,29.0080732 C73.1274295,28.3765103 74.1140469,26.8930207 74.11,25.25 C74.1100033,24.1741384 73.6819356,23.1424866 72.9202491,22.3826762 C72.1585626,21.6228657 71.1258584,21.1973436 70.05,21.2 L70.05,21.2 Z" id="Shape"></path>
                <circle id="Etoile-6" fill="#DDDDDD" fill-rule="nonzero" cx="70.05" cy="49.72" r="5.05"></circle>
                <path d="M70.05,55.77 C67.5985551,55.7902606 65.3772064,54.3291406 64.425007,52.0700902 C63.4728075,49.8110397 63.9780052,47.2006687 65.7042899,45.4599983 C67.4305747,43.7193278 70.0366634,43.1924851 72.3035379,44.1259048 C74.5704125,45.0593245 76.0499163,47.2684714 76.05,49.72 C76.0446847,53.0396556 73.3694971,55.7371363 70.05,55.77 Z M70.05,45.66 C67.8077239,45.66 65.99,47.4777239 65.99,49.72 C65.99,51.9622761 67.8077239,53.78 70.05,53.78 C72.2922761,53.78 74.11,51.9622761 74.11,49.72 C74.11,48.6432211 73.6822512,47.6105442 72.9208535,46.8491465 C72.1594558,46.0877488 71.1267789,45.66 70.05,45.66 L70.05,45.66 Z" id="Shape"></path>
                <circle id="Etoile-7" fill="#DDDDDD" fill-rule="nonzero" cx="250.23" cy="84.87" r="5.05"></circle>
                <circle id="Etoile-8" fill="#DDDDDD" fill-rule="nonzero" cx="235.52" cy="25.25" r="5.05"></circle>
                <circle id="Etoile-9" fill="#DDDDDD" fill-rule="nonzero" cx="235.52" cy="45.72" r="5.05"></circle>
                <circle id="Etoile-10" fill="#DDDDDD" fill-rule="nonzero" cx="235.52" cy="68.14" r="5.05"></circle>
                <circle id="Etoile-11" fill="#DDDDDD" fill-rule="nonzero" cx="274.72" cy="84.87" r="5.05"></circle>
                <circle id="Etoile-12" fill="#DDDDDD" fill-rule="nonzero" cx="274.72" cy="111.47" r="5.05"></circle>
                <circle id="Etoile-13" fill="#DDDDDD" fill-rule="nonzero" cx="301.13" cy="85.87" r="5.05"></circle>
                <circle id="Etoile-14" fill="#DDDDDD" fill-rule="nonzero" cx="302.13" cy="111.47" r="5.05"></circle>
                <circle id="Etoile-15" fill="#DDDDDD" fill-rule="nonzero" cx="302.13" cy="136.07" r="5.05"></circle>
                <circle id="Etoile-16" fill="#DDDDDD" fill-rule="nonzero" cx="274.72" cy="136.07" r="5.05"></circle>
                <circle id="Etoile-17" fill="#DDDDDD" fill-rule="nonzero" cx="302.13" cy="159.67" r="5.05"></circle>
                <circle id="Etoile-18" fill="#DDDDDD" fill-rule="nonzero" cx="302.13" cy="183.26" r="5.05"></circle>
                <circle id="Etoile-19" fill="#DDDDDD" fill-rule="nonzero" cx="311.37" cy="203.36" r="5.05"></circle>
                <circle id="Etoile-20" fill="#DDDDDD" fill-rule="nonzero" cx="330.37" cy="215.57" r="5.05"></circle>
                <circle id="Etoile-21" fill="#DDDDDD" fill-rule="nonzero" cx="351.72" cy="215.57" r="5.05"></circle>
                <circle id="Etoile-22" fill="#DDDDDD" fill-rule="nonzero" cx="255.43" cy="242.9" r="5.05"></circle>
                <circle id="Etoile-23" fill="#DDDDDD" fill-rule="nonzero" cx="232.08" cy="242.9" r="5.05"></circle>
                <circle id="Etoile-24" fill="#DDDDDD" fill-rule="nonzero" cx="208.73" cy="242.9" r="5.05"></circle>
                <circle id="Etoile-25" fill="#DDDDDD" fill-rule="nonzero" cx="255.43" cy="216.57" r="5.05"></circle>
                <circle id="Etoile-26" fill="#DDDDDD" fill-rule="nonzero" cx="232.08" cy="216.52" r="5.05"></circle>
                <circle id="Etoile-27" fill="#DDDDDD" fill-rule="nonzero" cx="208.73" cy="217.26" r="5.05"></circle>
                <circle id="Etoile-28" fill="#DDDDDD" fill-rule="nonzero" cx="208.73" cy="266.58" r="5.05"></circle>
                <circle id="Etoile-29" fill="#DDDDDD" fill-rule="nonzero" cx="194.58" cy="285.97" r="5.05"></circle>
                <circle id="Etoile-30" fill="#DDDDDD" fill-rule="nonzero" cx="207.73" cy="306.84" r="5.05"></circle>
                <circle id="Etoile-31" fill="#DDDDDD" fill-rule="nonzero" cx="223.73" cy="329.38" r="5.05"></circle>
                <circle id="Etoile-32" fill="#DDDDDD" fill-rule="nonzero" cx="246.17" cy="329.38" r="5.05"></circle>
                <circle id="Etoile-33" fill="#DDDDDD" fill-rule="nonzero" cx="268.61" cy="329.38" r="5.05"></circle>
                <circle id="Etoile-34" fill="#DDDDDD" fill-rule="nonzero" cx="291.06" cy="329.38" r="5.05"></circle>
                <circle id="Etoile-35" fill="#DDDDDD" fill-rule="nonzero" cx="223.73" cy="370.43" r="5.05"></circle>
                <circle id="Etoile-36" fill="#DDDDDD" fill-rule="nonzero" cx="222.68" cy="349.9" r="5.05"></circle>
                <circle id="Etoile-37" fill="#DDDDDD" fill-rule="nonzero" cx="246.17" cy="370.43" r="5.05"></circle>
                <circle id="Etoile-38" fill="#DDDDDD" fill-rule="nonzero" cx="268.61" cy="370.43" r="5.05"></circle>
                <circle id="Etoile-39" fill="#DDDDDD" fill-rule="nonzero" cx="291.06" cy="370.43" r="5.05"></circle>
                <circle id="Etoile-40" fill="#DDDDDD" fill-rule="nonzero" cx="314.62" cy="370.43" r="5.05"></circle>
                <circle id="Etoile-41" fill="#DDDDDD" fill-rule="nonzero" cx="304.97" cy="348.42" r="5.05"></circle>
                <circle id="Etoile-42" fill="#DDDDDD" fill-rule="nonzero" cx="338.18" cy="370.43" r="5.05"></circle>
                <circle id="Etoile-43" fill="#DDDDDD" fill-rule="nonzero" cx="85.22" cy="370.43" r="5.05"></circle>
                <circle id="Etoile-44" fill="#DDDDDD" fill-rule="nonzero" cx="72.89" cy="353.47" r="5.05"></circle>
                <circle id="Etoile-45" fill="#DDDDDD" fill-rule="nonzero" cx="71.08" cy="332.32" r="5.05"></circle>
                <circle id="Etoile-46" fill="#DDDDDD" fill-rule="nonzero" cx="107.66" cy="370.43" r="5.05"></circle>
                <circle id="Etoile-47" fill="#DDDDDD" fill-rule="nonzero" cx="130.1" cy="370.43" r="5.05"></circle>
                <circle id="Etoile-48" fill="#DDDDDD" fill-rule="nonzero" cx="152.55" cy="370.43" r="5.05"></circle>
                <circle id="Etoile-49" fill="#DDDDDD" fill-rule="nonzero" cx="176.11" cy="370.43" r="5.05"></circle>
                <circle id="Etoile-50" fill="#DDDDDD" fill-rule="nonzero" cx="199.67" cy="370.43" r="5.05"></circle>
                <circle id="Etoile-51" fill="#DDDDDD" fill-rule="nonzero" cx="170.61" cy="297.26" r="5.05"></circle>
                <circle id="Etoile-52" fill="#DDDDDD" fill-rule="nonzero" cx="148.72" cy="297.26" r="5.05"></circle>
                <circle id="Etoile-53" fill="#DDDDDD" fill-rule="nonzero" cx="147.72" cy="323.13" r="5.05"></circle>
                <circle id="Etoile-54" fill="#DDDDDD" fill-rule="nonzero" cx="145.66" cy="348.05" r="5.05"></circle>
                <circle id="Etoile-55" fill="#DDDDDD" fill-rule="nonzero" cx="185.1" cy="216.97" r="5.05"></circle>
                <circle id="Etoile-56" fill="#DDDDDD" fill-rule="nonzero" cx="159" cy="216.97" r="5.05"></circle>
                <path d="M298.61,248.06 L295.44,242.74 L292.26,248.06 L289.08,242.74 L285.9,248.06 L282.73,242.74 L279.55,248.06 L276.37,242.74 L273.199997,248.06 L273.2,224 C273.197347,219.78663 274.869242,215.74492 277.847607,212.764679 C280.825973,209.784438 284.866629,208.109999 289.08,208.11 L289.08,208.11 C293.300297,208.099369 297.35124,209.769114 300.338264,212.750509 C303.325287,215.731904 305.002671,219.77969 305,224 L305,248 L301.82,242.68 L298.61,248.06 Z" id="Path" fill="#DB3D40" fill-rule="nonzero"></path>
                <ellipse id="Oval" fill="#FFFFFF" fill-rule="nonzero" cx="286.07" cy="221.67" rx="2.08" ry="2.92"></ellipse>
                <ellipse id="Oval" fill="#FFFFFF" fill-rule="nonzero" cx="292.1" cy="221.67" rx="2.08" ry="2.92"></ellipse>
                <path d="M75.53,317.22 L72.35,311.9 L69.17,317.22 L66,311.9 L62.83,317.22 L59.65,311.9 L56.47,317.22 L53.3,311.9 L50.1199495,317.22 L50.12,293.22 C50.1093739,289.001436 51.7777483,284.952012 54.7569785,281.965278 C57.7362087,278.978543 61.7814225,277.299987 66,277.3 L66,277.3 C70.2151034,277.297345 74.25833,278.970612 77.2388588,281.951141 C80.2193877,284.93167 81.8926552,288.974897 81.89,293.19 L81.89,317.19 L78.7,311.9 L75.53,317.22 Z" id="Path" fill="#57B9E9" fill-rule="nonzero"></path>
                <ellipse id="Oval" fill="#FFFFFF" fill-rule="nonzero" cx="62.98" cy="290.83" rx="2.08" ry="2.92"></ellipse>
                <ellipse id="Oval" fill="#FFFFFF" fill-rule="nonzero" cx="69.01" cy="290.83" rx="2.08" ry="2.92"></ellipse>
                <path d="M75.94,168 L88.4,163.36 C86.0441479,157.073405 79.5085095,153.391798 72.911085,154.634899 C66.3136604,155.878 61.5660046,161.68563 61.6595386,168.398495 C61.7530726,175.111361 66.6606958,180.784458 73.290194,181.843261 C79.9196922,182.902064 86.3502176,179.039792 88.53,172.69 L75.94,168 Z" id="Path" fill="#FBDE49" fill-rule="nonzero"></path>
                <ellipse id="Oval" fill="#FFFFFF" fill-rule="nonzero" cx="75.1" cy="162.12" rx="1.21" ry="1.7"></ellipse>
                <circle id="Etoile-57" fill="#DDDDDD" fill-rule="nonzero" cx="101.61" cy="165.01" r="5.05"></circle>
                <circle id="Etoile-58" fill="#DDDDDD" fill-rule="nonzero" cx="124.06" cy="165.01" r="5.05"></circle>
                <circle id="Etoile-59" fill="#DDDDDD" fill-rule="nonzero" cx="146.5" cy="165.01" r="5.05"></circle>
                <circle id="Etoile-60" fill="#DDDDDD" fill-rule="nonzero" cx="150.55" cy="190.99" r="5.05"></circle>
            </g>
        </g>
    </g>
</svg>