<?xml version="1.0" encoding="UTF-8" standalone="no"?>
<svg width="30px" height="30px" viewBox="0 0 30 30" version="1.1" xmlns="http://www.w3.org/2000/svg" xmlns:xlink="http://www.w3.org/1999/xlink">
    <!-- Generator: Sketch 50.2 (55047) - http://www.bohemiancoding.com/sketch -->
    <title>Solver/icons/Failed</title>
    <desc>Created with Sketch.</desc>
    <defs></defs>
    <g id="symbols" stroke="none" stroke-width="1" fill="none" fill-rule="evenodd">
        <g id="Solver/icons/Failed" transform="translate(-3.000000, -3.000000)">
            <g id="Shape">
                <polygon points="0 0 36 0 36 36 0 36"></polygon>
                <path d="M18,3 C9.72,3 3,9.72 3,18 C3,26.28 9.72,33 18,33 C26.28,33 33,26.28 33,18 C33,9.72 26.28,3 18,3 Z M22.7426407,24.863961 L18.5,20.6213203 L14.2573593,24.863961 L12.136039,22.7426407 L16.3786797,18.5 L12.136039,14.2573593 L14.2573593,12.136039 L18.5,16.3786797 L22.7426407,12.136039 L24.863961,14.2573593 L20.6213203,18.5 L24.863961,22.7426407 L22.7426407,24.863961 Z" fill="#D0021B" fill-rule="nonzero"></path>
            </g>
        </g>
    </g>
</svg>