<?xml version="1.0" encoding="UTF-8" standalone="no"?>
<svg width="30px" height="30px" viewBox="0 0 30 30" version="1.1" xmlns="http://www.w3.org/2000/svg" xmlns:xlink="http://www.w3.org/1999/xlink">
    <!-- Generator: Sketch 50.2 (55047) - http://www.bohemiancoding.com/sketch -->
    <title>Solver/icons/Running</title>
    <desc>Created with Sketch.</desc>
    <defs></defs>
    <g id="symbols" stroke="none" stroke-width="1" fill="none" fill-rule="evenodd">
        <g id="Solver/icons/Running" transform="translate(-4.000000, -3.000000)">
            <g>
                <polygon id="Shape" points="0 0 36 0 36 36 0 36"></polygon>
                <g id="Group-26" transform="translate(4.000000, 3.000000)" fill="#576D7D" fill-rule="nonzero">
                    <path d="M14.9193548,0 C23.1548387,0 29.8387097,6.68387097 29.8387097,14.9193548 C29.8387097,23.1548387 23.1548387,29.8387097 14.9193548,29.8387097 C6.68387097,29.8387097 0,23.1548387 0,14.9193548 C0,6.68387097 6.68387097,0 14.9193548,0 Z M23.7096774,9.67741935 L18.8709677,14.516129 L22.5,14.516129 C22.5,18.5201613 19.2459677,21.7741935 15.2419355,21.7741935 C14.0201613,21.7741935 12.858871,21.4717742 11.8548387,20.9274194 L10.0887097,22.6935484 C11.5766129,23.6370968 13.3427419,24.1935484 15.2419355,24.1935484 C20.5887097,24.1935484 24.9193548,19.8629032 24.9193548,14.516129 L28.5483871,14.516129 L23.7096774,9.67741935 Z M7.98387097,14.516129 C7.98387097,10.5120968 11.2379032,7.25806452 15.2419355,7.25806452 C16.4637097,7.25806452 17.625,7.56048387 18.6290323,8.10483871 L20.3951613,6.33870968 C18.9072581,5.39516129 17.141129,4.83870968 15.2419355,4.83870968 C9.89516129,4.83870968 5.56451613,9.16935484 5.56451613,14.516129 L1.93548387,14.516129 L6.77419355,19.3548387 L11.6129032,14.516129 L7.98387097,14.516129 Z" id="Combined-Shape"></path>
                </g>
            </g>
        </g>
    </g>
</svg>