<?xml version="1.0" encoding="UTF-8" standalone="no"?>
<svg width="33px" height="33px" viewBox="0 0 30 30" version="1.1" xmlns="http://www.w3.org/2000/svg" xmlns:xlink="http://www.w3.org/1999/xlink">
    <!-- Generator: Sketch 50.2 (55047) - http://www.bohemiancoding.com/sketch -->
    <title>Solver/icons/Creating</title>
    <desc>Created with Sketch.</desc>
    <defs></defs>
    <g id="symbols" stroke="none" stroke-width="1" fill="none" fill-rule="evenodd">
        <g id="Solver/icons/Creating" transform="translate(-3.000000, -3.000000)">
            <g id="Shape">
                <polygon points="0 0 36 0 36 36 0 36"></polygon>
                 <g id="Group-26" transform="translate(3.000000, 3.000000)" fill="#576D7D" fill-rule="nonzero">
                <path d="M 16.3125 12.238281 L 12.5 9.375 L 12.5 20.625 L 16.3125 17.761719 L 20 15 Z M 16.3125 12.238281 L 12.5 9.375 L 12.5 20.625 L 16.3125 17.761719 L 20 15 Z M 16.3125 12.238281 L 12.5 9.375 L 12.5 20.625 L 16.3125 17.761719 L 20 15 Z M 13.75 5.085938 L 13.75 2.5625 C 11.238281 2.8125 8.949219 3.8125 7.101562 5.324219 L 8.875 7.113281 C 10.261719 6.039062 11.925781 5.3125 13.75 5.085938 Z M 7.113281 8.875 L 5.324219 7.101562 C 3.8125 8.949219 2.8125 11.238281 2.5625 13.75 L 5.085938 13.75 C 5.3125 11.925781 6.039062 10.261719 7.113281 8.875 Z M 5.085938 16.25 L 2.5625 16.25 C 2.8125 18.761719 3.8125 21.050781 5.324219 22.898438 L 7.113281 21.113281 C 6.039062 19.738281 5.3125 18.074219 5.085938 16.25 Z M 7.101562 24.675781 C 8.949219 26.1875 11.25 27.1875 13.75 27.4375 L 13.75 24.914062 C 11.925781 24.6875 10.261719 23.960938 8.875 22.886719 Z M 27.5 15 C 27.5 21.449219 22.601562 26.773438 16.3125 27.4375 L 16.3125 24.914062 C 21.210938 24.261719 25 20.0625 25 15 C 25 9.9375 21.210938 5.738281 16.3125 5.085938 L 16.3125 2.5625 C 22.601562 3.226562 27.5 8.550781 27.5 15 Z M 27.5 15 " ></path>
            </g>
             </g>
        </g>
    </g>
</svg>