<?xml version="1.0" encoding="UTF-8"?>
<svg width="18px" height="18px" viewBox="0 0 18 18" version="1.1" xmlns="http://www.w3.org/2000/svg" xmlns:xlink="http://www.w3.org/1999/xlink">
    <!-- Generator: Sketch 53.2 (72643) - https://sketchapp.com -->
    <title>icons/pairingmenu/edit_cc</title>
    <desc>Created with Sketch.</desc>
    <defs>
        <polygon id="path-1" points="0 0 16 0 16 12 0 12"></polygon>
    </defs>
    <g id="icons/pairingmenu/edit_cc" stroke="none" stroke-width="1" fill="none" fill-rule="evenodd">
        <g id="Group-3" transform="translate(1.000000, 3.000000)">
            <mask id="mask-2" fill="white">
                <use xlink:href="#path-1"></use>
            </mask>
            <g id="Clip-2"></g>
            <path d="M5.6,6.85714286 C3.736,6.85714286 0,7.86 0,9.85714286 L0,12 L5.6,12 L5.6,10.0714286 C5.6,9.342 5.864,8.06571429 7.496,7.09714286 C6.8,6.94285714 6.128,6.85714286 5.6,6.85714286 M11.6,7.71428571 C10.136,7.71428571 7.2,8.50285714 7.2,10.0714286 L7.2,12 L16,12 L16,10.0714286 C16,8.50285714 13.064,7.71428571 11.6,7.71428571 M5.6,5.14285714 C6.928,5.14285714 7.992,3.99428571 7.992,2.57142857 C7.992,1.14857143 6.928,0 5.6,0 C4.272,0 3.2,1.14857143 3.2,2.57142857 C3.2,3.99428571 4.272,5.14285714 5.6,5.14285714 M11.6,6 C12.704,6 13.592,5.04 13.592,3.85714286 C13.592,2.67428571 12.704,1.71428571 11.6,1.71428571 C10.496,1.71428571 9.6,2.67428571 9.6,3.85714286 C9.6,5.04 10.496,6 11.6,6" id="Fill-1" fill="#7E7E7E" fill-rule="nonzero" mask="url(#mask-2)"></path>
        </g>
    </g>
</svg>