<?xml version="1.0" encoding="UTF-8"?>
<svg width="18px" height="18px" viewBox="0 0 18 18" version="1.1" xmlns="http://www.w3.org/2000/svg" xmlns:xlink="http://www.w3.org/1999/xlink">
    <!-- Generator: Sketch 53.2 (72643) - https://sketchapp.com -->
    <title>icons/pairingmenu/edit</title>
    <desc>Created with Sketch.</desc>
    <defs>
        <polygon id="path-1" points="0 0.254333333 7.01449412 0.254333333 7.01449412 6.78595556 0 6.78595556"></polygon>
    </defs>
    <g id="icons/pairingmenu/edit" stroke="none" stroke-width="1" fill="none" fill-rule="evenodd">
        <g id="Group-8" transform="translate(2.000000, 2.000000)">
            <path d="M10.0043176,8.22772222 L7.96937647,10.1488333 L11.6184353,13.5936111 C11.8202,13.7911667 12.1537294,13.7966111 12.3629059,13.6060556 L12.3760824,13.5936111 L13.6270235,12.4199444 C13.8502,12.2636111 13.8979647,11.9672778 13.7324353,11.7557222 C13.7159647,11.7347222 13.6970235,11.7145 13.6772588,11.6966111 L10.0043176,8.22772222 Z" id="Fill-1" fill="#FFFFFF"></path>
            <g id="Group-5" transform="translate(0.000000, 0.523600)">
                <mask id="mask-2" fill="white">
                    <use xlink:href="#path-1"></use>
                </mask>
                <g id="Clip-4"></g>
                <path d="M6.10861176,1.22484444 C5.04378824,0.2394 3.44531765,-0.0234888889 2.08978824,0.563733333 L4.39567059,2.76484444 L2.74861176,4.3204 L0.343905882,2.07262222 C-0.311623529,3.36062222 -0.0118588235,4.90062222 1.08508235,5.88373333 C1.56025882,6.33251111 2.15978824,6.64595556 2.81449412,6.78595556 L7.01449412,2.79595556 C6.86296471,2.2064 6.55084706,1.66506667 6.10861176,1.22484444" id="Fill-3" fill="#FFFFFF" mask="url(#mask-2)"></path>
            </g>
            <path d="M12.9847529,4.09733333 C13.2532235,3.84688889 13.2556941,3.43777778 12.9905176,3.18422222 C12.9888706,3.18266667 12.9872235,3.18111111 12.9847529,3.17955556 L11.3376941,1.66288889 C11.0716941,1.41244444 10.6409882,1.41244444 10.3741647,1.66288889 L9.15616471,2.85288889 L11.7329882,5.27955556 L12.9847529,4.09733333 Z M0.837694118,10.7084444 L0.837694118,13.1428889 L3.40792941,13.1428889 L11.0008706,5.97177778 L8.4224,3.54511111 L0.837694118,10.7084444 Z" id="Fill-6" fill="#FFFFFF"></path>
        </g>
    </g>
</svg>