<?xml version="1.0" encoding="UTF-8"?>
<svg width="18px" height="18px" viewBox="0 0 18 18" version="1.1" xmlns="http://www.w3.org/2000/svg" xmlns:xlink="http://www.w3.org/1999/xlink">
    <!-- Generator: Sketch 53.2 (72643) - https://sketchapp.com -->
    <title>icons/pairingmenu/group</title>
    <desc>Created with Sketch.</desc>
    <g id="icons/pairingmenu/group" stroke="none" stroke-width="1" fill="none" fill-rule="evenodd">
        <path d="M3.26666667,9 C3.26666667,7.632 4.19333333,6.52 5.33333333,6.52 L8,6.52 L8,5 L5.33333333,5 C3.49333333,5 2,6.792 2,9 C2,11.208 3.49333333,13 5.33333333,13 L8,13 L8,11.48 L5.33333333,11.48 C4.19333333,11.48 3.26666667,10.368 3.26666667,9 Z M6,10 L12,10 L12,8 L6,8 L6,10 Z M12.6666667,5 L10,5 L10,6.52 L12.6666667,6.52 C13.8066667,6.52 14.7333333,7.632 14.7333333,9 C14.7333333,10.368 13.8066667,11.48 12.6666667,11.48 L10,11.48 L10,13 L12.6666667,13 C14.5066667,13 16,11.208 16,9 C16,6.792 14.5066667,5 12.6666667,5 Z" id="Shape" fill="#7E7E7E" fill-rule="nonzero"></path>
    </g>
</svg>