<?xml version="1.0" encoding="UTF-8"?>
<svg width="14px" height="14px" viewBox="0 0 14 14" version="1.1" xmlns="http://www.w3.org/2000/svg" xmlns:xlink="http://www.w3.org/1999/xlink">
    <!-- Generator: Sketch 54 (76480) - https://sketchapp.com -->
    <title>baseline-select_all-24px</title>
    <desc>Created with Sketch.</desc>
    <g id="Spacing---Pairing" stroke="none" stroke-width="1" fill="none" fill-rule="evenodd">
        <g id="Pairings-Multiple-seclection----SPACING-FINAL-Clem" transform="translate(-610.000000, -721.000000)">
            <g id="Group-2" transform="translate(595.000000, 660.000000)">
                <g id="baseline-select_all-24px" transform="translate(13.000000, 59.000000)">
                    <polygon id="Path" points="0 0 18 0 18 18 0 18"></polygon>
                    <path d="M2.25,3.75 L3.75,3.75 L3.75,2.25 C2.925,2.25 2.25,2.925 2.25,3.75 Z M2.25,9.75 L3.75,9.75 L3.75,8.25 L2.25,8.25 L2.25,9.75 Z M5.25,15.75 L6.75,15.75 L6.75,14.25 L5.25,14.25 L5.25,15.75 Z M2.25,6.75 L3.75,6.75 L3.75,5.25 L2.25,5.25 L2.25,6.75 Z M9.75,2.25 L8.25,2.25 L8.25,3.75 L9.75,3.75 L9.75,2.25 Z M14.25,2.25 L14.25,3.75 L15.75,3.75 C15.75,2.925 15.075,2.25 14.25,2.25 Z M3.75,15.75 L3.75,14.25 L2.25,14.25 C2.25,15.075 2.925,15.75 3.75,15.75 Z M2.25,12.75 L3.75,12.75 L3.75,11.25 L2.25,11.25 L2.25,12.75 Z M6.75,2.25 L5.25,2.25 L5.25,3.75 L6.75,3.75 L6.75,2.25 Z M8.25,15.75 L9.75,15.75 L9.75,14.25 L8.25,14.25 L8.25,15.75 Z M14.25,9.75 L15.75,9.75 L15.75,8.25 L14.25,8.25 L14.25,9.75 Z M14.25,15.75 C15.075,15.75 15.75,15.075 15.75,14.25 L14.25,14.25 L14.25,15.75 Z M14.25,6.75 L15.75,6.75 L15.75,5.25 L14.25,5.25 L14.25,6.75 Z M14.25,12.75 L15.75,12.75 L15.75,11.25 L14.25,11.25 L14.25,12.75 Z M11.25,15.75 L12.75,15.75 L12.75,14.25 L11.25,14.25 L11.25,15.75 Z M11.25,3.75 L12.75,3.75 L12.75,2.25 L11.25,2.25 L11.25,3.75 Z M5.25,12.75 L12.75,12.75 L12.75,5.25 L5.25,5.25 L5.25,12.75 Z M6.75,6.75 L11.25,6.75 L11.25,11.25 L6.75,11.25 L6.75,6.75 Z" id="Shape" fill="#7E7E7E" fill-rule="nonzero"></path>
                </g>
            </g>
        </g>
    </g>
</svg>