<?xml version="1.0" encoding="UTF-8"?>
<svg width="14px" height="14px" viewBox="0 0 14 14" version="1.1" xmlns="http://www.w3.org/2000/svg" xmlns:xlink="http://www.w3.org/1999/xlink">
    <!-- Generator: Sketch 53.2 (72643) - https://sketchapp.com -->
    <title>baseline-select_all-24px</title>
    <desc>Created with Sketch.</desc>
    <g id="Spacing-Specs---Current-vs-Final" stroke="none" stroke-width="1" fill="none" fill-rule="evenodd">
        <g id="Pairings-Flight-actionbar--SPACING-FINAL-Clem---multi" transform="translate(-611.000000, -769.000000)">
            <g id="Pairing/menu_click-multiple" transform="translate(500.000000, 620.000000)">
                <g id="Group-2" transform="translate(95.000000, 40.000000)">
                    <g id="baseline-select_all-24px" transform="translate(14.000000, 107.000000)">
                        <polygon id="Path" points="0 0 18 0 18 18 0 18"></polygon>
                        <g id="Group" transform="translate(2.000000, 2.000000)" fill="#7E7E7E" fill-rule="nonzero">
                            <path d="M0,14 L14,14 L14,0 L0,0 L0,14 Z M2,2 L12,2 L12,12 L2,12 L2,2 Z" id="Shape"></path>
                            <g id="baseline-close-24px" transform="translate(4.000000, 4.000000)">
                                <polygon id="Path" points="6 0.604285714 5.39571429 0 3 2.39571429 0.604285714 0 0 0.604285714 2.39571429 3 0 5.39571429 0.604285714 6 3 3.60428571 5.39571429 6 6 5.39571429 3.60428571 3"></polygon>
                            </g>
                        </g>
                    </g>
                </g>
            </g>
        </g>
    </g>
</svg>