<?xml version="1.0" encoding="UTF-8"?>
<svg width="18px" height="18px" viewBox="0 0 18 18" version="1.1" xmlns="http://www.w3.org/2000/svg" xmlns:xlink="http://www.w3.org/1999/xlink">
    <!-- Generator: Sketch 53.2 (72643) - https://sketchapp.com -->
    <title>icons/pairingmenu/loupe</title>
    <desc>Created with Sketch.</desc>
    <defs>
        <polygon id="path-1" points="0 0.000466666667 13.6826667 0.000466666667 13.6826667 13.6826667 0 13.6826667"></polygon>
    </defs>
    <g id="icons/pairingmenu/loupe" stroke="none" stroke-width="1" fill="none" fill-rule="evenodd">
        <g id="Group-3" transform="translate(2.000000, 2.000000)">
            <mask id="mask-2" fill="white">
                <use xlink:href="#path-1"></use>
            </mask>
            <g id="Clip-2"></g>
            <path d="M6.84133333,12.3111333 C3.82106667,12.3111333 1.372,9.86206667 1.372,6.8418 C1.372,3.8206 3.82106667,1.37153333 6.84133333,1.37153333 C9.8616,1.37153333 12.3106667,3.8206 12.3106667,6.8418 C12.3050667,9.8602 9.85973333,12.3055333 6.84133333,12.3111333 L6.84133333,12.3111333 Z M6.84133333,0.000466666667 C3.0632,0.000466666667 0,3.06273333 0,6.8418 C0,10.6199333 3.0632,13.6831333 6.84133333,13.6831333 L12.3106667,13.6831333 C13.0685333,13.6831333 13.6826667,13.069 13.6826667,12.3111333 L13.6826667,6.8418 C13.6770667,3.06553333 10.6176,0.00513333333 6.84133333,0.000466666667 L6.84133333,0.000466666667 Z M7.52266667,3.42486667 L6.16,3.42486667 L6.16,6.16046667 L3.42533333,6.16046667 L3.42533333,7.52313333 L6.16,7.52313333 L6.16,10.2578 L7.52266667,10.2578 L7.52266667,7.52313333 L10.2573333,7.52313333 L10.2573333,6.16046667 L7.52266667,6.16046667 L7.52266667,3.42486667 Z" id="Fill-1" fill="#FFFFFF" mask="url(#mask-2)"></path>
        </g>
    </g>
</svg>