<svg width="12" height="14" viewBox="0 0 12 14" fill="none" xmlns="http://www.w3.org/2000/svg">
<path fill-rule="evenodd" clip-rule="evenodd" d="M9.99999 4.92593H9.33332V3.74074C9.33332 2.10519 7.83999 0.777779 5.99999 0.777779C4.15999 0.777779 2.66666 2.10519 2.66666 3.74074V4.92593H1.99999C1.26666 4.92593 0.666656 5.45926 0.666656 6.11111V12.037C0.666656 12.6889 1.26666 13.2222 1.99999 13.2222H9.99999C10.7333 13.2222 11.3333 12.6889 11.3333 12.037V6.11111C11.3333 5.45926 10.7333 4.92593 9.99999 4.92593ZM5.99999 10.2593C5.26666 10.2593 4.66666 9.72593 4.66666 9.07408C4.66666 8.42222 5.26666 7.88889 5.99999 7.88889C6.73332 7.88889 7.33332 8.42222 7.33332 9.07408C7.33332 9.72593 6.73332 10.2593 5.99999 10.2593ZM3.93332 4.92593H8.06666V3.74074C8.06666 2.72741 7.13999 1.9037 5.99999 1.9037C4.85999 1.9037 3.93332 2.72741 3.93332 3.74074V4.92593Z" fill="#0A75C2"/>
</svg>
